<mxfile host="app.diagrams.net" agent="Mozilla/5.0 (Windows NT 10.0; Win64; x64) AppleWebKit/537.36 (KHTML, like Gecko) Chrome/131.0.0.0 Safari/537.36 Edg/131.0.0.0" version="25.0.3">
  <diagram name="Page-1" id="xo-no5FOjRc42Bn3118C">
    <mxGraphModel dx="1775" dy="2793" grid="1" gridSize="10" guides="1" tooltips="1" connect="1" arrows="1" fold="1" page="1" pageScale="1" pageWidth="850" pageHeight="1100" math="0" shadow="0">
      <root>
        <mxCell id="0" />
        <mxCell id="1" parent="0" />
        <mxCell id="KPgrsXEgDjS83-H8w_TJ-24" value="" style="rounded=0;whiteSpace=wrap;html=1;fillColor=none;strokeWidth=2;" parent="1" vertex="1">
          <mxGeometry x="-630" y="-2080" width="470" height="300" as="geometry" />
        </mxCell>
        <mxCell id="KPgrsXEgDjS83-H8w_TJ-6" style="edgeStyle=orthogonalEdgeStyle;rounded=0;orthogonalLoop=1;jettySize=auto;html=1;entryX=0;entryY=0.5;entryDx=0;entryDy=0;endArrow=classic;endFill=1;strokeWidth=2;strokeColor=#007FFF;startArrow=classic;startFill=1;" parent="1" source="KPgrsXEgDjS83-H8w_TJ-1" target="KPgrsXEgDjS83-H8w_TJ-4" edge="1">
          <mxGeometry relative="1" as="geometry" />
        </mxCell>
        <mxCell id="KPgrsXEgDjS83-H8w_TJ-1" value="" style="sketch=0;verticalLabelPosition=bottom;sketch=0;aspect=fixed;html=1;verticalAlign=top;strokeColor=none;fillColor=#000000;align=center;outlineConnect=0;pointerEvents=1;shape=mxgraph.citrix2.desktop;" parent="1" vertex="1">
          <mxGeometry x="-760" y="-1949.33" width="75.87" height="58.66" as="geometry" />
        </mxCell>
        <mxCell id="KPgrsXEgDjS83-H8w_TJ-8" value="" style="group" parent="1" vertex="1" connectable="0">
          <mxGeometry x="-600" y="-1949.3299999999997" width="110" height="60" as="geometry" />
        </mxCell>
        <mxCell id="KPgrsXEgDjS83-H8w_TJ-4" value="" style="whiteSpace=wrap;html=1;aspect=fixed;fillColor=none;" parent="KPgrsXEgDjS83-H8w_TJ-8" vertex="1">
          <mxGeometry width="60" height="60" as="geometry" />
        </mxCell>
        <mxCell id="KPgrsXEgDjS83-H8w_TJ-7" value="" style="shape=image;html=1;verticalAlign=top;verticalLabelPosition=bottom;labelBackgroundColor=#ffffff;imageAspect=0;aspect=fixed;image=https://cdn4.iconfinder.com/data/icons/ionicons/512/icon-social-github-128.png" parent="KPgrsXEgDjS83-H8w_TJ-8" vertex="1">
          <mxGeometry x="5" y="4.999999999999773" width="50" height="50" as="geometry" />
        </mxCell>
        <mxCell id="KPgrsXEgDjS83-H8w_TJ-59" style="edgeStyle=orthogonalEdgeStyle;rounded=0;orthogonalLoop=1;jettySize=auto;html=1;exitX=0.75;exitY=0;exitDx=0;exitDy=0;entryX=0.25;entryY=0;entryDx=0;entryDy=0;strokeWidth=2;strokeColor=#007FFF;" parent="KPgrsXEgDjS83-H8w_TJ-8" source="KPgrsXEgDjS83-H8w_TJ-4" target="KPgrsXEgDjS83-H8w_TJ-4" edge="1">
          <mxGeometry relative="1" as="geometry">
            <Array as="points">
              <mxPoint x="45" y="-51" />
              <mxPoint x="15" y="-51" />
            </Array>
          </mxGeometry>
        </mxCell>
        <mxCell id="KPgrsXEgDjS83-H8w_TJ-32" value="Repository" style="text;html=1;align=center;verticalAlign=middle;whiteSpace=wrap;rounded=0;fontStyle=1;fontSize=11;" parent="1" vertex="1">
          <mxGeometry x="-600" y="-1889.33" width="60" height="19.33" as="geometry" />
        </mxCell>
        <mxCell id="KPgrsXEgDjS83-H8w_TJ-38" value="" style="group" parent="1" vertex="1" connectable="0">
          <mxGeometry x="-480" y="-1949.9999999999995" width="60" height="60" as="geometry" />
        </mxCell>
        <mxCell id="KPgrsXEgDjS83-H8w_TJ-9" value="" style="shape=image;imageAspect=0;aspect=fixed;verticalLabelPosition=bottom;verticalAlign=top;image=data:image/png,iVBORw0KGgoAAAANSUhEUgAAAYoAAAGQCAYAAACwMyftAAAAAXNSR0IArs4c6QAAAARnQU1BAACxjwv8YQUAAAAJcEhZcwAADsMAAA7DAcdvqGQAAP+lSURBVHhe7L0HfF3Xdeb7Eb13EABRCIK9N7GTonqXbMvdcUkc23ESJ5lMkpdM3mTimUmfTNpLPEkmjp3Eae52XFQsq/dGib13gOi9t7f++94NXUEgcC8KCZDn02/p3HJwec4+e69vtb33vOHhYQUIECBAgACXQ1z4GCBAgAABAoyJgCgCBAgQIMC4CIgiQIAAAQKMi4AoAgQIECDAuAiIIkCAAAECjIuAKAIECBAgwLgIiCJAgAABAoyLgCgCBAgQIMC4CIgiQIAAAQKMi4AoAgQIECDAuAiIIkCAAAECjIuAKAIECBAgwLgIiCJAgAABAoyLgCgCBAgQIMC4CJYZnxgJJvEcraVSrblyBoeU3W8yNKR4+2ze0HBIJmrJeWGJs//NQ3g/T8P2fig+Tj3x80zi1G0fI50RMmQSIECAAFcFAVGMDzwuyCHViCC1d0AL6jq18nSzVh6s1Yr2XqUNDivOCCOOY+hPYgNEkRyv/rJs1RZlqK4wXbULMlWdk6rzSfE6b9+fs9P6Q2cHCBAgwJVHQBRhb8EkkaMRQoZ5DBkDJuY1pNsxtX9QaX2DSm3q0oJjDVrxerVWPHVaK1t7lDpgBGHfx9vfxEQU5kWMNHxaovqW5KuuKk+15Tmqq8hRdVmWzs/P0HkIw4ikz7yN4Tj7F+w4ZOTRZn/WGha8DzwOfi/wPAIECDDtCIgi5DFkmkeQZQo/q6VHi2vatfhUo5acaVGpfZaAGGHEt5kHUdehbPMqsmralN1rn9vfEkESoSf3a5NAfJyGspLVk52i7kw72utuI4hOe9+ZnaxO+34QYiFElZSg/j0LdXBRng6kJemg/aPn7SfwOAbCx8BFDBAgwLTieiQKPAdHDAODyjQSQOFnd/Urp6tP2aeatfzAJS1//pzzHCpCfxLCVMhgKkgwIiFExRHv4+7l2rejQvvWFGlfUYZOJ+FxxKnPTkW6TNojJECAAAGmhOuOKOxuc9t7te5iq9Ydrtfa2g4V9PQrudvEyCK5vlPZlzqUU92mnIZOZYT/zOFqEUXYm3APKjFegwtz1FhuUpathrxUtRlR9C/O1cDifPVX5umsnXvATj1owjEIRwUIEGBKuJaJwit1cgdppuSdGCGUnWzSjufOase3D2qHeRAFhI88CVwtMpgs8DIgj+R4DXB890odf99avViVr5eMQF60U/Aq8DKQHpPrzoUMECDA1HCtEgXKniQ1JJFknsKq+o5QtdLxBi0+06KSU40qNo+ixLyLlEhymGtEgadBjsN7HeZlNC/N16WFuaq9caEurSvR4YxkHbJTkdMmPHAk8DQCBAgQFa5VoiBBnW5Kn6ql7HMt2vnSBe38/hHtePasloTPuSbhQ1QeH1ynFz67Vc9W5ulZe/uGCZ4FlVIcSYAHCBAgwLi4JonCyKGqpVurLrRp1bF6rTjTrNITTVpwqFal51uVGz7tmsRoolhdpOoVhbq4t1IXd1XqbF6aDtvHXho4J0CAAAHGw7VCFISYqGZKtLtJaO3Wlv21uumhY9r7L/u0050RxlwLLU0VkcRRkqnWP79XT2wu15P2+RP2EaEoSmq9BAgQIMA7cE0Qhd1Cfle/ljZ0admFVi093aTKI/WqNLJY+GaNysKnOVzPRJGRpN7NpTpz11KduXWJzhRm6JR9fDwsJ0x6TQIECBDgbZjLRIHCx5OY1zeoJaeadOsTp3TLP76mW+o6lWm3NbIGkzs7wEjim0opZnj/z9t08oHVetzeP25fI8z49rO8574FESBAgGnBXCWKpIEhlZsXUdbao/LqNlWZB7HilQtuaY0VHX1K9gQREMVbgCiQ8EKEw4vzVP+htTp89wodnp+hI3YK60pdDMslkwABAgSYm0RhV5xpBLHteIO2P3dW2/bXalGjeRG1HcrCm4hcdykgircQGYYCLBuyIEstJZlq+exWtWyt0Jv28SsmL5tQIRUgQIAAc4ooWLgvya420Yggt7ZdO964pB2PntCO/ZdU0WleREevm12NtzFCFNONhVnSnoXSonxjqxQNZCdrICMk/dkpas1IUktaklqT49UZF6f+/kEN9A+5Y1zvgJKQngEltvcoo61XmTVtynjhrNJfuaSk7n4lcv12LnNARjBTZJeaqP7w2lJufan/50Yd2rHQEcWrJvtM/JLnSJDsDhDgOsVcIgo/N4KVXOefbtbOl85rx3cOaad5FKX23YzMri7LkLaXmxg5bC6TqowgIkDyl9nOCPtGnA3LGZNak0hFC9GxJEh6+FhsUhKW+W1GHAdqlPHieWU8fVpJr/PXYcwUUYwORd1UpSOf2qzXzbN4zb7Gu2g0aQoL9xcgQIDrEHOGKMxLWNTRp8X1nVp8vkWLTzSq6mCtFr18QVUX25QTPi1mjA7HgNuqpG1lGr6hXIMbSt1S3n5Zb46RAlH40lIW5EOxMjeBI9/zmf8OLyE5QrLDwrVnmqSY+O8Su/oU19SluEaTI/XKN++p+HSTik40aT4eByvXchztfUwFKwp1aVWRLtyxWOfvXuHyFUdNyF1wrDGZM1ZFgAABpg9zhiiMJHaZwtz74xPa+8gJbTBFmkS4qXOMUE0s8ERBSOm+FdLdyzW8Ghs/pBTxFLyX4IVlvVGiCATAeV6Y6TwYIZHf4RVECtfsxVVvhYXXCB6IE/vjlQ0d2vzcWW364qtax7IjJOw5Eq6yc6YFhKJSEtTPcVupOv/sAT1lHz8ZFsjC30uAAAGuI8xmokgfHFJev0nvgPLOtWjj69Xa/NhJbX7qtJaFz3GIJTQz2oO4fZGGzHoevH2ZhjKSnXIn6INQ9cOx3qQuLLzGY+CIcP5MwBMJhMGx3GSxSVVbjxada1b2gVpln29TVkOXsi+1K7fGvCp7nwuB2nmTQmTbJCdo4MFVOvjbt+mgvWYlWuZZVJvgWXCERAMECHAdYNYSxeCwSs1iXmFKcMXJRrcMR/mxBpUfrFOZvS8Mn+YQK1GQd7h7mYaNILSxzHkBeAY+TEQi11f+sMyFDy2NJTMN72Wg/AlNpYZlvj22Imuf+RdbVfbiBS3bV6Olz57VsroOF8aaFCKJgtcF6erIS1XnFx9Ux4Js50k9b/JC+Eh4LUCAANcBZi1RDAxpiZHEVrOctz5+Sttq25VTz85y7cpu7HIJ4agw2oP46FoN/+wu9S/IcgSBNJt474EjMXkIgiOhptkGiIP1qshtcCwyL2PxgUta/Eq1qs42q9jaKPeieRfmheVNNhFOuyF+Zdr/+LhqlhaMhKEQ2sq3IRIgQIBrFLOWKPoGtfpUk2566rRu/ud9uol8RO+AEkjicgyfNiE8UVSZWv3FndK71jilFrmC6kkT5gwglISyfwMVPh0mszW84vb3Dh8hTTyM+W29KjxSryUHa7XqxfNa9dhJrZps/iaSYHnNnt7f+4SeTYzXc/YRK9ESfopsxwABAlyjiP/85z8ffnnVkWTWb0H/kMp7BrT0UofWH6nT+n01WvHSBVVBFEYeCXZOnGmwqK3keXYmXsTv3a3hLRUupwAJMPOYmDsloK+bQBC8xpNoMZntS3CzzAbX58tzu+0+21IS1FCU4fbeJnQXb+SRaK977PMBez0PkrVzowJt7AWvhJxFU6f6di9yxAM5EeKCqLiOYMvVAAGuYcwaojBFlmVksOp8i7YZMdzx7FntfPWiVh5r0IIG1m6KIIdoiWKxeRGfv1X62V0aykxxJIFSI7aO94BV/JDJSyYsjkeSei4uimfN4e6Na++Mj9NAfpoGS7PUl5GszpwUdSfEa9jIN7mpO/qQ3WgY8cTVtCujtUsl2xdquX1EnojnAEngXXAdAQIEuAYxW4gCyzW7uVurDtdr06PHtePlC1p6tkUFkAQzmbFqIYhoSIJQyUfXSeZFyLwIrG/I4YKJ9yIiZx/jXaDsSGbPVXgPg3vgdX96kjqr8tScn6qhtl4lN3e5/E6ODynhaUXTlh4si9Lao9QXLygnO1HzN5a6j8nvUA1GGwL/e+7fCBAgwLWBGVvqIkqgWNy8AdMsTCBL6ehVRjXlnu2OONK6jSTcmTHgt/ZKv2MkUZrtFBYKlDwEq6N+2eRvTPAkCDNdi7ONfWjtQFK8nllZpDdvrtLZ+RlqZU9tktOIO3OS+B9PaN5L51wYK82ESYPMV+fI+6jDWwECBJgbuJoehfMihoZUaARRblbv8tPNWnuwVstfq1ZVXYey+ocUT06Ck8ezfrGSsZCRPzGC+Mhml2Ng2Qkqc1hOg/ASJZ0kYvEoCDOhUKekMGcpfBiKZDwWf1JRhpIWZCm+u1/DuanqTjKiIN9D+/p2m8jD4LtIOdWsrl0V6sxKcWXC5C0o3+VZ8T6YYxEgwDWEq1n1lGCKa11th9Yda9C6w3Vaeq5FRUYW8483qIiZx+HzHAg9hV++AxBFnp39Z/dLe6rcR+QcmCR2yIQyVyxs4ugIyerrCeQS5psUtfao7OULWvfKRa378QmtO97oPh/BeG08GsWZattUovr/cbvqCzMc8fqqMYQQX4AAAa4RXA2i8MoopbFLt7x6Ubd++5BuefyUVhIHR1n5Y/i8CbEyX0P/+hEN5qY5DwGLmkqmZ0yeNsGb8BPqEL6/nkA7YulzzDFyvvHJ07rxe0e097WLqiT/Q3ivpz+UB+IPogFhLGRPmQb/+AENZiW75T4I7/3YhEUFAwQIcI3gSuco+PeIYbNcePLAkJL7B5XowiCDiocgEHdmlNi2QHroUxowkvDhJpaYIOSElctCfoRgqPUnJHIthpomApaAJ9C+1EQ17qnU2R0V2n/zYh3cUKJzpVlqQelzcrTgOfHMnjinxN95JLSQoQkhqKjJJkCAAHMDV5ooks2ByTaCKOkdUGVrj4paepTd2asUlA77SGDVTmTZEmpCPrlRw1/9mFOEeApUNrFQH0lqQh+EmyAOSILvSWpftTjbVQb37dupIT1JJz+wVvuMLPatLdbpimw1JsdrwLcrwh+NB54Rz4zJj/9+SInmnbC0CHMr8kxIbmeZ+LxFgAAB5jCuaDLblEtZS7fWn27Wnpcu6K6XzmvL69VadrLJxc9RNFGBxOunb9Dwb93m3qLU8B7ISbxo8qgJoQ/yFJRuQhQBQqCtIMyO+DjVLi1QG6vPtvcpy55BMWEon9RG3F9Eifhh9excqDjzTCAIch8c8TA8UQcIEGCO4ooSRfeAlhpJbH30uG79m5d0z6sXVXW6SYXmVaQZiYxreWLl+uqc26s0/Ef3usoelBChJV/ZRJwcosCjgDwCkng7IAraBE+r2pqysyxbafWdyrnUoUJmb5uit0cRyhP59vbkwQ9cDu39Ukai0teWuOR5kQnPk3/LV5gFCBBgjuKKEkX/kMrqOrTkWIOWvHZRiyjPHAiXwBLKCJ82JlBWgDWbvv4xp4DYH4GVTB82+ZGJ9yJQgtdjLmIymGeeRd+SfNWvnK8Tq4tUXZiursFhJVSP2gwqCg9j3sE6JW4qUXpxpstZUJrLQouEANnEKUCAAHMUVyJ+jILh34EQEsxSZWE/tzd030AoiT0WSUTGy72QcP2nD4VCJybkIvAe/t7kH0youGFi3ZVY/vtaAcn+Q8kJemRdib504yJ9a3elXlpWoGrf5qHTJkZbr1JYrfbPnhZztitN8CqYhMcS6RORTIAAAWYxZpooyDuU9A1qZUevdpiVut6UyULzKnIgh4m8iEgUZajtmz+hCwuyXC4C74HwEpsHzfT6TLSRq9QKC6+vBMFeCUAEEG+vPYiu1ER1pySoOz1RPRlJ6mW3O8g5FsJ44qz0tTdc++BVsDe4XxKd1wFpBAgwBzHTCo9qppKmLq082aQdh+q0/nijIwoszZjw329R65pit3kORME6TRAFyeqAKCYPTxQkm7vNs+jKS1VPWpJ60o0o2BI1MU6D82IgCvDl1zTPnjltxSKEkARkweuAKAIEmIOY0Ql39ssLGju16VSTNr5yUZvONKvEvAq2Nc0/2+LKKC8LH/pASf3MZunXbnZLb/iZv4SdSJJ6mUrSGsWFoPzjBoZU3tmnipZuVTR1q9i8HvInI0uJ2DWxkc+gWdtD5uXU5aaqOj7Ozfhm/gYKl9AXx7k4sW/h4JCWG6mvONagZewqeKReFfsvqdxeU/IaFbKS1fMru3TmJ7fotL2l0ICQIMTuZabJPUCAANOIGSUKUzqLTcHc8vQZ3fKVfbqltj20fhPzJchNhE8bE5AEi9ftKdfwlz7oLFp2VYuc+UvC2stUAAFwLUhCc7d2HqzVjY+e0J5Hjmt9ZHiM11xX+K1urtLBe5frpfUleikzRa/biVT3kD/hOBeVIYv6Zdl9ZvX0K/dMi7a9ckHbfnhU25475/bsjgoJ9tzSEtX3/92v3psWO9KEKKhI4xlypI0CBAgwRzCjVU+mcPJN8S4xC3XpSxe0zJfBIqZtxw1BJCVoMD1JfZ+/TT1lOU7xHg8LFikWPAQxZZYznszvGdBy8x62nG3WzftqtOvlC1r/erUWn2jUfDZM8sL6U5Fi3k6cHdPsHguGzROx6y1JileufY7C9aEq7hPvYuYYefrANRJq6jWS7ukbVGFDlxZYO5TjBdrnrvoMmej5sX9FfbsSHlzr2oBZ84QNmRCJlxHMqwgQYA5hpokir6VbVaeatBjFi3L1CmYiRZOaoP5P36Du965zJEF5JaWvKBmUDbmJaYF5OAsvtGr7U6d15189rw/Zcf0bl7Swul05lO6GT3MYfc3tvUo93aT5++zenjmrtfWdKjRLOiMvTYlmVXMufw9JEBqbC6EoyDeU3J6nPiOKMrun8mONqrRn+LYFBMd7fo5IzPs616a4TSWKW5jrqqsIQfH8eI4BUQQIMIcwU0lZlEicKYsR78GOl1UsgJBOpGwuUevHNruQBXMlvmfCMuF4FFNd/ZVlRMrMi9hgHs5tpgBveaPGzRBffrheJcTim7qU7hfJi5Tw34+AWc3smXGxTTmsxPrieS355kFt+vp+3XSqUbf3D2qbnbbKpMKkwIQlLt62Ku4shD2uEGGYhzRghIe4BQAJBUaG3i6HyDb74eFQ7scE0mQ9qGBdqAAB5hhmgigcSSCmUeJNIIyYFcInb1BzbqpbJvwxk382Yc4EFU+s6TQVpLX3abF5AnseO6EPfveQHnjspLYcqlOZn9MxFilMBGYyH61X8aMntO7vXtFtv/uE7rPf3muks9Hun/h+iQnVP6x/NCeQkqjh3BQNJcVrgLWgPFmEv44K3zpi7l+Ha0+qxSAI7h+yuJaqxwIEuKYx3aEnBn66KcbswWHld/ar8kKrlh9vUNX+S1rIJDu8CyR0+lsgXAGwWO8wtfq53a6KiNnXB0xYNpzwBSEcqoomtGovB7u2rLYet77U2mfPatObl9w15jd0KcM8hCRI4nLXOB44n1VwCa/hZdgxpdfe15t3kjBPeTmpyjFF670J7iPSop70/cwg7FFofkaScms7lGHPJ95e9/EhEyZHh+UuBztPqwvVs7LI5SkgGT+/gtwF76dSsRYgQIArgOkmigRTxPmmSEo6+9x8CdZ2Wnq8URVGFiUsOhc+7x3wRMHx9+/S8IIst/wDiWvCTcdMIIgpJ4Xtj7NajChONGjVU2e07kSjiow4Urk2I4kJk+zRAkXa2KXMM00qfumClhoZFRZnKD47xSlblrfw/w73MxvzF1xfVnKCksyrGI6LU19KggbtvhKaupU+3rMcjf4B6V2rHTFQEl1uQgiO36f6ifLmAAECzGJMN1Gwx0SpKeLFF9q0yshhpUmlWe8l59uUN15JLASBN/G5rRp+7zqnPNlTgsSnr8GPKeRxOdiPZLd2a+mpJi17+YKWs6YRJbuQBN9PF1EQiqJSysgig3/DvA0qpxJNwablpynbFLCvjuLf5d68hzEt9zkN4Fogg8GsFHWmJIa8IPOUMi62Kb+9N/oQWm2X5m0sUWJFjpt0B1mQMCfXhDFABVuAAAFmMaY7RpzQ1a+CmnYtefm8tjx5WpupdqK0cqJ5E8AsVn1wg3sJUUQepwMovjj7Rec1OJlELmKyONus/B+d0Povvap7f+tRffb7h/X+1h7tta9IdrMuEjOYIQ5i97MBEBaez+n4OL1elaeXFufreHm26ljaw50RJVjT6weHR0iCXA2JfZYhn+2J/QABAhimmyjizHLOMCu68Ei9Fu6/pIpTzSqkimgipYw38d6VGlyQPTKzGcHynA4LG+WLUmIeR5qRFkuLJNgPj1TneHFnzwDMy0o92qCiZ89qyXcPa+PXDmrLP+/TjgOXtNuuZY+dstFkqckCE5Les2FtJLwIyKImMV4Xs5PVkJmsTpLbPK9IcWdfBrTrVw8o8XSj80K4Lz/PJKo8R4AAAa4uppUosNJNKSR29yu1uVsZDZ3KYFVRkroTKeF5pmzuWOaIoceEuRMkP5ndzGdTBUn09MFhFwLKM6+HxHUK4aHw91ccRqQlDx/X5r94Xvf/4ZP6mJHqAwNDutG+Wm9SZYKXQSz/ql2jAZImfzJgD68/PclVPblFAicih9EYsLMfPjrSB64m+QUIECBGTLsSMkKINws5sbM/NHuZ+QjRhJ22L1D/7ipnvV4wOWJCXoI8xVSXe0ApJQ8NKcuuo7CzT0XtvcqxY+rVJIpL7craV63yh49pzdf2a9sXXtD2b+7Xjpo27bCvbzBZYVJm4kNSeERXwwKHECCMISOKIQgdkvBHd0aU+B5P9S2SCMgiQIA5ghlTlHgQE3kRkbhnhfMkzpq8bMIEOzYj2m9CwjMmhTQKXEOaWet5Hb0qbepWWUOXClp7lU4SO3TK1UX3gBIP1qrsawe16fef0N3fPaj7mrqcd0HGZpEJcX1W3L2qMf3URA1nmPiJd7GSxcEG6QBFzwECBJhTmF6iMGIgF2Gawx09WYxFGigYL0lxGr5psQszQQqsDMssbJYSp+KJHeumShSphJyae1Ra067yug4jih4jiig8HfC+ldKdUS+JFzt6B5TAarovndei7xzW+r98QVu++LK2HLikG+y6t9gp3rsgAXy1wLMaWpSrgcgJeJBF+PuocAgfMUCAAHMK00UUKGMvbp0fjtHiXaYGF2S7WDh5CSbWsZYT9fXtJlNdhZVrSevuV359h0rPtaj8YptLsGdESxRUYv2v+6Tfu01aRpp5hlHXqcynz2rpX72gG7/4kj5wukl3DQ4576LYhGvmucXUxtMACGGgLEc9eWnqyE1VF5sbQRihr6PDmwFRBAgw5zAdRMFvoLwSTZMws5nEdUy/e+cydyAODimQk6DGnoUAqbqZajIbhZpqRJFr3kTJqSaVMg+guVvpA1HmKNKTpOwU6Sc2S3/zXunTN0h5MxgEYmb3GzUq+8FRrfuDp3TT/35Gu1+5oE09/a6Ulm1GIQy/zeiVgiNyI4iWWxeptipPdew6mJEcG5Hve3vo6UqTXYAAASaB6SAKSk9TzYvIMsWb2zOgDJPkaOP/ZRnS7cudtTqV8NJESOq166rvVB4k0WgWOxPGWAo7/P246IxY67QqX/qvt0p/+a6ZDUdF4ki9Fnxln3Z+6VV9+PWL+tW+ARldyWjLzUe4UqAV8AcO31il525bolc2l+pkebaaYs1TtPY4gkC8kcExII0AAWYppoMoWPpipPTUlGpWLKWn64tnlCAACijJyCu9oUs5F1uVx2xpKrKi9Sgi4AlteNciDf/pAxr647s0tDxPg8kJoZg9m/bEojijwclGFX7viDb80VO696Nf1U/9/Su671Kbttk/QqKbSWzMTcDHmUllC1EQEjxWkK4XNyzQaysKdbokU82x5ikutLjrhCAwMpj9zTEgiwABZimmgyhSTOHm9PSruK1HZS09yjeLMYPZuOHvLwsU6sr5TskQdnIKOCzTjbihISXYNSaxMCFVRhBZrLmUMPz1uo2V3r9enf/0IbX8ym41VuaoLTtF3RCGO3MGgKf2+Gkt+duXdfsjR/WZpi79gt3H/fbVGhNmP88UCAESDmTy3cn56TrDVrB2v52xEuPpJkcSfvId5b9c99Uq/w0QIMAEmDJRmIZIGRhUtlnoRWaxlzV0hiqKmGQXPmVcrCTa/pby9QonJsUTBeLM40kwr8IRBSQ2ydJYrgsSYPa4z6c0F2Wq/me2qeb/vFsN71qutoI0dacZiXgvY6oehq8aQ0jAUx31pVe197Pf0cc+/jV95qnTuse8uXV2Kvtao4DJXUy3lQ5RUFxAZdppI4jzeWlqgCj4MhacanTXxnUyoZDyAI68D4giQIBZiKkTxbCSTUlltfeqsL5TxY1dyo2l9HTjAqdER8u0A+8BwZNA4YY/jhVUZTEh8A0T9u/+vsk3TNgv40tLC/Sv/+0OfeOfP6Dv/dIOPXHnUu1fNV817B9t388IajuU+e/7tfbLr+qBEw36Jbu/z9rHD5gwaY/5Fz40FfVqr+PAeVImA/Fxbra2m4DnvokBb9Y57wFPgusjOc8sdEp/p+MaAwQIMM2YMlGY0iX+n9XcrcLqNpWY4spr61VaNBb7+vkazmXO8czDze0gee2Jwkv4+2hBFRZE8aaJJ4pvmvyLyZc42g9+Y1G+vvfprXriUzdo/5oiVcdaGRQLWCblh0e17g+f1AN3fkm/9Mvf02dPNuoBI0WIgnWjppMoIAVHFuYlueU87H5jJoqWHqVcan8HUVzpKq4AAQJEiSkThSnfRPMo0owcsk1p5bZ0K6OzT8nReBTri511irWNAo5c22lGvAoP03RREQQho3DYyAuzx5nfwd7PkAUbK0EclPNy7ey+x+zyg6ZE31i/QCd+Y6+q371CLYXp6nTzDhJCC+rZOZNCJMlFEp1/v79W+X/+nNb86Jhut+fyCfsK72KnyXIT9r1GQaeaTCnMY55E1Ii8XoT+cbrRXQeBx4UmXFfgUQQIMEsxdY9iyBFFqhFFlnkTuSwGiCKIpuppQ+nbiALhNZ9NO1HYD07HsuKQgScKlhdhQ6WLJhAF1w5RnDNhy1aI5HhWiqr/n5vV8jfvUte6+epNNCvcPp8xnGtR3iPHteY//1B3vO+f9JPnW/Qu+3iXCbO7I5cznxpRmCRNsvfQP2ranAfhicKHngKPIkCAWYgpE4Up4PiBISXZ4E8jN9Hep5Se0G5x4yplrOqNpY4cWKIDZXveBCVMgpjwxqyB3QjEhXBdeDw+mQ058N5fL+e4GL4J98E9vRE/T09sLtdzX/qgjv7+7arPSX5r+ZKpeBdgtLWOsCQI5b/765T2+R+p4kyTC0PdbfI+k90mS0ymXCGVNkn7n0KHpi5HVpCF35tiyl5OgAABZgZTJ4rQarEQRaoRRVqXKSgU1UST2ZLiNVyR6ypmIAfCN4RsqNNHwc6o1T1JRJIFwjVyvJyiJ0wFUbxm8ojJkykJOnj/GtV9/yc19IHVknkXM47nzqvkF7+rzfWdus/e/oTJTSbMhafSaEpImSxRWP9o7HpH1VNQHhsgwCzFdHgUrvTUBn8SS4vjTfRFsf9EcZpTsJAC5ZYs/sfe2GyLyVpPWOTTCryCyVToRID78ffE70z0W9wD98I9EaJi2fSL9gNNC7LV9d/vVO+/fED9O0pHvJFpwWjvgmXe8Sx++TvKsWeE9V5qwkQ9QlF4FiSUUdQx94X48F9EekfReEiEJZu7XT4CsvBLqPP+ClBngAABYsXUB6Z5DgNDYaIwb6LbFBMzniciioJ0p1AgCpaFgChQpjNGFJGwm46JMOzkyHuJJIzx4MNP9SZ4FnhNkCKhtg7zLrpvqFD/X79XQ//NbPzFZA5mEC9Zy35rv5u/QBUUlUbMu0DIEWDVx2zNJ1hDTiZ0NmB9prHbXQs5CT/vg38/mnYNECDAFcaUiQIlOjSk+L7QzGfnTURT8ZSX6hQMOQoSwZAFy8WhRKl+mlYrG5gGch6F30shWus3AtESRCQIT5HPIAxFWI0l1J8x+Y7JEyZvZKXo3E9tVctXPqSOn96o3oLUt3aQm8Q1vgPes+gd1Lx/fcOFBCEKyIGZ3EiFCUQRa18Yjg+3Bu0ay3VSVNDS7foIgifhXwdEESDALMTUPQob3KaI4owcmPnsdrMzLT9hhVFBKPREQpjZvlQLYXnjTaBUp5soQiQx7y2SCH9+JcE9MlGPTZn+2uTrJk+ZHLHrqVuQrdbful1df36/BveY6p6J/MWJZsW/cdFVPXmiWG0CUfDZhOQ+Gj70NBm0hBYG9ATBL/E+IIoAAWYhpqyOTOPOM61O+ImkNhVQblJb+Ou3wStpJDfkURCegRhIaiO8xgKfbkXO77l/F48C0phivmIy8PMsCEPhWbxuwgZNTNx7GLFrenj3Ij309x/QE3/zbu17z0qdKc1SS36aOrOS1cMcDDtv0sCrePyEC/VQZVRo4iuO+CxmJZ0QF97lLvy8aF/3xQTAw2kKEQX9xEtAEgECzFKMqdBjBN6DI4c+IwuqnXy4I/z9mMgJzcjGc0D5UWYaWWo67UrcKTTzKEa8isn/G5NVaPx73Jsvn4UwXjIhDPVFE7yMvzL5c1PAf3fzEn3vv92mVz9zgy4uz1dTnpFFaoIj0UkDL29/reLsQnx+AJn0mlB4FPZHjoBjJd4+I62ufvdvRkqAAAFmIaZMFCgfhPATZIFHMVHYCeSmOMUyWnnyGpl22AWNeDNI+OOrAX/fPpFPNRQhKTyMV0xeNMHTeDYnVU99/AY98Yd367UPrtHphTlq9suYT/Y+6jtHwoLIpAgiAsPpifYj4WuJlSw68LECkggQYNZjykQBTDs4DwKJhiRAVsij8EozUmYC0/m7M3WNkCVeFeqTxDczuwlJ/UNFrr7zszv18q/tUXVl1lsJefsuZpgVPzw0NELOCK8n3fZpiW+/nmivi77S1ReQRIAAcwHTQhQeniQmCjuBnOQrqiDcooC8iObarhJQsChtPCvyNVSBUTKMl/GmXfSpPVWq/fv3q31PubpTEtSPgrbvYsLAsIY7+0aIwctk4P4WouBNOLQX1W/5Z9BGRipAgACzHtPjUdjAj4UkQDfqMKS8R8tMwF0fCXdyKG6ex8z9WzMBchNUhzXYdVfnpKqpIF0dk8lZuOfDf2/d/2Tbwf2GtadDtJ5kJJISRq4jUgIECDDLMK0exUQkwfdemrvephy4DsS/n3aYInM5FCqzOE5CsTkLOvTyimPQyK3vtQvq/sIL6mzqnbxHkWAkkZ7k2npaSlM7+kLPk9cTPf9IQNSZzMeeoecdIECA6cO0EkUsaA2FHVASYymt6cZ07UdxtRDf0KmkI41KY7/vth6l+jkr4e+jhinnuLh5Y1Y9TQqdRhSQbqxkYf/gcHryVSXfAAECRImrRhQtzMkOkYInCRTWTJFFiCjCJOFLeMPfTQg7cbQyu1LKjWucZ6TgFtHr7FVaQ5cyW1h8sV9J3EfotOjAPRemjRAFM6KnRBT8Xr+5BhyRaL00chlIVsij8GThJUCAALMMV5so+PchhykrrWgRC0GMwpVUZlzjSNsMDLml29OMIDJrO9xugqzSm0SuhZNjwaYFb/ttT8xIzO1ixEtjTMozy7KnbWRB6MxLQBIBAsxSxKxoxgNWYvjlhIggCshhdBhkssr8sphMshXEck9TRKQCT7Z/NNMUcL4p4xIjhflGDvnmTbCLYEZ7r1KcRxEjUWQYHb97jft3/L81pba2fz8UdrLfiAw/TQTaNC91hCAo0aWNA6IIEGCWIiZFczlQGuknW0WrWM06BihFCIJNaxCCEZDFpJXXeLALc0ot/HY2gWsaIYe+QS1u7NSeYw16/49P6Re/c0g/8egJ7TpYq3KU8WQseHDjQqk8d0Qpe0Ud1fMaA/MGwn8ZC0kA+kp+miMIqraYO8LRz+kIECDALMP0EIXpCgiCKpxo6+nNOkaxQAqQAyTh9yWYMaLwmKyinWZwDbR/yIMYVqZZ6AVGEgvMe1h+oFa7v35A7/nNh/XpP3hSD371TW0zoljgicILPxQN8qxlf2rLCEGgmJnYh3glHTNhEHoafT3RXJPdNGt9eaKY0jUECBBg5jFloggTw1BCnAbZD5olJrx3MR4aWUw8lJuAIFi9lKWu2Z4TspgJRe6UmA9B+eNVBN5DWe+AVrf1avvFNt1uRPCep07r498/og/8yDyIN2q0iFxENMp3PCTYX39qi3RDuVPGLEx4yoQlQxBes7w738UEiGIySIzXYEG6Iwh6AfNDCETiWQQeRYAAsxDT4VEQdnJEweqmniwm8ioae93ezp4o2DsZssgwIRQ1LZ5OBK42KbwDpvyzuvpV1tCp1ccbtOPZs7r939/Ue37/CX3sf/5YH/jnfdr1ygVVkouAKLyE/zwm7CyXfm6ne8k0R4iCjaLYohWBKPgsZqLoj/kvQoAo8lMdMXii4IhXERBFgACzEFP3KGxwGzEMpCSoLyNJvSmJ6ocsJvIqUHqnmxxJ5JuwPaepM7fsNWRBOGb2IHQvkTIZcE9uiW/zZvLNU6isadfafTXa+eOT2vv8Oa09Uq/S1h4Xhps2sHPe54wk7HkAVDt7lEMULA0CUfB6UkTRjWqfBJhRztLp9hJPhl3/2LyK96H5+gECBJhVmI7Q01C8EUVqonozk9WTlqg+LMaJPAqI4ljdCFGUmbCBDnskzD6iCGEqJAESjCBSB82TGBhSfnOPKo/Wa+0jx7Xzy6/qpoeOad2bl1RG6Wv4/CmBjY/2GPX+7p3SNrYpCsF7FKxY+2pYJu1RdE6SKJhVnpvuVs9tNoEoOOJVBEQRIMAsxJSJAm8iKV695k105aWpA7JAEUxEFOQI3qgZIQq8CdTZbCYKbPJJh7CMGHNMsa660KJbX7qgjz1xSnc9d1YbTzSqmPBS74ASfLmrDzN5cT8QA9aYX/aHRhD/9GFpR6WL/6OIWWTwnAmK2e8kiGKGIGImQHt+k2bNdPM8l+arzV6ySi57ibO7ISGoSVJPgAABZhJTJor4eS6J3ZuebESRakSRpB7zLvrZICh8ymXx7Lm3eRQQxXyT2UoUUwJeRHWb1j12Unf/j8f0qS+8oPt+cFQbTjY5cpwWUNn0C9ukb3xceu+6kXAThECIB4V8xgSiQElPSSkbgU0a1j/6SrLdNXAtbOAUEEWAALMYUyeKkEfRk5Ws9oJ0teakqhOLkYR2+JQxgaV8vk2JpxodWbAdJwltXpPMnrTlPt1wFn3Iqh9LxkOakcOS9l7deLFVH95XrfeaB3Hjyxe08nSzCuo6lEk+Ak/Cew5ewn8fE+5cLH3tY9Kv3qTBlERHDoR2iP1DDvtM2HL1hybkJs6ahOrOJokp8IRWFqjf+gzEQMgLTwciI0cREEWAALMQUyYKs1oZ9N2ZRhT5aWrNTlEnFmM0K5v2Diph/yVXDktZLEIil0qoSSnLmYIpxUhyoM0i348JU/gZTV1a89IF3f9XL+hzf/SUPvmVfbrFiKKKENNkCWE0SFZ/5f3S375PWoJvFgonQRReER83Ydc8SOIbJs+akMBGMU8adv2TxspCV/EEkXmiIDQWJLMDBJilmDpR2OA2YugyomgtTFdTXqraM5LUQ0I7fMplgcJ8s9qFmZhkF7l8x7Qo0WkG1wSRFZssN9lmssVkgynNVeY9LO3u12bzEm6u69S7TjbqQSOJ254+oy3PntVyEtVnmpVPsno6SIIw0/97o/Twp9TLhkb20VGTF0yeMHnE5Psm3zbBkyBpTQKbEA/5CfIWMSevI0GOYrKoynf/tvd6uB6OzKuY0jUFCBBgZjBlojD0pxhRGDm05qaqOStFHWmJ6o0mRwHMowCeHLzMVpA/qTTZanJPW4/uOt2km842a3ttu244WKc7HzupD3/xZX3uD5/S5+x4/49PaK0RR6bfB2M6SOIja6TvfEL6zA43JwGFSyjpZRPI4asm/2zy9yZ/Y/IfJkysgyRmBUqzHSFEzqMIJtwFCDCLMR1E0ZcYp04jiqb8NNWbR9Fq3kV3NB4FeLlG804TgJhZgsD+dTawn9/hj+MBpR5W7F6YB1F0qU3LvvaGtnzxFe149IR2v3BeN5r3cNMzZ9yciC2PHNeGJ05pBV7E+Vbl9vQr0f/WWGK/GRV2lkr/+kEN/d49qq/I1RH7iDDSoyZ4EU+b4FGQg3jD5LAJYaeLJoR2sNinCq7VeYDWeFRpxdtxwuunAs5LRaaGizIdIdA/yElAEBx5P+EzCRAgwJXHtBBFfJzzIppyUlSfbURhpBE1UYCHj44om6iV5mTgS3YnKt0djQKyJ4aeASX93YvK+9lvqfwvX9SK7x/Vpu8c0o6vvqmb/3mf7vjhUW1+9aIWkaie7jzE794q/e37jSwq3WRGEtQQA57D35qQe4As3jThO8pOCedMJzxJkENKHhpy+2EkDBhZ8GW02LDAHWh/yMITBseAJAIEmKWYFqIwxduenKAm8yTqspLVmm5EMVHoKdKi/kGIKLgWlBB5AEI8VECR6J6WUlk8CPtHhhPsuqLxJiLx6gXp+4ekn/gXxf/+k0p57ZIyyTccb9D8A7Va8Fq1Kl6+oMoj9SqublN2R58p0oj7Q8I/FTN+epP09+9X50dv0CVrXzwEwkjkHAg1vWSCB2FX58JPhJcoOyWUM92JYXJIuXYv5d39WtnYraW1HSpp6XbPKmqspgD6LfAcAoIIEGCWY1qIwqQjKUGNaUmOKFogilg8ijfM/n3hrCMESIIyWdQJy3lkmkAWU8XI6rYc7aajWuHW48+ekf7Lw6aRa0z7XiG1trtM+of32r97i1SZ56qDDpo8ZkIO4scmeA/VJlQLkacgfDOTV0fYrcyIYcOhOt3+0nntff2iVp9t1ny8p9ApE2NlUfhFgAAB5gymgyhQUF2meFsT49SckqiO1ET1sN5T6Ovo8ORJ503kmTDxbrUJlUUEKiCLqWKYeR0mgxAYrx1hREkWFzqkVujwCoAw05/crcG/elC9Ny1Rp10vcyEgBKqa8CSeMoEk8CD4jivDexjXg5sGsKNe4almLTXv6Ybnzmq9eVMLq9uVE4vHtKpopM2vEOUGCBBgqpgOooAQek1TdJrF3s6cCpP+WMM73zyi5PoOtzjgepNbTXabrDRh5vKkQzdhDCcnhIjCrm0AzyLaqqwrBXaf+/Qm6f+aF/HederPSXUhJGrCyDkw74E1mZDTJnxOWekVoi+H+O5+ZTZ0av7hOlUaSZSfaVaBeRiECKPC+1ZquDAUqApIIkCAOYTpIAoULhZtn5EDM7JJbg+OhHkixJ19GbT2KOnHJxwpLDExlam1JiwUSChqqkQxyGKF6UnqyU5Rt1+4MFYymwkYcWlXmYa/+F4N/eZtGlxc4NqSslHI4JiJr2LiNWs1sfrrtMyFiBHxHb1KteeUfaZFhWdblE/ZL/mY8PcT4g58xIAkAgSYc5gOohiBaXOnBPwxFgwMKe77R1wcnFAT+QnCUNQbsaTHVMC1sAR6V3GGWkoy1ZKfrg57P+EyIzMJEjJlZl3/7m3mRbxf2r7QrbhLGI98A0lpEtSEmaho+pHJfpOrNheCRuwfCiXmyUnwvFjYMdqw04YiDd++zP1MpAQIEGAOYFqJAsSH1UY0XkQkUD7PnlfSEydH1n4iSOGX9JgKuIaerBS1VOXp0pJ8VZdmqSknVV1XK/yUbdT3iY0a/sbHNfyBDRoyTweC8KEmwkuQBNVNLL0BWfCaEBSexJUGTxRScGLEEMezioUk8C7ftXKEBEm+4zERNruSHlGAAAEmiWknitREt+OdqyxyxxjDO1980SkgEJUSigL8WktivM6uKdL+bRV6fW2xTpVnq9GuFeV1xeD3iPjHD0i/fYeGijNdmIlrYHYy5PCwyRdNvmRCZRPLblzJPMRo4PiE5k0MK2VgWInmSYwsYujOiAJZRoR3LHeJd1awJSnvS3mntDBhgAABrgymnShSEjRkCrE/LcntUdHL3hSxlMo+X21a8qVpIwkAUWCJny9I16HlBdq/OE9nFmSpkcS2O+MKgBnJf3SXhr78IQ1uKHX/LjkGlCfrNOEt4DWwLtM3TVh2g3kSLMF9xa5xDBD2SzdSyO0bdLvysX1rCpPsPFlEQxrvW63eBUbM9hKCOGDCfBC8p+meFBggQIAZwHQTxZCRQseSfDWsKNT59SU6vyhPDWx7SfghfM6E+OuXpBoCMdPjVfDvopDq7BpOF6br5PwMXcpLVRt7fLszZhCpCdKv7JQe/bQGH1zr8iKEXiAultgg9/APJn9pAjlQ9no1wktjgb5RYASxoq5DO483aO/hOq0506wSNloKnRIdbl/qSBHSY7lz5oKw1AjeEkuLBAgQYJZjuokCz6G9JFOXjChOri3WabPea40oOqJNHBP7bu7VvB+fcCSBcI2EQDhOljgIcWDRnjdyOFuSoToWL2Suh8+lxJpTmQiJ9lvvWq6hRz+pwV/co4GURLfWUuQeDJAC4aV/N/myCaQBeXDObAD5iAIj7GUHarX96TPa/cpFrTLCKOnojb7S6YYSaUuFIwrmgjBp8GkT9uomF4NHFSBAgFmO6SYK4ukXTAm/tmuhHrp7mR7eXal9ywtUnRxFmMeHMCCLx88o6WLrSAUU8yvYbYEE92SroCABJ3lpGs4M51LcN9OMlXalf/ugBv/kAbWX57p1lwi5eGuamdX/x+Q7Jkyg4/tZid4BZTT3qOh4o6peu6ilRxu0wLyLrP4Y1ne6J1QSi5HA86d/kNCGNHl/VYoJAgQIEBummyhIzLJa6eumjB9eWqBH1xRpX1WeqpOiDPP4mHdPv5L2VStz0Kxa+xiiYI4F1VBTroJKjNfQ3sUaWlOoIT/fI/zd21Y6DX8UFTi/IEXDv747VM10yxL1mxeFd+BzEMyFwIP4mslfm8y65b9HYV53vzLqO1W0/5KqnjmrpQdrtaCmXdnsyhc+Z0z49stK0vBdK0YIGm/TEwXHgCgCBJgjiP/85z8ffjntGDaFn2sW6aIzzaraV6OqznEmZ5l1/zaYAh9u7VVyQaoKynLcHhB+4h1hpKnE8V0lD8uM7K1Sww2lqoufp474eA03dCrTNNrIlUS+Hg/kIT64WsN/fL86blmqpuSEkTJXwkt4Dc+bQAokcQk7zZbw0nhgJnaVEUPV4TotPtmk+ZElseO1jX+WH98k3cvc+lAuInJ2+dWs5AoQIECMmG6PAmA9YikyO3vALEss9pgtR/ZxeOykVv3Mt3Xrc6f1UfvodpM1JqENPycPiAal9WxKor6+Z5G+959269U7l6gaT8OdEQNur5L+8gHpv9+l4fIctdu9EotnFjXEQDz+IZOvh4+EnyAK2mi2Yx5kADmYV+fmTniSiAZLc6XPsL1TCHPhfgMECHAZzARRjACCSE9Uf5pZ73mp6sxNdTvh9Y5VLutDTl5QTH0DSujsV9L/+7BSLrW7iXjkLAg/IbwnXxG18gqDf9tVQZmcNev3fGm26n5qi1q/9KB67l2mvrJMR3CXVW7LTAmyLtP3Pq6+P3lAHbeZF5EQ5wiAOQIsuUGIieQ0ZEF+gn+PsBz/9mxWmlnW9gt7BrSxpVt7z7Zo3dlmlTd3uxnyMeGz2zRYmDEyyY6chL//AAECzDGYxTijemtRZ5/2/PCobvz2Id14sU25rA2EdPWNn5SOVNS8/vU9ev4z2/WMvWVXN+L9VNIgKKKo8h8RgFx8FdUqk71euLZj9Uq80KyEMyYNnabdzM9ITZZKMtw2nlpsPs1SMiahWcaEkRDCK5CEF0IsKEaubbYThIN1hfK2Xi2p79TScy1acqpJlSwAuK9GlfaaXNEIIPPwy3eAaq+/eLcjBi94cGys9GT4GMyfCBBgDmGmiQLlsry+Q8sO1mm5Kd6FxxpUcaBWFW/UqCx0ytgYbdFvL9epD67ViXevcfX3KB4SxKykikwlZ1FiQm3OsrCwtDmfIVw/yXOStxxR+ISuICiOeCWEmrz46+HaWLxvToE5E7Ud2mzksPnF89pgr3MvtirvvImRR2jd1wnA7PNvfVR9a0uch0WbcIQ0mWhHeSxHyD1AgABzBDOZzAZYky1pSbpQlqWDxZlqTUlUfHO3ck0ZoZAvi9HJ7ZYepb1yUcXdvVq+tcIpdpQ3yprEcWh63uRAWITKIxLNeAK8RpFBDIS3vLeCB8LnEAAKEDIgWc0uc6zHxKxqP+MYT2POVfQYUSw0r2/Nyxe0+buHtdWIvdAIwq0Qax5EVGHKX94hPbDaESl5GuZL0Da0EeTuZ2PPubYJEOB6xkwTBV5Bv+n87vhQqWh2W69KiHuznwFk4MVOfBs18D5SqN03hZXy4gWlLc1T4tJCp7ApPUX5QBhekcWqhDifKhx+A8KBGFB0fsMglD+5hyMmrOBKQpoj1jHrM6EQyUNwHRAJ5DhXFCFVaAUDQyrtGVDVpXatP1qvNa/XaPlr1VrY3a8k2h2SGP18RgMP8Aaj/t+9yxg83pEv7Ub7ECaEJAjNQaBBxVOAAHMMUVmJU4DpF6c0UZ69iXHqS5inAVMkIzOiOSkWEBv/nScU19zllBzhkFyTHBO/JPm4Ci0KQA54FkyI+zuTL5j8uckfm/ypyf81+ReT75qQM4FEmG09F5HeO6CFRhA37L+ku82T2G0ksfJciwp8ldN4uYjR+PQWyTxGwDOHbAkJEp7DS4OEIdKYn3mAAAGuLmbao4gExFDQ2a/Czj7lmrWanp4U2kBoYFjx/YPjz/aNDEVRxnqmRT23L1Gc/SZkQRUUe1mQQ5hqaMN7FD5B3WQCEeDBcOQzFCDf44VgIc/Jap7h0DyXpWeatfbF87rhQJ2qTjep2Igjp7VHqXgRXsJ/cll8ZK30MztGSID2w4sgn4RnQdvxTAKSCBBgDuJKEgXhicyEOKWZtkgwkhjMSHa74s3r6ldye69T9JdFJFFQ12+KLP37R1R8U5WW2e+QeMY7giRInuLBBJgA1o75TV1aeahO6x85oS1H6rSgtkPZbX1KmYi4IzE/TfqDuzWcm+aIAPFE4SfYBWs6BQgwh3FFicKQmJQgpSWqOy9NrSkJGh4YUlJ9p7JJmobPGROmfd7KWQxrHrO82Yrzy68p/6ZFSirKdNY9MXBCHCS6vaKbk9b+DIE2IaxU1tPvymDXH23Qxteqtfr5s1pGe/YMuD0n4mnn0J9MjP95m7RzkSMDSJqqLxY3JNFP/oZVY4Ny2AAB5jCuNFGwT3VHapLqc1JVbUSR0D2g7HMtKqYEM3zOhPDJbzQZpLGvRr3ritRpZEHYCJLAO0Ep4llAIAFCSOvu16ozLdrx/Dnd/fgp3fziea09VKtyI4ks8hLh81z7hl+Oi/+0XfrkNveSMBPLlTDZkA2YSGJTGUboLvDwAgSYw5jpZPZokMxsMg10ISleJyAL8yyaM5LVwzLkPsGNhE4fHz7ZSjz9Cy9qwQtn3eS5nSbrTRaasD7U9Q4IE+LMGBxWXlOXFlLZ9NAx7fjWQW177qyWnmpWAQv9+faMJoHNM3pwhYZ/ea97VggeBd4Es9GfM6HiCQ+DZx4gQIA5jCtNFJEYTk1wpDDE3tWs4jp6Jddo0dyttIO1Kvv9p7Tuiy9qb8+AttjHVSZUQ13vICmd2z+oBd19WtjUrZL6TuXbMaOtVylsQhRLPsJjc4n0p+9yL3leJKrx5iiLxYMj1DTXSoUDBAhwGVzp0FMk4hLjVZQwT3ktPcowsogjuQ1R9A4qMTIMMhqmmd7KV5gQUzell1rboaynzqogflhDywrUm5Y0spw1E+cISaG0rqucxfCwCroHVGZe15Kadq080aQVR+q1yLyKUvJC5j3EEb5z50YZbspOkr7+MfWkJTovgtJX9sJmxjVzTfzEuqDKKUCAawRXkyhQSvNyUtW+MFfVSwt0oShDnfHxmlfXoezxliQfjciKKNDQrbgDtcrOT9XCsmwXjmLFWYgCS5ey1usF84x0l1S3a+NrF7Xn0RPa+3qNlkESl9hXYtC1yQiiJYp//qC0pMCRAQlrZl5/z+RFE+aU+AmQAQIEuEYwb4bXehoPKKVUE6z9tK4+lR1v1K5nzmjX1w9o15nmty8nHk3c3IO5Geyox/HOxer+xd16vjTb7QmBUIlDWIQSTo7XWmiESYdp1l5OzIvY/nq1dj50TDsfPqa1nODbMpY29SHB/3Wn9D4yQKEcBMuWsMgfQlvivSFBpVmAANcQrqZHAVA+KBUm3iW292qBWb9lh+u0kLWdfHVT+MRYlJqba2GKMO5Mi+KP1CuuOEPZ5l2wEGGFCRP0+D28i2uqIsfuubi1RxtONemm587pPc+f1U72urY2KG3qVnpkO8bSpjyLz22VPrXdveW5MePaT6qDfGlHnmWQkwgQ4BrD1fQoRqN4YEg3/vCo9v7HEd14tF4lJFpZjpxjLNZvJLCE2QcDuaVSXR/ZpOpFeW6ROi/E2FFyXuYayOUQpqONWMJ91ZE67XnspG78yuvaQ3iJHATtN9k2BO9apsG/eI9LVnthrSvCTk+Hj4EXESDANYrZRBRY+Uv6B7XkjUtacqZJVccaVGmvF71yQZVGIpOq0IIoUhLVTygq1Y4lmWr5lV06tW6BTmUmu1nD1PqfM2FiGMdZ0yBRIqt3QMvrOrXsfIuWmyex6ESTyg+GlnIv92s2ceJkieL9q6Q/vt8tW4LnQB4CoRSW9vIy19otQIAAUWI2EQWJVdZtYoZ2Rm2HVh2o1fYfn9SOf39T2yOroKZiGbPDXmmWWhaY3LNMLbsqdaw02y2HTf0/Rx9Cmc1hFNoKYY2sBedaXJhp79f2a6+RaxHt4wlism3lcxK/tkv6ORMDcyKYTPdY+Ogrm7wECBDgGsXVzlGMBsrJ1eObQs/s6Vfx6WaVstGRKbw4n7NA3NmTAL9BOS3hrCMNSjtSr9SePmWZt1GcnqTK+DjNt9NIsnMdLAkyW8A9Q5aJfeZ1NXVry5lm3fZate568by2vV6tZScaVUS1GG3lCWKybUU7feFdGv7IRvdMIAI8CnISXsjv8B0SIECAaxizyaMYjTUmtz52XLf82kO6tXsgNLciMpTiMVmrGZC7KMpQW2G62hdkqu0nNuiVZYV6yYiD/AWVPeBqKUR/XxCEE7uIlPoO3fzKRd3yzYO65fGTWskJvg2m0hbeiwBfeb+0a9GIZ4VcNKHKCW+CI8nsAAECXAeYzURRZLLYpOpCixY/dVZVh2pVta9Giw7Wvn13vKkoR/IWhKMyk9VjHkXvqvm6sCRfF5bm63xVni7kp6nazqk2T4N9KphgxiQ+n9CdqcZLt3ua3zeg+e19KuoZUJZ5VxnmBWWYx5B1sklV1gZVr11U1fFG5wGNYKpEkZFoJPFBaf0CRw54DuRx/DFSZpO3FSBAgBnEbCYKFB5LSzgxRbn3uXO6+buHdct3DmkTJ3hMhxXtj0kJGkiK0yDHkky13rlUr24p06tLC/SqkcnZ+HlqmzfPhV1YpXZGYvOQRHuv1rAt6ZF6rTnXogXnWzT/VJOKTjergCU3KP/lOPrep9IWWxZo+I/uMWYOzWCBEPEevOBdcb/ewwgQIMB1gtlMFB5e8a035bnpqdPa+HqNVlW3Kf9Cq/LPNiu/pcflFKYFLE5oROAWJswyL2Ndsc6vKHTexfn8dDWmJqjLPIxOk67MJLcfeHNygprs71rsb7rtYrvt75nMh6Klcb1AeIn2ItHesZR3fu+ACjv7VdDVp1xT/An2GeG1BLvPnEsdKrH7KzndpJK6TmU3dSmDZcDtiLcxQgZTIYZI3L5I+oN71VeQ7jwlrp1Z7JHlr1Q6BQgQ4DrEXCAKDzdZrrtfFScatfBwnZbvq9HyZ89q+ehZ3FOB9ywAr/EsKK01MhhISVB/WqL6jCT6wmGqcyYnFuXpRFGGTtl3jUnxakqMV6ORRYdpcF8RZPpcSdbUIzOm2TDobItWHazVqv21WmzkkNrao7Q2Iz32qmb+Ax4DMmDew0zkZzzes9yRBNuY+iVO8JbYyY9lObwQbgoQIMB1iLlEFCwZzmqw2aYwS861aPNDx3XDI8e0+XC9SphnYbcy5Yll4wFvw4emWB6kMlcN5mnUVuSotiRTdRnJ6shIUocRRocRRg+eiV3IsB2H8BT6h5Rsij+pb1DJ5hEtMIIrPd6o0lNNmu8nFnb0uXNiXs11MihO1/Av7ZA+stm9pSMwl4SZ1l6YY+KF7UwDBAhwHWIuEQVVP27ugEmuyd4zTdr7V8/rxkdPaqGzvodCFvhMEQUehvc4IIFIT4Mjy6QnGon4JdPdH0UAj8CTGTvJQQw9/UrEe7gSRBcJvIhf2K3hxQUjHhRH5pH4UBPrYhGC8sn7IC8RIMB1irlEFJFgIUHKQleZsl31ynlVPXJCC442uDkXpShfd5bhSijduYSyDOmXdkkf2ODeEmJiIh1CVRd5CJYLZ3mOICcRIEAAh7lKFHgX6SZu5VmTJfUd2vnNA9rxd69qZ2TCNyCKt8BSHJ8zkqh8a9NZlt5gNzovhJcoe0VIyAcIECDAnCWK0Sgx2dg7oA0vndPGh064iqGCM80qONfy9r24r0fiWJgV8iLeu84tT8IiiBACR+ZH7IuQgBwCBAjwDlwrRIFXQeWTk9ZurXnmjDZ+76iRRngPBo/rjSg+anf/2Z1SeWhTWKqaXjF5NSxUMlHd1BQ+BnmIAAECvAPXClG4NZAiZPngkDacb9H6J04aaZxX7qV25VS3KYf9te37EVyLxJGTLL1npXS3ybYKN5scgQhYyI/FD72Ql/AT6AKSCBAgwJi4VogC+PWQUPx4FiwBwvIWJU1dWvPaBa35wkta+3q1Su2zEVxLRHFDiXTP8hBBLGDR9hBITO8PCwnq2gghF0EH8BIgQIAA78C1RBSRYDtQNvNJMSHpTfhpbXuv1r5yXoueOKXsly4qGw+DxQYhC2uGd5SlzkYS8eW5kXgv3oMRxK3L3HfsV81Kr3gRHKliYm9r5LiJX6cqKHkNECBAVLhWiQLPwq8TxdwL5l0gROqZ4b3uWIPWfeeA1v7rfuX2DrjJcG4Ohn03gtlMFEvtbu5fId1lsrRwxCNAzpq8ERYS1I0m5CAQymF9mIl5Htfkww8QIMD04lolivFAWOoGLzVtKjzTpKQTjUo63qDEA/VKb+5WOiW2bb3OIxnBlSKO0V4D7/NSNLSpREPrTdYtUOfWCnUmxbvQEZ4B53vFz4xqv83ryybsq8Hn192DDhAgwPTgeiQKlH9hhBDNZ1FBJK2jT0tON2rZC2e17HtHVP5mxK4LV5IoKGndWCKtLdHw+gXqX1eivsR4V95KCStbkhJG4kiC2nsIHAk3cdVe3jFDPECAAAFiwfVIFKNBPsNP3COfsc6EecsbTZZ19in14CWl7qtW6o9PKPG12qlvMwr8KrV5yRoqzdRgRY56VheZFKtnWaEGCjNGvADE5xR6TPAi/LwHwkuEmnw4CQkQIECAaUVAFKF8BiW15DI4FpjgabiKKZOlXl6/qMKf/baSOvtD6zSxPpN9HjVYyvtjm+0fMDrKS1dfXqr6khPcWkqs2MqcBr9BEPmESC8BIYTE0U+a88Lf+rDTdf8wAwQIMP0IiGJ8ZJhs8XK8XlWf/5GyqzuUXdOubJ/8jsa7wIP48BoN/87dI0qdxLIXQkTMa2BRPj+/wRMDxwDRgWfgy6RHFzTEW6PzvZPww/LkikQSMsJzCgj42oc3FIkscKS/sC8/n5MtnOd6jHvjENkfvOHm5ZrtMwFRjA86Dl6Fk84+LXrkuFa+Xq0VT5/RSibvRe4bwR9cDmlJ6nvXcnX/wT0ux4B4DwJhGe/I+Q3MoPYdjmOA6MDGUBlG2hmDQ0rvG1Red7/yO/pU0N6rPL8xVL8drWXnGXn3J8Sb2DE7RS1ZyapPTVR9UrzqjUm6TDFQasyzIuwX4NqBMxbCkm5jt9z6SEVjl8qtn1AFmdIzoNRuE1OPjh84Eiq2vjKAsFp0XqpaC9J0ITNFF63PXIwL7XxJePia6zMBUcQAa6mFF1q155UL2vMfh7XHXuexf4R1rpTRFVKjUZiujruXqPl/3jWyXAbeg19KI1ipNXrgHTix5/E2craunGpkwM6B+V1GEE1dKrvQpsrTTVp4tF4V9lkywvNi4Gckqycjye2V3rMoVzVLC3SqIken7FmdSklQc2K8Wk0ptJoCgLgjBwrk7T2PwOOb/Yj0KjnG2dN0Xqf1l7z6Tm042aT1Nq45LrD3WXUdyiJqEBktoMiEjcsQ9tlfUqBLOyu0f3WRDli/OYCRkRin9niTMGl4L9ULfcjLnEJAFLGh0JTMytoOrbAOtfKUKaCTjSo9XKeyA7VaED5nTKwo1KUHVujkZ7bplCkgn4vwwjLfAS6PUBjAxKy/Re19WmwDGSm13mt9ODSQ8RS6+pRmZJCKmMeXZYM+p75D2fbMXKjQe4D8nVmBbvdCNqPKT1NHcaaa56eruSBdLakJ6klJNLGjnddng599RgaykzW4IFNN2ak6ZcqAZ3faJPA4ZjEGh1Vq/WJxQ5cW17Rpkb2PN8+SfWvirJ+kVbep+FyLis40q8j6S2anGX8YgIjvWx5sWMaeMxzNm+hYlKe6hTmqK81WXXqiuqwvkXfspd9YX6rOS9PFnBRVh71UClHwUjlCHHMGAVHEhnSzQAr7BlXY3a/55lGsevOS1j95WhsePa7V4XPGhFkeJx9crVfvXalXzCLBi2AiHJ4FgvUR4J1gkI7kGqynJjR3abe1+d4fHNVN3z2sTd7iY0B7y89j9PtYgPUYfik2oTIl0GfE4bbC3VyqU+9Zpac3LNBT5o08baeQZ+J8LwGuPnzfmWdksOlYg2567IRu+rc3tTvSYEDc2dOAyD4Dkdy7Qvt2L9S+NUV6vShTx6zvNBrJsE0yY58Q1ZzpM/Gf//znwy8DRAE6FXmLOLKh1tlymrocYRRbRyx2Z1wG+enqzElV68pCdbHftn1E+MLPi0AChEAbZ5jizzVFX9gzoMXNPdpkVt/uow2685WL2v3yBa0zD67CvIQsO8cpg7FIwUbfpImC5+vBS35raEhxbga/eS5tvco067PUPMzVZj0uMYux2AiFEmsGvesj4ddBjunKYMSgsL5Q0D2g1fZ8dprnf/drF3Wz9ZlNb1xSlXkO+fb82FEyfizjYiqI7DOGeUYc6uxXRkOnSvCAL7ZrVV2n1vQOaL15slWJCcq2U/grb2jMWgQeRWxIsuZiU6QMc1/T6zu00TrfjkdPaMc3D7iZ3pcFoactZTrxgTU6uW7BSOiJsAUShJ7eQrK1b75ZegVGEgU2wJYdqtP6589p/UPHtJ4tZBncfi5L+G/GxFSUQKR1OBp8Z0qBxOZQ/DwN3bZEB29ZrJd2LtSLBWl61b4jp4GXyBHLMcDMw+eu4k0RLzrdrL3PnNFe8yD2XmxTDqRg5BBHv3FnhzGVPjIao/uM7yccCXFmJKsXIzEzST07KnTkzmV6ZuV8PWNGxjN2OkbjrEXgUcQGEqhpJoSgMlt7VFbdroqTjSo3a5fKqMsiIV5D1inj0xKUvrHUbaaEpUms0q/DdD0DCzyVdrWBPN+s9ZUX2rTxYJ12vFatTW9e0rIjDSqleKBvUAmeJOz8cSX005PDWL/nhX/bhERoPNdjigDvMq2xS4V27ZVZySpMTXSTN7kGnjMKjNf257PbcpxD8B4EYzK9b0BLWrq16VyrbjJv82bzPG94tVrLj9WrmJwDfcZ7EP45Iu6XpgmRv4v4fsK/bYal80Z7+5VoXkayGUJJdl2ZTd0qNRJZkZ6ocvNI/ZrPRBi4Nt9nrjoCjyI2pNqDz7OHnGeKIa+6TWvfrNGmx09p8w+OuhndlwUxy9QE9a/M18CfPaD+Bdkutv1EWJg7cT0DL815at39KjVrcOvLF7T1h0e19VSTCiMXbWTwhf9m1oBSSRKcHDOT1XPfCr1y9zK9vKxQL5u1yDIreBZegiqp6YHzIEx7JQ4NKedSh3a9Xq3dNg5327HS+lEieQgjkITIPnO1+o/3NvwRfeALKdAL71qlFz+yXk8XZ+lpu0AqIkdXS11VBB5FbEgZMKIwxVXQ0aviuk6Vn2tRuSmzErZdDZ9zOczDqmjuVcINpUqqytdF+4zlN5hDcT2HnuKMABa29WjN+VZtO1irnTbQN+yr0dJDdSpt6FKG9yJstMw6kgBcG9doyolZ+8nx8zSvtdctLFlo3kVxRrLSw/FriGJWhxjmCmwsLejq18qGDm053qS91me2vXpRq+24iO2PCVF6w4J+4yX851cc/t/nehC8Ua4Rb6e1R6kJcZrHYqTmIs3PTlG5EQgrQ7D+HESBceGv3X7myiPwKGJDjj3cyrZeLazvUKWRwxJTZkvNzV36wjlVhc8ZE96SAD+1Ufpvt+txe/moyY9M2J70ekViS49utHa88UfHdeNTZ7Sqq8+55cmmdJMY7OHz5gR4zq7WPilUa7+sQDUfXqent1Xo6dRE50X6hRqRYPBNEtY/tp9o1J4nT2vPI8e1if7i5zPhgYZPmzOgr2SluDk9vWVZavqFHXphU5leMHZ43r7GoPSzvyGNK95vAo8iNqRbJywhN3GpXQur27XgYpsKTfKpwAmfMybsyY5YNU2dmveB9apNine5CZKedAA2WkIpeiVyzcJsEypPqtr7tN7abech8yJevqCNL5zXiiN1Kunos8FuFjoxZdor/GdzAlwv3gWKi5n75mUk28OMo/plfoYKjURYR4ylYQAeRoAoYO3KPJhF1jfWNnRq55F67bI+c8Pz57TKvM+KcFsnmbU+az3P8YCHwbwNvAqTjOYeJSTHKWNhrgrM+MC7oM9wX/SZKz4HI/AoYkORkcSaC61ae7hOa043q4yw0/FGFR9vcA8zKqSavfOP79fBrRVu9zm2KD1iwnLhXkhyX7MwsqUNSVRv//FJ3dDQpcymLmXUdSiTwRI+zeFqxZSnC+ZF9OelqjMvTZ1M6vvsFh3eUemsROQ5kys+6OciTJEuMYNs575q7XjomHYygTKsVNMI3YRPc5iLfSYy4sC8ndxUdWWnqPuGEnX911t1KiNZz9pX9BeOV3zeVeBRxAB7kllmKZbVd6riVLMWmVeRb0ouCyU3urOOB+v0KkhV/+5FrnKD6hi8ETo3pZRsYXqtzavAU2LdnExrw5y2Xjezff0L57TxB8e0oaZdOS09SjMCCW1LiwETltCfz11g4XaZV9FofcQUXW5tp+Lnp2mgInckScnzp+oLLzLIX7yFROsvBTZWSq1fLLnUoY2H6rT5ubPa+NBxrau2toQkrpU+M+r6mSSYBBEerFPOoUtKvXmJlJLgxhFLBWWHj+CKlF8HRBEbso0oys2aWXiiUZV1ncp1JNGrNOKj4XOighFMwl3LlJmZ7DwRwhFMwoMk8CiYgHMtIWUwVC1W1D2gMuZGmCe29Ei9Ko/Wq4QQEwqVE+fqQL8cSGI7BRC+x6R4Dbb32fshpS/OHwlDcc8M+GCGfhjWZlTALbWxRpn0nlcvaqt5Eyusz5RiWPj+Aq7FPhOJjn7Ne+m8UnctVJF5FovtIwpnyMOwHAhbDcw4AqKIDdkdvaow62bhcSMK1hCyQZ8KSRCTDp8TFTr6zDoYUvKNVc6iZIljVo2lEooqKHapu2ZgSjKrZ0ALm7q1/GyzNhxt0Gob8IuON7gcDzOwp8UaxH1nkI0lFVkaXpGv4fIsDSXGabhzQMPm4jMZasTtH+vvkKlcl78vL/x7ZiUnmLLLONes/BvK3L+NB+mXc5n0v3UNgHuHAJjzkG0G2HIzKNY9e1ZbXruopaebNd/GXnaXjTUqCH2bur+MEuP1EYQ+QZmzefwDqwrVf0OJ+grS1GsE35ua5Nb+GoDs40J9x4tD5O/Eel2R8PcVKaZnkr9/VFk7K1SYl+b6DDoCkkBngEn/e9EgyFHEAGup8kvt2vHmJe348Ultt4FeSEiBEk47ovCjBh0sP0XDP/ykhgsznCdB9ZMXyOKaweCQ88J27K/VjsdOaMfZFhU2W3tNpt3GQ3G6hm9aJK0q0nBxpr03W52dAufb6wTWC3WPMCRGTsP1nYpr7NA8e6ZxRvo62ax5T52Sjja9fdBBZOGXUwY5C1cVZUKFywMr9eLP73BxZ4QdC305pA9NXU8gtIKlHG9kWmxGxG5Wav7uYe0xw6Kkd0AJlJRynOwzYdyFXzrcViXtqLAxaL0QKc4ykshwFWtsKIb4SqMB83CGrN8mW79Jsf6SbKSV9Mp5xT908p1zfKazz7ACQORihA/9pF6zPu3nYFFJxz0RuvT9e9oREEUMsJaqqCGhVqOdjxzXznMtKmjtcTNyXVItfFpU8B32c1ulX7nJEYUvleU414mCAZ9pBJFplh8z2Bcfrde2p89o2zcPaluTtZcfSLEOqNEDffsCDZtXpu0LNbyx1IVvsLQQ2tSXEnoZPZj4t7FgOXollVDbrvgDl5T57BllfvuIMkc/26kogdHXf/dyvfn+1Xr95iVu0uVBExaMQxpMrqc1wAjNkZPI7xtQQUuPKszz3PjSeW146Jg2MjcifJ5DLM8gss3LzHi4c6nLD/ZvXehIm5AvlUQIRSS0uSeJtxGFCf2HyAFhZoTcEqQWf6ZJ8ccalHjwkhLPtSmhe0BJLd1Kd4ZkpzKms0jj1sU6/IV36xXzbl62t0zOo6/jjXIkHDXtCIgiBlhLVVS3uRmgu6zz7jrfqnzrDGlOYkhmA995c6z7PP4ZteSkXlNEkWqW34rGTq0416rlJxu1+FSTyg7Xqdy8sTISdeHzJkUU6+ZLH1wbIoeqAjd4ESxwwndUkVFNhjD4/XeeJIA/+n+bIwM5cu90tr9dZs92+TOnVfGdQ5r3I1bnMkwnUZRnq7kiR40fXa/Gu1a4nQ39TocI+arrBfHWLzZdbNVm8zw3vVGj5TXtyjvfonxIIrLPgFiJ4uPrpVuWSLsWuTW6/M6SPnzjNxBD+Nz3Fy88M3/EoPDijQwv9Jss8zyyzLjIfv6cFr9WrSXmFS02Eimy70YwlT5UmavGLaW69Ad3q8buhcm6vnqS43mTaUdAFDHAWmqhdeRd9vB3f/+IdptrnNdmBEHFU6xEEQnzKlp+7Wb92F56OW3iOyvHOQVrp0xTsDsP12vnk6ecB1YFmTaFyxljmUQXqVjnmwr/2a3q+8DGUOjGPsIaxILycs4EBeuVra859205HiAKBjrJZY6rTNaEBdLI+PEJZfzjK8p47qJbuNDGzlszbe37SYH7Q+aZ/Pk9art3lZ60j58KC9SERest22ttsHovjgqnlNoO3fTKRd30rYO6+UcnXPtPCpF95h4jh09uUc/mctc/8BgQPDbmMHGEnClPZ/MwZCqFJPQdKpJyTHL7BrX8VKNWPHJCy81IWkgZeF2Hsuo6ldnT77yREcTSh3z48tZK9f2v+50H5PsMx8Mm044gmR0bctp7tdC8ioXHGt2yE2nETF3cdHDys0Gr29V3r1mTGclu1i4dGKXglSku71xDirnaS862aIUN/FVH6rWA8lfccSMJ1ueJelCQGASfukH6nTukvUvcznNY2nhdDHD29qC+/DETBguWFTNZccNpR28JRgMIBaWMUkFhkChEeRASaliUp757Viq1KFXJF5o13NYfWsU2lvsZDZ/45AdevKjBvZVqLUh3g59rQZkgXL9fmv5aQpoRRG7/kObbGCo3D2LlySYtQamat/62UFMsoDE3l0j/9SbpP92o4QXZztOkr7ACAsr0JRPCNrzfZ4InQZ/yHuhkwd8yXl3/iY9TvT3L05sWaP+Wch0uyVJrcrzm1bYrt6337YZljH3IVdCdbFZCV48SzEu6YJ9hJDEmZqQKKiCK2ABRVFiHrjjeqAp7nUodt5MpEEVygvozEtWyYYE6zRqio+HSQhQoC5TGXFAQydbZM23g5xgZlJh1uPpog1a+fEHLTzRqPm1ELJcTxxsUYevaDXbkwRUa+v271Pf+derNTnVtwaBgYGM5vWnCQIcsGPx85suLaUcULBINOM8ThZ/P4gkJD4/PBm3wx60t0cDdy9VTlKb+I42h5cYR7osBbOdFDf4m/Hfz4u3ez7Sod1uZmabJLgbu49qQBGESru+agd13rhFEGTmsmjZHEsuPNajSjqyjlhk+bUJE9plKs+d/dbf6P3+HOpbPd3F7SIJ+gZdJH2GiI+8xAFiwEQWLcYZyn+o44+8xTugrkA55pgvWZ05kJut8WZYGMpLcpkkpSfEaTktSv127mFFOH7BzowJ9hbHECgBv1Cp+9XzVmRGDd0Sfpa8QpuP3uB776akjIIrYMCNEwSOltr4qV5ml2W4DpHwTlCqKkQ4w670K67xsTL/KvKNth+q09/Uat1HM0pONKo7FemKwe/zWXuk3blVXcaZrA2KxKGzisFQHEVriSEyWAUlIYSYUKQONAcezQOkcR2yQ12woVduuCg1cMo/Q7mgQkoi1TPptsHvH4zrfrKwbylWcmugmYqJ4IAlIi9fXDAYG3eTVtQfrtP3RE7ppX42WUTJtfShndE5iPPg+s6tUw3/xbunGxWoyBUw/oZLshyZUBnnPgX7EfBWeJ+05LYo0CgybJ9y7IEu160t0dOV8nSvOcH02wTzvAjzT0GmxgVs3UmV73vTyHLfVQbmJn8ALWWH4TBkBUcSGGSEKYt0dvUp57aJyb6zUArOciZFj4aAAUYSzXkGYZbiEPSRePO/yN3vevKQqI4kiqj5oG8jBS/hPxoQf9H90p4Y/utm9xEqK9CIILfnEHRYhViNtNVPWNooEokZZE8+GKLBCnbIpzNDgxgXqb+/RoBFivFmHyXgXzsK1E7D+7BAV6Afkuw7VK3dwQMU3Vjmvgn+XfkAYjOvwv3elFNx0g+tH4qxfVJ1u1qYnT2vnP7ymveZ5FpknmgVJTNRPIr0IXt+/XL3/50F156W754IXiPdAKPIhEzxPnhlhGZQnVrf3OK8UXB+y671oRsaRogw1mSFAdVQ2ywDhWTA3gxMxODhGC/qcjbfcnRUqy0l1hiaGDe0AKTI2poyAKGLDzHgUBnuy8zr7FXesXol3LFOHWR+RccdpsQpmEnb/i6xdlu2/pFUvX9QSSmBpHxsILLEQdcdPS5T+6f0aunO5GzQofyzpQybEk7EMUdQobAjkarUL14ayIWRxLjNZ9dsr1J4Sp97+YQ3Z+95EIwvCA+Sv+INo4EkSvGZD/JZF6iwKeVOQBRYwfcznLGZ9nxgD3CH3ABGkWNssNG9ssY2lqjdqtJATPLHa9xGt8U5EttVPrFPfH92ns6ZoMSAILfk5KSdM8AJ9fge52uDZMdkzLSVBmX2DSk5O1LyclNBkvsHh0OKAoVMnBu1AWxm5JvTb35k3xT1CEH4bA7yWKSMgitjwNqJgDgVxwil7FPagcT35jdMtSipIUceGBTpvnQCiQGajR4Hyd4PeJNk8omXmQq98tVqrnj+rJdbZo1oBNtIyLM+UfvRpDS0tcAMbS4hOjidBmOkFEyxEBgGK82oqSqxD8iCQGJVJzXYfPSuLNJASbxc25L6PgyhtALtB7+9xvLbgu0ixBu69damzDGkPQHvbV+79tCiAKwxILs3IINMkx8ZPlXmhS441aNGBWpVxz6HTxm8nQFuC/7zDhSfJCWBMkKBm+X68CcKUFIf4yjfabTaA60CZJyYnKLkw3Y0BlqUfsC/irc8wLyvD95do+gxVhOQ5zLhI2Visoco8Z0hhaBKNoJ9c9u+jRUAUsYEF7VhefOHRBi1EEWAxOrKYAlGMRteAOjaWqD4/3VnNPGgGmFcSs4U0so0EKlt7tbquQ1utPW7AmzhUp4UsyxE+x2G8ju4H/I5S6fs/7Ur/UIyEmCAGwgYMfKxDPCvaYzaC54LFX1+Vr/OLctVt/WJeZ5/SMSZ8KArS9BZzNLjUoeGKLCUuKXDllgtMCEmiZCCpK7LGzzSD/VxW2PjZeqhWt5lRsYPNho7UqYylOcLnOIzXZwDt+Xfv0fCHNrq2hyggbEKR9B2sacYNhDqbCwD6khLUvDBX1UnxjiiSGzqVO3oTtInaIhK9/eq9Y7kazGPxXii5Tu/VTlp3BEQRG0JEQXmsEYX3KKabKLJT1GXKpW1JvrpMcTrrNPSNs6KnJeY4DSiytlh1tF5bnjqjm183T+JwnSrOtSifODud20v4/DHBgF+Sq+Hv/KQb8ChB4vEvmjxi8nUTv3ELHX+2AkVFiAgL7rg9v3n5qUq90K48G/jZeE0QBNu52vfzuGcv47UP/epAjbJuXaJi+00Wg+PvIVI8GTzNOQUjyvk2dm547pxu+eIreuCxk1pvhOFIAqs42j4D/vbdGrp9mesvjA9IgSomvApKmbGoGSuzmSRQ2vTpS9YPTs9Pd7vd5ZqHtcDGUWlk34imPTzMyOxfmqvWRfmuT9I+6A7+nvagneznYkdAFLFgWLltPVpoD7PycL2zpt08it6BEFmEz5oy6CTmSiY2mnVRlaey9CRXKsgD9iV3Vx2m+IrMk1hqhLn66TPaYARRaO+zIU/aJHzahDDLZ/jpz6oxnJPBIvTJanIRWIZ0+LmG4ZxUtS4v1Nl1JTq1MEctKYkaauxS5uiqqImUQBsrzZq627vYnUfYjZAKAnnOKVifyW3p0eLTzVpinsRS8lh9Q0oYGFKcfRd1Huu3bpLev971DUiBOTRMUsW4YK4EbYQlPadgY35BXppKzSMvtnGUy5pOlEubmxFT29BJzrQqbnuZMrNDiW2/oRokgRcKecSMqC8gQAgMbEIIWEAIlqK1/LiDPVawNgzT///yRe34uW/p3fb+Fvt4tQnLUs8K2OBO6jAL6GyLSp89o6Vv1Lj9w/PMy4hpufXvfkxD5jVBfpAEg/0ZExQAVrOPzc8lMBAJkz1ZlKF/2l6u/3tzlR66oVSH2cDInRED6F9f2qf4Z047bwLxFuKcA2NncNgZVW6vaKqbMLJiKQ39+DrpU9vcS4iC8OQ3TP6vCWFK+s1s9jzHQ78ZhN3vXqm2smw1FaarPTNZPRBG+PuoQCLcvPvyP39GG+3tHSY3m6A7WEJk0vo+IIrYAEnEUZlAGIEOPtn654mAgoCIXqlRwldeVaZ5GNRILzGxoaJFJsQxJ1+zPzmgoLhfrJx42sG1QcjqiTr+TigG+av7NLy62ClWSlyxkCljJHFNAhvymPVlwZcB3h/3NUiiMjlBHfnpalqcr1qT+uJMtbFHMif6tkB4fzk8dMS1LQJZ4L0injhmK7he+miG3Rz7keQbOWSax+mWCY+2vwDaZ+9CDf/3u1w7IfQNPAfyNT6XR5tOymKeBXDhyyUFOv8zW3RqaYFq5meoLTUh9jHAmPz2ESWwQKG99X1lSv0kIIoYYT0UqyhuAI8iTBZ4GOGvZwQvXlT6w0dV3NOvZfZ2gwnxajY8mvT6UpME90mfibd7RpxbHMuA96Ba5b7VIwqVge6Jghm0JCbnMlFEYjAvTd3ZKWpZmKPaylwjigy1Yi1ORA6R+M4RY9OuUNubMPCpNvMKYEb73xTAdTFjP8vGS0H3gArMk8js6lMK4abQKdFhYZb0+dtDhGFvEXITvvqLvA2kQRx+rhIF1+/yXLsX6eQdi1VjHmlryiSIAjAmzbigjaelf8T0sAKEiAJisN44YkFPRlGOB34vUkj2/eC4qv7tDd3Q3K1b7RTcygoTqmCuFLBOcuz+2ZpyhV3HkrpOFbf0uIXQ3nbNvI+Et5i9/MRatf7CHuc1UM7IarnMkeA9ngWDHSUwVwf8aLDpzcX1xXrjjqV67P4VenrnQh02z6KOsEJY8Y2JyDYlV/HyBRdvxpu8wcT3A+YfuGcwC0GfWdDZqw0nm3THKxd0x6sXtfFYo0pZFC/y/kKnXx6fv019Vfmh5K8JORpyEfQXLHFPHnMZ9Hf6Pf2/d1el+ovTNTBe/xgLkW36/aOa1zc40rYcJ62nAqKYBCAKL9F08qniYptyXjynxX/1orb9lx/oztp2MWe50uRKKgis1zwjiUqWXTjfqhXnW1Ta0KmsWNvg/evdRDWqVMhHfNeEyiaIgjDCtQYU2fn0JL26cr4e2lauxzaVan9Vni7Fz3NlsxOGnTx+eMSVHeNV7jS532S7SZWJT1jONiSax12xv1Zbv31ID3zxFb3rPw5r6xs1qmAiZvicCfG+ldJNS5wChRjITVDoQIUZFvicS1xfBvQByIKcxEBWigZ3LYy+b4yFk+anv05rvUUSXmJGQBSTAIM78jjTIFdBkpgk9xNnlfeF57XsQqt22VfvNnmvCYoDSzOmRHKMSLSbzWvsVMXpZq0+Wq/lZ5q1wEgjC8IMnzMh7l2i4fULXLgAy5AEtl+Dh8lRc7HCaSIw+ClpdqvepiWpPitZremJsYWewJNnlfbaBRdyJPS41gRjgVzVTD73qWCeGRYp7b3Ksv5aeKpJhZfalW3vUybK7dE2XsJzJQgvUSSA90nimsIH+s1sT14zNrhXQoaEC3lWRAKoZGTuCOTP2m6slst8GUif71O3ViixMHVqOtoMTAw8fo9/x68jh4EZNVGDgCgmCU8SU2H8yQDS+MFxLfml7+rW7xzQpwYG9fP28b0mVDbMZCgqsW9AucxKZ2Lda9VazgJuRl7Mso2KKGirD5BhCVmB5CDIS1DSiHWIlzEXq5wmAv3DxdOtkboS40zi1RcfN37YaSxQ0fL9w27Al5pQ2MAkPJRL1AvoXWn0DChuYCi0hSnhpr4htyNc1HrnE+s1vKXctROEgCfB8hzfMmGWPn2HfjNb4UkCQWGT2GeMQgY8R0ieaiQKVThS1Ygi55mmm1eRfP/KqenoZ8+7Mnv+PX6fMCVHfj+mQpiAKGKEPXm3yYw13IhbGO2AX0bXmAR8zNEL9edv1Gr+rz2syv/5mFZ39WuLnbbX5J7wkU1f6HRRKfAoEdfdr1TzbLLNOpx/rkUFddYBo12Xhja62+zgG6tcW+FeE0qAMJgbgidB0u5q5yVoL58snm9W78qOXu1u7NK9Roj3mfd0v93zu5q6dZfd9y6zltfaOQw+rHwG41htwf36kEJ/OC8RM0kAjISvHVRSdasrYsAq5AhJzNZxzCRD+qwr/mBOQCzFHxlJGvqJzSNxe7wyyAIDg/wEYSf6ztUueOBeEJ5Bvj2jFeYx7ant0HvMe3rQDKsHq9v04MVWPXi2Re8xb/zd1o/eZW1C6PBuE0pYbzOh6HelSZkJmoLnm3z/KsWzfetkwYZhb9Q4ciBkSW6LfwMDI6ZfDSbcxYbQhLtWVR6p10Jqwc06cnvmIuFzLovfMBV+yrp38xQCLEZSaBifH4k72aSE/dXKXJKvsvx0rbbv6QQoD5QwAypmhXQZZNp1V51v0RKWg2Z3v85+JbPGDNVfXFP4vHeAa0b+31s0vDDXXQ+RUyqbkNkyw5jr9yTBJMpl51q15dWLuvWR47r7lYva8dIF7XzhnHafaNRae/YLTOnlxsUpye4tKSEeLnRKbayn69uGWdmFrd1axEJ45pVVhftN1LPYSU6uK5ZWzHfkQ1IXoR1n45IeydZOVaYoqw7WaTGz9jF07PMJ75eJmD+3VQP3rHRtChnQl7lP7pcQ1NU2KjwgCJ5hvPWZxTYutr14QXd+bb/e+5z1lWfPaPczZ7X7aTs+e1Y7njmj7T86qW2d3dq0pljr7ZkSQkR5k2vCs8DaZzteDI+MtCSl4ok9O8lRYv1yKG5YCbcsccSA8cj10kepNIRso0JAFLEhtzW8hMeRBi1kaXBHEqawsfbC51wWv7DTLOpF0gtn3YzbScEPMC+U6lZ3KOUHR5Xd1KHCNSVKTk10g8hbsVidxCPtdDfoJgX740zzJqpssC8xC2WptUFu34ASRkqEJxj0DyzTwM/scAOe8BIhJz/oCTvNBhAzLrH7qDLltsrIYPP+Gm22wb3xqdNabYZBqRezEt18gK4+5fQMKteUX0ZinBJTrJXR5fY7kI1vD9p9BPZhoZE8i+BVGuEu4vlB+rTfeG0IIApQlq151o94vp5sZyVR2P04ojBrerHdL0o0N3yPE97vijz1/PYdLqdDH2EiHet9sUQHJEF+y/78qgOFXmL9f3Frj9acadEWe6Zbrb9sfuiY1rOz49EGlSDHG1TMMupmIBSdatL8ly+qoDhd+SuLXKjJ5w3IX9B3UOb8Nu+TFuUp7uGjYs8a1wfGa7exUNuphPtXKjU9yeVE8MIgCIiXlXWjwmx1WWcrhnlO9rCGqVgxBegk/F1U2FEp/YE5nDkxRQgvDyw0FLYRWNI/vKHUn/+W5j9/ViuMwHbY14SiOBLPftuiazHDeqcptJF4s1lPbn0rez9hHyLccscyRxB0UiwZX/c+aeKaAeTZ/a0/06R7vvyqfubf3tCDRr47Xq/WoroOZTZ2uwX+Ugm1GUnmmGex9D+OaPs/vqb7Hj2u2/df0vZuIxj7HcqWfSjKJwxRap68h7JT3E55ru8QgqI/xRKKOsgQn4Ogr0KK4bfj4u7l6ipIdzkI1vz6oslXTJ42mU3eRLaNg/X7ql1F1y/+9Yv6+NcPaK95oYsYGxiPGFEI9x72physH8X902uuRBgygBRGiMGEfsO4ok8MsufJnUtDfcbexwSug33qrc8QziIERdKcPElMea2AKCYByMIPciehBxo19piT+ft32ZOa0AeZGHQ+lDWKm/WhTrYo60+eVcUfPK61r1/Ubuuk6+003FrcTt8RXbjDJGrYDWIBugl2eBEI/240A5+N4G8od0lHvAdW98QCxpqJeUmLGURaQ6dKfnxKK799SNsfO6k1RhLs3ZwLOZj3kET70s4tRhhnW5RnnlWZWY/LnjunVWZJrjFvax1kY78V2d6RoJ/0JyWoa3mBWqryVF+apZb8NHXaZ1GT5itGFD1XOzIfPd7hOUQqzMthQ6nzPslH0FeYrc/6X3iiGBoxjbdpBmMHRZ5i95FjXlIZS+t/95C2/vCo1r120a2ezHbAbnwg3O9o4fOjjYo/2+w8CMYkR37b62T6g59Q2LGtQj3J8bHPq4CkMOzeqJ5aXisgihgBSXgLMNaHFol7Vkh/Yp5FKt1jGoHVyzLFj53Sot/6kdb9w6taUdOmSuuclMZhTXgXN+ZnDynQyel8niR4H/76sril0u0Ex6J/zLz2+wX4CXazAtxTfZerzEkmAUg5MrX+fB4+5bIwjyPrcJ0Wmlex0QYlxQQss8KWlGNVoTH4m5YV6Pz2Ch1ZV6KzFTlqzEmJfj6AkbQOEHx5SwFP+AyuArimEQ+Co389EWxcaT2ZthAhjHhiYbmaJMH1o2R5rjnWV1hNOsOeeRLjgROiGQ8e8XZm9VvFvf5eXdGDCf3BJ+8bt1So3TzRHnSPvY8JXJP1TcC1RUrUCIji6mH4/tUa/ut3abgg5S3iGUvC50cFrF5CJaeaVGCdo/TFC1r0o5NaeahWG9p7dYN1aMpomXMBceCOejd0rI6D9ZFnF1Bqg6HcSKjQhLV6EqMlCbCp1CXPmCfBjmNYh8SaSWgTgrpaoO9DmFl2fwWd/Sro6FW2Dfx0e51EAhGrMJp7ZF4AVWAnGrTQ/o7EJCQBKY8VYEQB1BZl6NjOCr28eYGOGGlUs2DgRM+da/FiROEHO1Yo4mPbUT2TGQTXkWYXn2UkywTNDGuTFDzQ0NcTY2+FW2rfg3bwcrXBPZCTYouBtRfbtc6ee2Vth/JYPTqavjIaZox4RFYCMi4gCJZLx4s6a+1Rf3uVOv1s/sv1kcvh1ZqR/jIpBEQxSUymU4yB4ZuWaPjv3qvhyuzYHny0YG37h49p6z/t04P/8Jp++scn9b6j9bqjrUfbbCCbX+PK8chfjO4LvCemuaazVzebYrrzjRptPN6gchRjLPd/Q7lzo+n8kAUdnyi7X37haoHwQYER52LzIDZVt7nZ5hV1ncqJ1vL1wJokFpyZpKTkREcOPrw31vhyE8dSEvWaeROPGom+vGq+ThVnupBK1DgUshD5N/i3fIybfxtFPR19c7LA8JhvBFFlfWyFKdGK+k7lUR3Hl9H0m21keWYn8DArTzdp949O6AP/9oY++P0j2v3aRVVFWyY+GlWYEyFAEuTwCNHydMnFkKNh7TM88TM7FqopKc4RSsxoMT/Wxv2kERBFjDBNPqlBGCYBL7iYWA4oy+qNZTrz9+/ThXuX6tLSfNWVZ6u5IF0dxPYjrYfJEAkx9mfPaslX39S2v3tZt33jgG5+7KT2UOp5vFFbbSBv6upz8wFWmoKEOJaHBcuY6XHbjtXrxidOafeL57Xa/qaEeD0DPlLsvDEx39TXskLXub0rTXflvom9Rhtpp5+iFFHueDkkihli5AEgOZSkTwBG+3wIF7CHxtKTTbrBiHCDDaRFl9qU68MI0YLnQnFDWbYG7Zlxr4h/1qMx4l1lJOn14gwdL8nUpayU2Dakei1kIVKphWfITG3q5JmIR3nlNAc0Y0KWtV+ZkcPqE4264USTllgfnD+RcRHZx/cuvmzbXW0kmCcx/0i9VhhB7PqXN7Tr8VNaaWMCYnQexUTjYTQWvFViQr9w+sCEvAyrFvhqL45nNpSqwTyLbjMy/HycmNpoKkUQQXlsbHA73F0MzaOotNepvrphoo2LKGv78DoNF2WOxFpJ7BKCIV7/fG6aTt6yROcWZKomM0UtWcnqtb+Zx79hA2/EbbeeEXUnBPy7HtaBKeNNbOpS9sU2lZiCrDLluOpwvTYea9C2M2YpXWjVHvtud3Wrdp9u1M6zLVr/gyNaaoppgX2e19ClDOZPRBO7B/eZ+rp9mbOS6PzkJRAGRbSdnHvHWoMg0u2PiuyWmOSGYlxqgrLEWvXt6u943N+3LzNbu7Xc2mDjM2e04+ULWmmKrcTukeR1SmQ7R74eC3mp6qrIUcunt6kpLckl6SnppPKdQf9WFDoEf13ueq3/oFQrzVNbhPcX+iqE8f5dyqt/dpsS4uNc+JClPAgnkn/id1E45EKuBqqsXdc9d047zHvd+WaNFlu7shlPFmMlfI5D5P35fsrksl9nB4WQdU1fod8gvL/aSLbxSJlvFeW+fl6Iy7/YLUzUT0bjDqP3BwgEh+DXsPLkgOdNH+JzjIj0jGRlvVGt3PY+xdtzH+bfjUbveKzMl7ZXjpSmI6GVoKJAQBSxwRGF2+GuLkQUxF49WYTPGRNMfDGiGJif6cIwuJl0CtY5YocuNmC5mBCnS5V5qitMU8eg9bqeASWbxZ8DUfDAeeaxWCvAd2An9rctPUqz68+ltvuNGi00z2KJeRwrzTJa98gJrfveEa37zmGt+9Yhrfv2YS2z1xVvXHJbWOYwI7zTXOyJSAJLx12vyQfWuAoWFJcf9ByjVWLca6rdM1Z+obVzqVmmi5u7tKytR6vTk7TM/i2Igog2HgUCqXB9dssOke3FM2JgJdk94E2stTbYZPe8/dWLqmSVXkiCNnYKINxu7i/HQWmWWj+1WfXrFzhiYHATNmAQQhpjKTiuDRmygV7RAFE0apGRdYl/ztH822cblP7kKc1//IQWmUdUhidklmZ/SoI67Xe4V4hjLKHN8Moy7d8gR5MdPo4W9334fP+3hJbe8Vvh8xkf6+xatvzgqLZ/66BuMEOjwIgwkzES2aaI/d0IuG+wvVy6nyLjULt5hUafuVpEQZ/CcEi3PpNvY4A1zpbsr3XzQyDpEQ9i9D2Nh83FGv7De60B3wpY0WeoCIQkCDXRl+g/eODoDNo5s71HWfVdmmf93m2Vy3i0zy8L365gdZG0t8r1z5iJwpSH3V6AqGBNVWlu9I0vntdeGwQ3Yn2yS5cvnwyfNibMQ+j52kfUuWK+sw4Iu5DUZYEzBNJA2XlZeL5Fm354VJtMUW+qs4HGXAmqcHBx7ftJIVpX1Z/nBwCIfD0R/N9z/MsHXE08A/1HJiwpznGiJDaKHqGMsLylW6us3Veb57PKXmeZ+5/B8uZV2Ur6xBa1mWJk1VmE2C4DAIueI5/hvRD2gpxZwDDLBli2DbByU85bnj+nraxoaoOfSU8j9xnL/f7WXp366e06aH+Ah+g392egI+PmHlgi5FCdbn74uG42wtrM80Wp8rxR/OHT3gHaFjFF4I655tWsnq+LSwt0sTJXF7NTXLv0JCeoNzlePXY/blKkO4ZKnBPt9/k3UOChSX9ISLf436UEfCgpXn2IkRChUBcj5zyOA+ah2vWmmFGTYteebP12gbVrGXthE5LhHI/x2pR74Pg+I4n/dZ/7iGcZ2WdiDZy4/hM+ut8OH8d6PR4WdPerwvpbuRkWeH7L99VoufWb5RSMhM9xiLbPYNn/7Xs1XBFapcBfAwbjk2F51YSwLASBQEiEhVccrdOKp86owtq23PpNGQUr9vll4dsVfMC8FyMn1sh6zIQ2ZWFFMGFbBEQRA6ypHFG8dF43fvOg9sZCFPMz1P6vH1TTkgIXhkFIUkEWdArikZEgnbejtl07/3Wfdjx7XgXN3UrHomfyTOiUEKLtnFcSdE4EZfNvH9TwDeWu2onO6TvoeETBwGazmyRr72TzIJgVveexE7rxH1/XjaOJklDFX75Lw+tLXUdHMft2RbDGPIl0WlsV2bMqNuVcZFZuuVnwK82TWPnUaa2saX/7hMRolBpg8P3ePToQP88NOjxDiJ/78wJRXRZGWDvsOsgB3fjQMW0i6Ut/QmIxCiKvCWCY5KWpM9+805xUdUICRgpu+168YOuvbitS/h1IiftlhQHO47mRNGWuELHw7GR1ZxsR2W92pyaqj3M5j6Ndf0pjlzIISbK68XjtFg0+vUn6r7e7lxCFJwmOExEFHpQTa4gEa40EdwwJoH2c2P0N2UX6UKXPKXnhHO7BiT2DteaBbzTi2/hqtVbXtCmPEOwF8yZGj8Xx4J8PGzB97aMSk+jsLWSAAcPRE8UTJvTdSOC5QQgLzJNecKBWy01WvXBOqx476XKJl0Vkv7hnifRXD7pJi4xD9hkn7O3bAbksgtBTbHChp+p2VdjgrmCQMOiiyVEU2KB97xo12qAlkYnFSayQuQUMiLGszl5zS+s3l+nkumLVYh1isUFO9uRHBmPk69kCTNKkBA2yjeNntqqf0j772IeecLEZHJdDmrVnpVlw6+xedxyu07Y3L2mNWU6LzrSoAAUVPs+BWP3zZzXPrGmVZjuSwSMjyc2kNyLAzGlYX9+hDS9e0E77vS32e5veqLHfrHXx85LaDudlvO35jdeu3B/A+v0tU2r2bHieeIV4EwhhEggCBTDuABwcUon1qZL6LhWZwiUR7RR6j1nqE4UzI+GvaQT23v2OeaFGBqlN3crA2DBFk2YeWVq79V3CFtanEunDnEtIEUHZs7QIwjXwHcRCf282QjCDhd/K4Dd5TQgWQ4nfmWp/vHmRtI0MVKgN6St4h4yV8ZL9CXatxXYvVWZYrLF23GjEj5e424yMW040ac/pJu0yD2D36Wbtqm7TFusom61fMjkSS53qPpQx147yz7d+VmR9gr6x2v5u9Zs1zqhYcqlDObQjbUe72LlRgeeTlyz99YPWMZ3v6oxFDEQMRcgBQ4P8BDoBwyYSXBcKn1WHO6xDJRnJ55geIrEemnFyGUT2i6J06cG1rq8SfuLfQRf5M/h9ZEwEHkUMsKaqJNn78kXt+c6hUOiJag6zUJ0FGD5tTCwvUO0X36vT5TkjoREUJ4K1jSUcCR4eSs/LlsZO3fztg7r5j5/VrpHBPEZoYqoW3XQgwSxRKrbSktT3xKfVZ1Yo94m1hNvL8bLxZuuNBaZ8th1t0NZnz7gjyd4skqGX2i+/SRKW2h/fK219e2kluZDuHx1TzxdeUi9rc6EgTVmmYE2HTgkhlnbDSnv3cuk3b3WWIWCQY/ki3F/UMOW26VyLtu6r0ZbnzmmdEVo294qHYwoY0ruu8N9vkX6StZBDBhSTM7F8EcaIt/ojyZfnlmKe2CrrJ6uMCFinq8qIgXWWSs0TWABZhk51inO4MF0deFo/vUkd71nr8gAHIoQwHeHNLOsnWWacrDAjZZX1xdUvnHfGxwhi6TPMlfrCu0dIEGBYsGEXgjdB0QMhaWS0F8o4x5DhPqi82nSwTjc9dFQ3/8Nr2sMJ0WC9GVPf/Sn37zEOEUiKMYLhxpG2HRPvUDQBxgFunIn1DlcOaY3nQiyj3f6xgAtv1gCxcqwFJtPgRWAlEYMcDX6PwcCD4/uW/HSd+9hmHfj/7tWLdy3V4VXzVUNc2r6bleB+C1PVbyRBB0Swri/bEUcQsmJTbTDknG1RkVmFJJ2zIOPwGWPirLXqr35feiOCcq0R4793SCm/8Ygy2DDHLOB0fgfLN3zKpIAL/+um0IwkeE4TPvvxgMVnP+ByB0NhA8AefNQK6FpD1lvUiG7imZPEpRSaOD207AkepUlinWKPIjz9861a9nq11r54XqsO1qqihqU07Fm7Ng2LGXvz6AMk2P/PS8r76j4X5mXHSJb8/rh5Cj/91Cl99LuH9f4fHtMDj53QrlcuuNWS+fcnBUrE/7cZMWGS8GObcc34hSBYpI8j+uFy+oCxg0LvMT3SlzBPA3Exrv1kXjqg77sEvQmVhLQxn43b5wKimASwSnhIxHBD43xiJMVrwMjFdwxCMRwvRxTAdyg6COeet984cNsyvfDbt+rIfctmL1HQPrRNebYjB08U3Cf3Mm572ZeE8VLNvc8xq3C+SQGexEQeG4Asfu5b5s+bQ91j//I33lD8f/qekhu7lI6FzpHfiSWkMxo7S6XP3yEVo77eiaj6QiSs/zjl5UM9CO9RauFTriuMIgre0dIEa1DUEANEQds4orB2YhXjooZOVRyt19KnTmuNKXfW3io35e7WXLLzRkC70gfM+Mg82aT83/yRKv70Sd1g591tfeQTn/uWPvnZ7+gnfvdxvf9PntED//KGdj59RsuMhCZFFJDE583zvIllOUP9wwtjw88twnAcTx9wPmPHjSfTI702vtAnMRFFO6Mw1K60HePJr/uEtzIuFwREESMgBsR5FFF6EwDlaQf/wBEeMhLN3+OFEK+lnPYp8y7e+Mx2nf2ze9W6pzw0+QbFzImzCfmpbkCPlqjhrcDw26hwoUP64L9In/qa9CsPaV5/+DcmkvCfj4tNRS4ZiCeBZcfg5plQykismWTrZEo4E4wYCYdlEGJjnSnCYhBG+PvrCllvmQPcP0rMeQ0mFBtEEgVKDm+i2LyJcjMsCswLzaQYwD4bcyE+xP5mBLwfHNK8v3hRcb/5Q8X/3DcV/8RZJfQOhMrdER/m9edHivuRccAK0b95k3RvqNwXEqAq7ocmf23yZRNCa4Si0QcxI6xTokZTiCi4btoWgUT963Ex4QkB3gFXNohiRmIhCwPneS8hWpIAEAUJPSp6iIG7CTlrS9T6jx9W/9c+rIHbKkPXYp/PCmAV13W9rVPyesLBNR1gQDw9zbtcEN/9P++V8kJ1Lgw5iIJBzrNgqQWCXjEThSkcPCiqu9IJsTHPhcQwyi58ynUFU/oe3P9ooqD1PVHgbTiiME+RPFYhJdOjixKixddNhe+rnb7+yWKfv3O79B62JQqB3ANE8QOTL5j8vQnVR5MmilhBMj0M7hOS8EQx4X1fl51xOhEtq1uHJlbKo8KV9vFWOns0YRD+DToTrieWCcnhp03+zeQf1y/Qo3/9Pu3//idU/+G16sxLcfXzMS9JPF2AJLDGzrW4Qc09Iri7UXXK2YYtCzT8l+/WcHGma0+EZ0DVCCThV8OlKIGJhTHB2oqVeBPNEoYsUliMkHkUtGH4lOsK5ll50M4YU4Ri8ODo+7z2BhavexPj3FI3bWlJ6kpJUN9E4ZhIjyBWCf/EhLBr0h/coeH7Vrlr5I4wIDD2CC8h5CcpnSb0xH1dEWS+RRTeWI3aYA2IIja4uQEISjgW1w/FaZ3Nr1PERB1vIcVqAfFwsUKoBMF9xTr5jsmrK+br0u/drY7vfFw9v3mjBla/bTrQlQODik30L3W6Mj7uGaKANCa819mmHfEkfu9OqSIUoeZ5I1iHlBgSCsQqZP4EVSyUPMYEaytKUtkMys1pYFJluK8ERBHq6y6Ba+InTaJ8+Y7XHYnxaslKUaMpwTYjjB7CsPb5VQMk8bu3SQ+scUakz0NACj4Hgc/ENUatO6YLOYzC0L/ricIT77jkCgKiiA0u8YgwkGOx+og79w85cqBmm7V5WMyN92/xfPSgs9H5CH94hYVl+00jsK+aUvvGT27Rt7/9k/qPl35Oz33hfh1913I14mUwkChfhehGi/39tIHYLpZxQ4cjCE8SE3oUkG9qYigPxLX6/Mt0X180WGbk8Ht32TG0PzVWIXXnp00gal+HjnUIcXgFEBNcP7LbJidBuGmskufrCRFEQZvzDkucfg4J8wwgCEB7o3xrs1N00bzohpxUtTMhkP4d2cfd2VcA5tEM/+ouDb9/g/t3uX7yVoSLHzLBmMOgoP9AHlcc4fwP10U/dYnx8JH345JFQBRXCEzQMUuRWCsTZFjtk5mW2KmTIYpIoKSIkTN79UsmeBh/a/J3Nli+XJSpH9yzSvv+4B5deugT6v/TuzXwUxs0tKVkZgcQVjEzfms7XMgpkigmRHayhk0gtEGz0ByxxeK9TQeoVvnj+6Q1bHcfGkgQAuTgJ9WRBeGzmMkhEmONzuvVmwCjiMJXBUHIkAWkgXKjL3Am7X/J+se5+RmqY9mS9CT1Xg3jAk/iM5uln9lhnTz079IvyCs+a0KImLHJPJujJngWVxwRROHCdmGBeLnWcdsqmJkdG3Lae1VR066FxxtUwQxXZrYikZN6xgLK7n3mjhakO4WJ4sRCYgCQBKVcdrLgAWMV0PkYSD4WyiCiPrvTtE6rDZ763DRdWD5fh3ct0uH7V+nwJzfr0IOrdfTe5Tp65xId37lQFxbmqCEvTW3mzveaO9/LYoaER8ix2G9FBVPqDnZh826u0rylBe5asMK9Ne6twrGQYoO8MDdV2VQAMejxhPgtyJZj+LwZA4P+nz+o4fAua4DrZdD7/QHYlpN78bPqx7XGxoN5XZV1Hao62qAq1kfiM3+PV+JeZwtQrvSbxXnSHawLHPIeyMUR0qOqjPHirV9rGie0u3ufkqhs66Cp9hvxphBZDYD5BsOsdIznz28j09mm/prpL582kviVm9Rsn9FPMCRYyoXJbSzHwYxrDAvGKPfAtU8aNhYX1He6VQWqXrvoVg2OCpvM6Ll92dsWBeQ11xPZrmMiIIrYAFEsrG7TQhvYC836SYMgEMIs4XPGhnWoD6xVnFk+nEe00JMEHQiFM12ItBjwNnwZJ7NOmUH8nHXmZ0wBP5OWpGeNuF4sy9FLiwv08sr5OrWtXHU3LlL77goN7DTZYqrrQI2SmnscuUUFBo/HFlO24dVjfeeciChonzS7tjgjmL6+IbcY3VCPDfi6zsvPzJ4uUBnyLx9y1+zB4MGyZbAz+JnRClkQVoAkxruXCeGJ4ki9FrPMeOT9TadSm+3wfaYsy60eS5sTWvUrF0AUtDXKbCxSdvraDJy+ogy1WJ9uSU/WgHm1SbXtyokcm9PZpv6af26rhn95rynTOGc8MMYeMfmmCf2EzyA5xuS0YLJEwcq8exc7IqNdEV5zXZdr1xHMC5bwiB7WUuxFsfuVi9rzvSPaba/zzKtIpVplouUW8Ci+/VENri1xDwWhzNUvUTB6EbArBUJBDCK8IYT8CVYtapIjW3qW/8lTKn/0pAqx6Em4cq+Eluy7CfER86J+/17XKf2CgBzxeOh4XiJBOxLwIYdTYu279IdHteaZs1rzyHGtifx3p5s03Fo87xmZQQvJesHjY5kFv9wCIahpgbXl3jdrdPt3D+u2r+3X1vDHDhPd36/sdMrJwU5kEuhg/DwNckyOV7eRLTH7jpQEtZtSc+3MefaCHBsJ8/gh8xR5734kDPvNAeuvrCvUb7/Xb4YFoT+3kJ7/HY/BIZd8pz+kMB/EjKaM588q4+GTbj2oUDFxFMA658hOj4//jHuN8eSXRUHGM6boE272tt1cXmOXFu2r0ebnzmrz949qU+RihVPpM/4aPcxz6fmFbWr++BY1J8U7Y4jyV78gJRVxnI8CRt72tzGCa2acuoUOTd9sPlCrmx8+ppu+/KpudGdcBpHX/EvbpP+0d2RRQMQvCuiv87IIiCIGWEstZK2nVy6EiMJe50ES0RLFtz6q4XUlIw+GhcD8A2PNlasFVA0dkSNRTKqUEMp3CQIsf/WClv3wuCrNk8pnb2hmS0czUxqwuuuzP++8CE+KHL116CUSXAdt6WVVfYf2/P2r2v3l17Tbr3Rqn08rUUASf3rfyAxawOJpEAKCi+5zE4Sf8NKmBZMlCta2eupnw29CoB3xIondc0SxYs3S9hz5nn6H8LuRbewtbq8MIEfI3IcysTojQxSRoIqPRRgRlhWveLNalb/+sCoP1TnCjwooNAQieuSnNFyVP0IUjI+JiIL78bkwVh1edLrZrcZ747+9oRur25Vtn8Vc5joao4ni13ap7jPbdSAhfmSdKPoK14kQMfDnv+3vJgHuDdJNN28izYhv/f5a7Xz0uHb9+5sy9X95RF7zn9zt5nXgEXvyxfsBE15f2B4JEBXoZOGORsdzYp00ms7nzgmdR5t7mXSnnUZAXAx+lABxYaxnFCMKkVj8K8sK9fzeRXph0wIdW5SrOhb7s8+jAjOlTzU6iw+FhFJhOQaS+nT8sfI6XA+xXNx1QnPVhRmqv3uZWsoy1ZWRpF62gjRrd1wLKBYwOeqP7wntX25vvaAocc2xDPEkIAkUwFvp1smBZ057cO/JZtEzC9vNAObLaLGt3F0jCpzrQbHTXj7EiNfjF357JkrB0ox8TxJ2tPC7o8V/53/j9aWFOra8UNWlWWrJT1Mnz4xck30XFcwjAdxf5HE8cA59kv7bZGTTyI6DFVnqyEpRN/9+UoIGpqPP8BvcywdWqf9T29RuJIFBQd+goonqQ56Bz1txXdFc/0SAAAvMa1sESZiBuuJ8i0pZvTf0dXQIh1P9NUXKhAiIYhKwlg1ZJ5NT9PzNbCCIiUAHYmXNgxnJemJdsX60YYH2LS3QBQaeOyNK7K9xFisTDbE6WYQNSzPaii8UTLd5Ym2/tFON5TlqzbHBnxw/PTFfs7j0F+ZJ3BpKoALum0HOYEdlsUQHlhdxctpjqkQBSXDfrFOU3TuojJ4BpcRSLAC2hAY914LFD7njNRBK+J4Js36/YvKwCd4qxI+1i1KDfDmi0EgUEy7BIPBWMcLnnI/nBGnz72BIjKVoyd9gPRNeRFHuT03U0ZsW6eTaYp2vylM9e7HE8ryeCxGFHyOTGSuUx/bdskRdK/LVDlkRJpqOPgNJ3L9Mvb99p7qMfCAmDArCTn5hP0h7SnmrMYBRVcH+9i+c1+1Pntau16u1zMgitGB5FKCKbxHBuUkiIIpJwHsS3p0Nfzwh+JvwS46RMhuBwmQgXLILPJGZrKOF6bqQl6pWFjj0oQIv7i8ug5fOO4sIYiDnwfr/JOAgDZZnmAgjiui+VXrt/9mj4ysKVcPgj+UaRoPzTZkM/9V9Gr5juftblKFP/JO4RoFSykgyFUXLNZBgnaqyoS2yzYMo6e5XVUu3SkxyqM4JfX15RN7r6lAI05OZ93oiLXwS73iFKHzOQ4lFCh4IBIOXRGI+Uvicv4EkUHrcs7eQR4Pv6CcoSgiIUNehLWV6/dbFeuWGMh03sqgzy74n8voRO29MPG6U1zE1VYsh02Ce76nfuk377l2mI+z+B2FFew1jAZJ4YJnaf/duXUpLdPdJ36B9aa/ImdZjEepUkGR6puBQnaqeOaONRhYrDterlBVww99PiK2unm7yCIgiRljPcoo9FoIYBU8Ok/37qwK7WDeoiCHHOsAeOaWU5m6XKMduZ7eBNSaQRjQdHYWFa09+419urNKjv7hDBytynGKaNDDf/9ed0j2hBdsAihPvgclRf2eCZY6FjBKYTmAdslPZqlNN2nmkXmtPNqq8MYZBn21Uszw0CRAlhbfzbZN/NyH0g2WPwrpagFD3F2fqRzcv1rfMs3h2fYlOsv9D6OvLgzGF8dU3pHkHoavJjxGUNiT/eHaKvvJzO/XdB1boVTMwqmPtu5G4q0oDv32HalISnAfm84uQNF4aBDFTYAOqVDMoss+3qoDcKAn60XuqjIeNUWeLxkZAFJOA8yhM6NjREkb4vEgBUf3tbIFd7MiyJbEMOBa5e/2Cq0oh7IRqZsKh31VsIuDKoxAZnMTc920o1emPrVeLn2nur4VjpPDZ5fA7t0kPrnPKFosY+xWiwEJE8UIWhHFQuljf04lU8yaKTzVr2WvVuuGNGq040agFjV2hypxICZ//DlCyTHGEvYQsucaXTfAo8CAIj0136CMWEAo7Fx+nN40cXizP0dGybF3KTAp5FKFTJoa1C7qJkCWeFuRKjgvFGE2IDqLEu4H4nzTF/tIdy3R8SZ4ayVXQZ2LNV9xaKf2PuzRongReJ6E5+gfCaz6bclhrHMR12xhiORwWjjRPIoMCGla5DX8/IVYy2sb2CKNCQBSTgLX22waz9bg5pfAnhYg7ZJDF4lmwecxDR9xgJ4lNlyW2igU9VjJ7NBjQWGs+acsEwq47lqvzF7aqOzNRfaYIYkpu/89bpQ9udOejUH2FD0ThxcebCb1MtwJgS1H2XS5/+YJW7q/VwnOtyp+oai4S64snP+CvAGhX8koD1kcoryVMGfXMesYURthTp5VgXheGBCuW4X36lQyoyJsI/Fu+QMNVgqUZUX1sk7pLM9RDjo18RbR9hj1I/vBe67yp7nz6C8SA8cIcKF7zWdT9bzLotDuZyIC4HJgQuCrUZ0ZL1AiIIkZY67oH5b0KxH0xAcJKdVIPaTaAm2Sw23HEYo+WLJj78M2jSv7xcUcODHaqnxjw0RAFvx856LFY6+zfvvBzu3Tmc9tVW56tNvbnHu9a/DWzqufHNrtrhwD4LSxw4s3kJrBCCTV5koBIoq7WiQZ2gUlMHKxuU9G+ai08Vq9iNtiJttyYe4iwDr3MNnBNzLsYtHZmKQ23nEa0/QVleKZViS+eG8lrLTehcJkACn0omjHnCYt+Q9irYX6GLnzp/Tq5vVw1VGRBGFxPpNh5b8OGIg3/xbs1XJgx8nt4K/QP+glCH8KIme7ngG521XHWHkl4D+aJxnudEy1hQIa7ykIz1e0thDZeYcJlERDFJOAeVHSddSLMxkF+OQynJ4Y2bHJiHTCaQR+JfyeaO3WgzHH5v2GK54s/tVUP/94dOrizTC0oostdV5INud81T+LDGx3hAYiAUBNx/a+asGgbIRx+f8asw6EhtwQ7i//FM2OYVXYpjY3G4OC+FudoeFeluz4vs70PhTb6Cj+XaMmC0MrfvKyK8y1um9J7TG4zYXcHaDJWvYUx4PpMeY7+4o/u1rc+sVGvLs1Xvb+usa6Jjaq++H5HEhAEhgUKliPvZ7Ld6Qt4mCwaOr+7X/Pb+1zBQ6rf2pWTogFk+O61zkvG+yE0SfEDXlBMeayAKGID3Wlk7oSX8HexgE42kx1tRsCqrjaghhLiNZgQJgsGfvjrCfG4ddGHjrj2mkybeZAshXJYJuHrJk9sKtPBP7xX9b+8Q12rC9SXmeRiyY7YcpM1zH4SX/2w9JHNboDjJTBIKGmEKKh//74JiUnyICiV6X42jDPiyYkDQyGxAZ/A5EG8LYgi2n5073INpSSOKK7ZThbDyfGhPuONC3IrY/WZyPGE4GEdrlPJF190hQ97TXaY4FkQiopVbxFKpOyXPvNPGcl66COb9Mrnb9XpB1eoaVme2gvS1JudbG2boOFF2Rr+9d3WZz6m4YJ0Rw5Y4hRVoGC9B8EzmClwf3jcedY/FrT2aEFLt5vcm2Z9522797mzx8H8dPXuWeSu28+xIafFGMJQihoBUUwSke5fNNZgBOYcQYTB8t8DdLysZHWbK9ttiph1mKIaML6NIryKWNosEihGr/Dp7JR3Hs1J1Us/v0svf+cndfypz6r++5/QwMOf1PALn9Pw123Ar1/g/gbLijATSyyQtKaaCg/CD36UwnQrAAiCUFuxEcKSlh4tauhSEbuxMejdGVGCtr5jubtGiA7lxTHmMMKVBKSWlKC+rBR15ZoYgbs+M5FXwdjCev7aISU+edKF5RBClTHNNxkD/LvnrPM9u7pY//5H9+nL3/+kfvQfn9ARk45nP6vhx01+bpdb5h5Qf8VclO+aMDeF6jssc/rMTIF/OW9wWJUX2rTuZJPWn2zUopp25WFchE6JDg+uVEdemvMi6POsMI3XHHORRkAUk4Bnc+txUbH6NQIGWH9Fjrrz09Sen66OzBgnMdFWz17QvNcujrTZZNqO60CZ8++iKCEKJsMxAJCjRmQ1lXnqLM9Rr1mI5DVcQtMEb4EqFQa+JwqSkpRTQjzeSp9OMLCz7d6ZSbv0UrsWmxQ1dymTPSgiDY6JcNdiDa4scvcCSaCofB5lthIFHkV/VpJ6zLDoNIXVSZ8hnxT+flzgbbHg5pdediRBxZMniqmMOdqKMAyeJAv3/bOR1mPzM3TA+kuDeRCuWMI+p28hzKFhTgpbmLJcOGu00d8mLPedAtDLueZFLDxar7WvV2vtkXotvNhmRGHkGTolOuypcn2F+8VEY9kgCAPvIiaiCFaPjQ25WITnW7XoYK0WtfUqdYDQQRTLcBMX/9A6MyvfqpbnYWHdItRhz3ag8NLSk+xW5qk3L1XdeBh23wkNncocT9lx714g19JM1ZiFfzYhzg1C7p2Bcdm/nwAMfAa2r1YiwQgh8LuQAvX0HBEGCXMjKJv0k9H4GwbTTClbJhUuru/Uulerte2NGq07VKdFZiUW13a41XBHjDXaJvxyTPzqHrUuDq2BRLuhrLgH+o/3imYbEuyZ5yXFK72nX0l2HE5O0CD5GTd2xhkz9BVAm5y3O1tZqCa7d54Xz5Xnyxm0HYYDEiv4G++ZovTxHGhPchl+GRPyVwh9hnYmhIPB4Y2Kyfy70YA90xcda9Cy/Ze02qQKkmjqCpXFEqoMnzcuti2QzMt2k1VNCLMyBnzYLKZ2C4giNoSIokWLDthgp7Pz0HCRJ3p4dPw5ThTcX1x8nHoL0tRqJNFr90QJY+apZhVGKrzR8AQRHvvzSrJUszDbbTaDpcO9h7+KrfMaOBerj3wDA53fQpFyRJn6wcER8SRBrJb3M00SINsG99rnzmnbdw7p5idPac3xRhXXdSizb9TS9LRR+OU7sDhH+q+3qsHan/vinpg97vsOCiymmPMVAn0iIzHeKT4lJdgtDiue+QDmVWWPvv9I+M4CaBcba81bSlWdleJIAuUHeP48u1jDhfwdf+PzD7QhJIGX6det8uJJAgPEk4RXtDOFZPMmlpsxsfrZM9pgBgZrPGW29SmF0NN4/SQSn9ni1neirfw4wGjyHmhM1x8VMwV4J3zMPdqwAbAT/cPhGClzAVhQKOTzNlgPL8jScZOavLTQsgjujChxqklF3z2iTQcu6X57+ymTu0yoaKEccipgEJB0xMJmcDD4WYoDYiBRfdqEAQ+5zHTb0y8IT8abcZFkFnUKG12xLH1naFtcZ03Tf7zw/nK4Z7lTtCg17o17wvJl4EOQs5EkAAq1yTyJ00vy9cbq+dq3rFCnSzLVxGTJ0CnRwSzq3P/7ktYa6d5pb3/a5D6TjSYsBTMd8P0BJRopM91PxsK8gVCUIqF7QElMWKVCjlBc+PsJkZHoNimKxJTuISCKScCTRIxJbI8r3emmC1hfEMUFI4bDBek6Pj9dNbmpLr4fFbxCPNmo+T88qk2//pDe9fgJfdq+ovwRopjCsmUOXCOxV5QnRIEiJQ/hiQIvLubSwEnAkYQJFSp4m2xulWzeVyoT64w02MMhpkF/z0r3khAJ1i/35IkCD2qm72eycERhcjojWftKs7VvYY5Om1fdFG0RhMe5FuV9+7DW/uK3dbe9xbjAyNhkwtLm1xQcM0EURg7snslSHXgS0YacwIfXS9be04aAKGLDCDFMZAFeo6APM8DZ2IaZrYPWCDETn1lJiY1dSq9pV/bnf6xCU6AQBLO2Ccwxg5vkJWGJybQx14Ml6K5zlPAZ380kuGaGaIUN8jXNXdpQ3a5FlzpUwID3ZOnF/cVlgKeG/OIODa0qGrknyBDBe+LIZ7PV+OC6uMZuu9G25Hi1pSSoyzwMNzkyUtzZERjdThArntizF5T2n77tqsi80NYc6TckvOeqTqO/p1pDZA0NKdcMi0xWFSY859sgdNrEIEz5qbftbDJ1BEQRYFKwwa38aBZTGAO+mgXruqVbaf/wqkv4slwDRMHRz9qOenDMInDNuUYKlDNuPNaoLcfqtexCqwq559Ap0WNLiYY/uXWE/DhGvp4LgKAhtW4zLroT4tWXaEaGNVLM149FjfzHccW/eNYZE/QbSAIjg37DZ3NVpyWaF5FmJJHdP6T87n5lmkSduI7EZ7e9LRc6LQiIYgqIheWvQfQXpKtjcZ4a1hXrwtIC1VnnbBtrUyNvEUVaRhwZBHgX+y6p7LsHdYN9fK/Je0y2m1SaRL3+0SzCvAGzCGs7VHmkXhueP6st+2q09GyzCok1h8+JCuyh8J9v1KXEeBdqYtE/EqvUxMdU2jgL4Ahu3jwN5qWqLzVRPbmp6uL+Yt2EyvehP3tO8880uXAlM7YfNNlpwmKT0Sw0OetgY4FdI1ddaNPN+6r1wCsXtP1gnapYLDJ8SlS4a4mGP7BhxPOklJrxCFlPyZMOiCLAZMGuZS1by1S9aYFOsoRzaZaaGfzh76MC3sWrF1X5v5/V7p//pj7SO6Cfso8Z/MzCJZww18Cs4tyaNi16/pw2fu+Itthx6YlGzYcUw+dEhU9sUNf2hSOTpZhVTEUOeQni/nMRQ9Y/+tl4Ki/NTQRzu9/FMhfH41CdFnz0q9r6+AlHEp80ucOElYnxMOYcegdVfK5Fmx49rvv+4jl99F/f0C1Pn9aKSx2x3c+nQ95nJFEgvJ6SFxqUx8YGymMrXXlsrRZR02zWTRzzKCZyESn3+/A6qWjs8liSr3MNTull2qAvy1ZjWqK6zTKMa+tVOkshc79erHc6L8KD9174noQd1UDHm5RpAz/1jmXGEEnu97GmCCsQYuA3ZmvS1q3LY32hsG9QpbXtWne0XqvNKlxh/aS0myqnUKw5bnRbRIJYvW+zfPvF373LiDfFJeVJxjNJkKotyh3xKFAAcw1J1kdS8tM1lJmsjqIMdWSaB2ptltgwgeUc2WcQYvedfUr+7hFlFKUrZU2xK3WmUIHyWarDKBagradkSc8gku0+ck1vzLe+UW5jZt3heq1/8bzWPHdWSxu7ldHep5Rwv3nbvYf//h343Fbp/eudB0FbUPSAbsEbpfqPvoOemVR7BB5FgMmCMlSs26cqc/W1reV6fOMCHTKvYkrW7tlWpf/0N7Xs0CXdam8/bvIBE8IK7GVx2UFylZFhiquspVurL7Rp+8kmrTzTHNrTGAMCYbCHz40KP7/dVa34QY9XwbwJSIMqJxThXAQVcsfz0/TUrYv173cv0w92V7rtdbmnmOHb9E+fU5wZGCmmRDHDWAsKwRKftTkLu9Z0M5DKmru17nSz9h6s0+ZjDS6vletLYWOpqlyZL/30NveSPgNJMF+I5UaYMAhZUBY+adIMiGIKGKtaI0pM9u9mE3BnmQ1caxbwmYI0VyrbbJZiN6WPxJ2jaR8Ge6QQnjnbrPzPfFuV3z8k88FcCST18hvCQhyakshJptKnFQxkchLZ5hFVnGlxFuGe16q15lijEUWX2xf7bfcX+rPxcVuV9Mltru0IIRDKoywWYkbR8j7mUM0sAUoMQ+KceYyH5mfoZHGmLuWkqIO+Einu7ChAm1Ju/M1DKvrxca3qGdBu+3iPCQXFrDR72Ul9Vxg8e64F7zN9YFCF1meqTjdp/QvntMu8z7WHarWQiYjesIi2v4BfMFMqLxSoZVxiXOBBsGwH3iiTNOk/k9Y7AVHEhpGGjqUzXwZT/ftZheQEDRtZDFHRQsw5FrKIBIOEMlJzvdN/4xHl/O8nVXa60a0gigJgkhWriC41ISR1NcEgZvzEm/WXU9+pRa9Xa+PX92vvj09o3f5LKuce3JkxYKHZwf/lJtdmXq4lYNG6taqs8VozktRufaUnKWIPdndWjKBs9tWLWvQXL2jXbz+s9792Qe+3frTLvmJv9pgKCGYQ9JUU8xIy7dryrY+XVrdpKUu6fO+Itj95WqvNqyiti2FLXI/fMFq8960tfTEiMODwKpiNTfiJcBzGxqT7U5CjiA1uCY8LrapkrSeWQjZr0q31hIILnzMmiDt/eL2GizJHFIDPUfjY4VxHnlk0DILkhHgNkbBkSWlKQnGlw+dMCGsYVw2F683fnW5R3EsXlDQwoMzcNBVkpTjli1XmF4rDjiIejfWNXAmQmyrsH1J5d7+W2oDfaP1hg1mGa546reVNRhDEz+kb3E/4byYE7fZn96p9Q5mb2Mjgpn8QX2atHpY7wSKf66DvQxgYEnnWRwqNZPPMus4yL6PfDIwhxhPP3519GdCuXuwtBQQprJ11uEEFh+qVzh+bxxJnv5lgJ5D/8BV0VzK3w2WQa0uCIKy/lFq/qLL+QWhy/YFarX3lolY8f05LrA0y0Scu5BRxb+H7uyw+tk7Dv36LIwfuixweISZCTV7wLnwye9IIiCI25FqHrmRRwEN1qvTJbASlED5nTNigGGatpzBR8NAgCkjiWiGKOCPDrooc1ZZl60JhurrsnuMaupTd3D356iXa1qyv5DdrlfnQMRUkzVNOYYYK05Pc1phlJt5qx2KKqeJqsrBrym/r0doTjdr99BndY7KDAX+8QSWj73WigR6J37xR/Q+ucwvfseAfpbCvmzDYyVGgAK4UEV4pZGQkK828iniW9GAXNusz4nkztsLnTAiMMA/a2wyN+NpOZRyuV2lTh1blp6k4M9kZFl6RXimQNyH8mNU3qBIjsg2mN3Y+dkK3P35K2167qKUnG1XEmnF2TtT9xGO39f6/ouYrlLOiwAFSYIkX+g9GBsbFtCzvEhBFbHBEcaFNlYdrVYkV4z2KiYgCt9qIYiyPArkWiAIl1mkDvdE8C+LQKZSJnmlRMXFXd8YkQLsSijJPLg2r62C90p44pZy+fhVijdq/lWZtS74CxYKSxnrE02DgId7To81jgf9bBIswx55zkVl85dYHVh1v1FazBLd/97B2vl6tReeaVdBs1zjaIuSHosH7Vkr/5VZnFeI9sJYTVU7ElyEOqnlQBlOyCmchXFjIiL83M0lteBP2vJMau5QVSwgmsr0R1tFipdWzLSp8pVoVNR1KT09QgpFFfJL5tkYsGBdY+vTZ6cj3+L5GP8y2vlJgfaXEvOly67sYlFV1HVppXuem585pE8vXmGFRWdOuHAjRXzc/FA3QJeXWOt9jxatQv6YSzi8WSd+hyIT3eKXT4kEFRBEbvEdReciIgvI1TxIxEAWDnYd7rXkU3BODrsfuddAGfYm1Uynr6Fe3TV8+gfam3HR/rdKfPqvsl86rqMsGov17a/JStdyUAIvEMWBxt72yd6EOk1gwEjbAIjTSW32uRTttgN/11Bnd+uJ5bdhXo6rzLconZEC5Jn1gMpbhmgLpHz7sXuIRMdghCOZOUOVEGAqS4H6uNfBcsHgb89JVbUYGa2JlmSFWZEo+350xObitiukrhC+tvyTbb+ab9V55rlVr0hKVZxKfEO+80Kkuz07/oq/w7ItNJyyrZUZ+g3YfbdDWNy9pu/XRnUYQW63vrLTxUIrh5BeF9IiFKPCgHv+MdXJXoO7akPAkhgX7TVDlRB9Cp1D8wPdTxrxho78A0cGaapF14Jvsod9E0hKLwDohnTuRY/i0MUG8/tsf1eDakhGlxQYolK8hKIVrCZQm7jlwSXu+sk83YnETs8d6QqmaQvVW/pQA+fqkOVuzri7SpZ/apANrirU/N1UH7LsmO6fLpNOGYZeNL9rdW5E2rh25hcSUir1gsCfYc+YIQTgxEsg+1aRNJKsfO6FNTPbye13jQdg5MZODB/3i5K+NXAeVKWzJ+qPwESPiegGL3t1kXtpNPzymmx4/qdUuvzWgBI5T6TOEtSiw4JiepN77V+rlnRV6eWmBXrZ+cpKHFw5f8Qx4mDxRt9e3+9RgL+wT99Jb/6Y7XWUS86goZY2z/l1xsU3Ljzdo+RuXjDA6lGOkkIOhxNpm7q+nAQ/9pHpXFrkwGgLZRS6Njjcx7QiIIgZME1F4ZeWJ4nGTa40osOgpT1xxpkkrzQKvOtmkMrOmyszCKot1KYvLAaJAbJC7I8tCVOSokQmAJRlqMqXQbcqhz0m8+jKS1ZGRpI40k5QEdcfPcwsbUnEzaAo/ubNfmUZomTbg2SsiyZ5rct+Akozc0liryTyKwtPNKmTQQw5hRRFTGWMk2Fjmqx9znoIXQnZYhfQNjuQmrhdgYW+253DDtw9ps3lry2valMfy4tb2uRgYodNiB2MPY4I+khinQSOI2qo81ZZnqy4vTa32udvHm329eW3njyx66ckAcnCkEIoeeO/R7VDIdxgNrT3KrO905JCLbiBkioHEtU+kH6LF0+ZJVOS6iiaMCITQtd+YiCPhpmlHQBQxIJIovvambqq2zuAtnok6Apbvt35ihCiwaJ8ygSQgC5KW1xJoC+Y6IEXEaB87qXVmLa5/+JjW2YAamQMxWSUbDbyCQLAoS7PUUpyplqIMtVC7n5SgflYyRWxAp5oFmMcgN8WUxyD3Ml2DPBKfvsFtRARIQiJ4E0w881u6IiiE6wV4DJQ9LzGlu/SZM1psZFF5sE6Vr11U5WiLfLL9BrIIv3Tgve8jeKWMUzMi+lMT1c+Rf4cwkfceCWWx5DfzffiM3/DXMlN9mWusypG+/jHJjCFAgYPvI2zT6vsQMiN7kwQ5itjwjhxFtFuhWkeMzFEgWItYBOQqJjUzdZaDeyTm3moW/ZAp6ZzD9So82hBa0gIrjJP8cQbhrX4GeoJZdyktPcowUsg1a7Wg2sSe5/yzzSqyY8GlDmWTOIcgTCm4kAd/G/6tacEf3SH9HHPNQ8Ai9PFl1nOi2ol+QQL7WsxLjAeMKCbf1VbmqtHIPI6lLOy5MDmNJbhH+spk+004xDSC8O+M9BHGMRI2/vAmU/AKeM1nPdYnyEdBEvzNdFzTRLjX6POfPyKZh2z/hAOVTYSY/KZc5FkgCMqnpyUnMRoBUcSGdxIF1kaURPHhdRqa/1YyG6KAJK5FouD+6LQkYd2MUCOLnDVFyr9kg765R/PMcrNxFtpnwL6fEfD7kQoA5Q8JsBYVcWNCGudalH+m2ZFFHp/zPUoBy5G/4W/DPzct+OJ7NPDAmpGad+LLzJ4lxvyoCd4l1SqEoK43kgAYFn5b2+aCdKVmJyvrWKMKzIpPpM+gibHwebb2Mmbwd6PF9xGUP8+cZw8phL3JEEGY8Dn9NZIkIiX8T0wrPrnRDIv7NGjkSZ9hPJGgJszkSQLvgr5Ef5kRkgABUcQGRxSmXN62Z3YMHsX1QhRjgVxB/Y1VOrGuWNWpSeqytkskBh3+/prGMrvLv36PtKfKeQoMbvZnxoNg+XDWcaIMNurdAq8TDM3PUPPWMp1dlKeLxZnO24ijz0w3gc9G/MI26TdD4UnIkz6CQfE9E7xPDAzmSUy1aisqXPONPd0Yy3LAugi/DDA26Mwox0cT4vTlLeX69ofW6qXlBbpITJhcAnFYxJ19DYF7evcKDf7te9W3tcJZzBgFhJd+aPL3Jt8Pv7+SE8HmArCSKfN8oihT/3LHUn3j1sV6bnWRzqYmuBncI/3GnX0NoSBFw79/mwZ/9SbnJeBJ0DfIY/6HyV+b/LsJBgbGxRVBQBRXB3Tua66DjwPu1S8zQCy1rTJPzZ/eorp3L9elihw1sQmSeRzTMflp1iAvWfpfd6jrz9+lk4vyXeniV02+acJrZs8SliOcQLsQnw/wFugzKErItSMpXk1rilR7W5XO7Vyo42yWRb+Jdf+T2Y77l0n/+hH1f2SzC0G+YPItE/oMr4lCXJVlXAKiuLq4XsjCEwWdHEuREEvTwlzV/87dqvnZLWrKS1UnlUn2+TWB8IDX+za4+6VskYlQEAUDnxAC1rKvUqFdAqJ4O3yfcURh0mxexKUbynXuV3brxI0LdbEsW02Z1whRYFT87q3SX75HWlboCBKiIDzpiQIP4qoRRZCjiA1uUUCS2ZTtMYHMJ8A4hs8ZEy5HsV6D8zNcjgKlcL3lKCJBqI4BXpcQpzOri9W6vVxDbd1KO9qoDNoqLhzMM20xp8J6haka+sM71fjLe3XevCS8BvYFILRE8pEkJGEEvAju/5ryoK4AUKDN+ek6v6lM7aWZGjrbotTGLmXGx4fCUHSWuRYKxqj40wfUctMSl8Sn4o0wLTkI8hL0Icqk/VpmtMEVR0AUsWHSREHFxgfXBUQRBlY069NgaTMYhvLTlLZ7kYrihpV/2L7pH9I8P5nJvp8TYMD/4b0a2rXIJRkZ4Ax2JlN6kuCZE24KSCJ2YElTDUbbHjZjYqA8R6krC1VQ3ar5tUa99BcKS+ZKontxjvSru6TfME8iL81NlBuLJPgM48JXNl0V2GC8XqIfU4efcPfsWd381f26iRJLJt9QNtc9waQs4u/f+gn1mfXMw0YIRTADF8HivF5BtZipWDfZiuPi1h4tfPGcFn7lNVU8fW56JlrNFMoypA+tU8edK9S2rNAl7alQIazEIOdICIHPvFy1wX6Ngb0m3AQ9k8XnmlX5zBkt/OKrWmiGXA79BOLgONv6zK2V0nvXqf3WJapPSXQkQCUcBOiFeRKsBOsFkriqCIgiBniiiJyZze5a0RAFMz2/8RFHFFhGCAlNZmdDFFgQ1zNY0sPLApO9JjciDx/V/IePSN86Ghrss2XQ7ymX7l0h3bXS3MxU5xHiLUAKCN6DF77zXmSQh5g+MN4Q+gwl1uxqt+dSm/b8xyFVfu+I4g42hOZGzIY+Qw7i3auku63PbGVT31DFEl4DcyE40k/wsvEs8Jx8f0GuupIOiCIGTANR9BpREHagyoWEJl4FZEEcO0AILEnOOlHs2YUwrErONqvkh4dV8ugJJeyvH5kcNWMhhrHKLvEebqnS8H2r1Lmlwg1oP7AZ5JGClch3SDA3YubBEvOmgl2/QRZa/yh8s0aFjx1X4ZNnlFbXpeSO3tC6S/b9jMP3nx2l0p3mJ9+9Uj3zM1yugTwEAlFgXHgDg8IG8hD0lxlZhmMqCIgiBoxFFNGu9ZSWpD4jip5VoVUfIYvnTPyKjwFRvAVCUaxo42W5CdvGe0k53qCE1y8o8cVzSnjBHPULDK9pBgM9w57odvMcttpg31CqYSMHwIBhwJN78AIxMMARrsaHF5EZmy0bYAR4DJF9Bq90rQlb6K61sTn/UK2yXzmv7CdOKvs5AjszhBtKpI3WXzZbf+FY/NauGoSQKHH1wlVACAg6gZwV3gP9Zdb1mYAoYoAniufPae/X9uumWFaPzUhS79c/oq6VRSOdg86CV4HgfgYYG+xk5y1FPAw2J0JQCOQvcs3byHv5rPKeOqNUI+95bUbDreazNfVoXt8EwZ5E80lyzR7NT9VQjom9HtxcpqEdC9Vo3h+xYwY4CejIQczn5CB8HgKCwEv0YcUAVxfsf0IOoyp8JDTFhlb0l0wz7gqP1Kvw1fMqMGMju7nHbXTEbozxzb0Th6myk+wfsD6Tm6rhLPNP1hQZQZQZOZSr0/oQfYFclfcMqHDjiDFBUYMX8lU+tDTrjYmAKGIARHGuRXvNinVEQTI7Yk2YcYmCiUFf+4g6Vsx3HQerkxppaqP9Eg4BxgahAga4F/a68FJgsjoskAir1fqBznGePR+1G3G0mxpHQKb9opeUt54aFh1KHi+AI+RN7giBDPiccxA8Qk/4SCSJBAPq6oM92iM9DJ4ynyHkNDZFCGTi82PsPxLfEe4rCEZHlpGC7y8ZJr502+CftT8SUvKVjL6a0QvGBWPfj3/6EX83J/pLQBQxIJIovn5Aey+2KjdaojALpPurH1bb8vkj1gZLBEMWCBZGgOiAN+FJA0uRqhcveSbAkUToZdRA2Xsy4Ag5sHMYq3Qy6Pmcc/wADzC34PsEoU2f/0LKTRi7XmLNe0X2BbwGQkrkHwhP+oomhDE/ZxEQRQwYTRQ15lE4koAsJtiMJz9Nnf/2IbUsK3RJK0IZLC3t15RHIQWIDgx0BOuQge1Jg9AC72MlCA8GAuK9Aqw+xIcQ/PdIgLkL+geZAwSvFI+DzyAITyYgsh9F+8zxWfE2fR6S9z4ciYExZxEQRQxwRNGqG188p73fOPiWR9FpZDERURSmq+NfP6SmpQWu9A1hkS/IAiHWHSBAgACzEnNiBuMswgirWsPFtNppPCtdhqwKrAwsDo68n/WJrAABAlzfCIgiRpg/6vZojpTwV+MCUrFzIQbi37il3h0NXLoAAQLMagREMQlAFih+71HgXbgvxgEbtxtR+IQp3gTHOVEaFyBAgOsbAVHECO9RuFBSBFlMBOdRvFVZ48sweR94FAECBJjVCIhiEvDhpmjDTsCda16FvfThJ44BUQQIEGDWIyCKWBHyDIYJJRFyitGjgCi8V+HDTgFRBAgQYFYjIIpYECYFvIMRiYEswkThycKTREAUAQIEmNUIiCJGQAzOo4jTUCybu4fPQzxZeAkQIECAWY2AKGLHiCfBEQKIhizCa+KPJQECBAgwqxEQxSRg2n2k6gmyCH8cLQKSCBAgwJxCQBSxYSQ3MRmSsJNpb4S1ivzrgDACBAgwqxEQxSTgPIqIqqdoCCMi9BRJFP6zAAECBJi1CIgiRkAS3qvwnkX4q3ExbERh4kmCVU4jySJAgAABZi0CoogdMZMECHsUtLffQAWBLAKiCBAgwKxGQBSTAF4FoScS2tESBkRhJ3lvgs3gvVcREMXMgaXf2XOAne/Y8ZrNjdisZoPJRhO2V2WrzBITNj1iT4txl4sPcM2DccleFb7PLDVhB0V2w9tiwj7c7IpHn/FbrNJnrulxHBBFbHCkYOJIwhpvGAl/Ny7spHlGFn4rxuTwkffBM5g5JFub5/QPqrizT4uaurS8pk3rzrdoy8VWbW3udhvvL7Hvy+y8QntGkArPJsD1i6ThYWUPDqm4d0CLrN+saO3RBus720x2dfVrg/WXZdZfyqy/sBUvpILhd00TRbBxUQywliq3zrL91Yva8eOT2n6uRYWNXcpA6judZXFZzM9Q+z++X40r57vN+pF9Jq+FhW03A0QHBiTkikAEJTagi20wl5jSz4CQOYlj34BSuweUbp+n24BP7xlQir1ONUmxv5uXmazO9CR1piWqK9UkOUE9yfHqTopXj302lJKgYftsOClB/QlxqrOfZWtLjux659fr4hhg9oP+Qt+IN5VX0j+kEusPC6yP4BW4/sLRCCLFvku3zzN6B+04qDQjhlTrY6nWZxKsn7Rbv2i3ftFu/aTL+kWPGY29iXa09/32eX+iHc2YZOFP+gpSa8IWyHMWAVHEhhBRVGv742GiMILIjIYo2OHur+5Xy7aFara3bIUKQbAN6ism7MscIDr48F3CoFl+DZ3aerhO254+o/+/vfcAjizLzjMPgASQ8N4VPMp777qruqode6Z7SA7HLmc0Q44kimY1pChKIe1yFcElQ7ErBkUx1ml3uSt6uzQjcjje9fRMe1e2y/uC995j/+9mXnQWGiYTQFUBqPdHHLxE5kvz7jv3/Mdcc+hSu1WqoydLpZPGpyyZxzoneXzCUsajj3kOkuAcdegJn0Kcluj/oZjnCzKs/4XN9u6OMnu3OMve1ftu6/vZHhVhE6pghv3KBiThB4+kKSo40tpvR650uD68UfqQDFGgExL0A11J4RgrvC59QGcmolmFCbGLyzCQghaBDIVxOkI2UJFrfesL7Z28sL2t19nNkn3XVy0CokgM1V1DdlgRxZHvXbPDt3usRAqXC1ksRBT5YRv6zees97ktzrPAI4UkXovKeUmA2ZEjFS2WZ1fcP2olMvjpTiYsfWDM8tTZt5xqsi0v37QtVzutRB3adXiOSPQzEgbLs0AS6uRT6uxDR6rtys5yu7qp2K6sy7HWokwbzgnbMB6lTifSwGtEeBzg4SIsq1YwOWkF0pUCGf0sOQgZkkyiBTkXW+/02LZrnTr2WhVvQGc8WbhPWAQUTYwgIgwi0sGafKcrl8sl0qEbijhaRCjoSLMEBwPjuyoMcEAUiaGqW0TxdqMdfvG6Hb7ZZaXtg5bTIrIQYZCrnBPZaTby707awH+zd9oTfVXyQ8nLkrOSALNAnbxWEdueax22550m290zbNl9I5bZOyzRUcSdpXuSqXNILaXGksNSiAKC8EcIA7IoCNtgro5ZupeKKsYL0m38WJ2NP1FvZwsyp0mfSDHAQ4RuXNHouG2VfmyBFHQslZNRIL0pkN4UKKJwqUhkRA5H9G0OSyEKIgsvRBsZqTbk05olWda0sdheq8q11zLT7DV9CQ7FqlnzLSCKxFAlQ3XonUY7RKrjZreViiDyIIrmPlcInRNSlrFfOmzDP/+4290OgSReknxfcloSIIJ0qWSJOnDJ0JiViIjr5fltOd1kW1+5ZVvU6TPU4cP9I5auDn/PCKWlEEMi8OThog4Zhcfr7PLn99iZXRV2WkQC6WMEvBA9Bri/SIEcFEEUKYIoGhp3Dt0GkcT6xl7b0D1sRdKZXOlOro7zOnTLBVJR0YcO+WHr3lJiZ+oK7LQijDNyHO8o+uiSLpGKRrAJ1DX8FskrCgFRJIZKeSSH3m2ygz+8aQdvdFkZRNEskULmRc+ZFeTDv7DHxn71mekCKCTxPcl3JRS2AwhSx6KuYTt4pd0OvnrbDl7tsEpFCzmk+FoHLGdswlKoNXCcSQwPkij8EYNQlGkDZdnWW5ptPR/bal1Pb7TXZQRe1ymkF69xboD7CorNe0UIe9QP98hxqxch5IsY8uXY5es10pUh6Uwqx+h77itmEoWcivHcdOvNiUp5tt1al2sXEJHGRZ0PWfREpZ/3rCSk/Nqv/Vr0YYA4kMtoCRmsiqY+K5MyZg6MOe82jJcbPWdWyKjYhkKzA9WWHE51hTUKojclFLmaJI8qMO5FE5NWOTxuGzoHbfeFNjvy8i079OULduitRqu73WOFnUOR1JIijZA6uyMJ9cR7JPJx9x/++/gNkmQiG4jsZpcVf/uaVVA8r8m3kKILiu4ZkiwJ9xxvMSh8Lw9y1fZlchpqpBdbpR8HbnXbwYvtdkAR6Oa2AStTVFEwMGrZIoqwdIa0JMXsBwX0cVr03SmKkDNFZgXSFYZr51MzGZ2wHP22XDmShanJlifCQFfQGewJv3dFpKYCokgMObq55dxokUVZ/6iIYtSRRAYpkeg5c6Is05Ieq7XkvAynALckkMR1yaNMFCEZ2m0ig8devWUf/tpl+9Art2z3mWaru9tjBepIITq4J4IHSQjxQp3bwRNI15ClnW620qlJ21CWYxvkGDDQgc2qOiUUvwMsEeqH9ep/e5v77OTVTntW0f3eO922UdFEhRw3jC+j4khJ0ddWnM7o94fkZOaI4Cp0DRvlIFXLhlRmhKxc+sL8jMzIma7oTVrqoSIgisTAOP2ytkErbR+wkj4KYoooIAl5Cv7GzgqMicLgpOe3WFJptlNeognSEhBFo+RRAt5SvjpyydiEVTf22oF3Gu3IVy7ZY1+9aHvkEZZS95EnmEqayRtgJPL2lYUZvy9JBiyszp//w1tWcbrJCjcV23hxluvwpBUgDJ/+4HGA+EA9iiiiWFKuNt4lHTlwtcMOnWuxA2rvys5hKyKCUNRP9MB8iRVJEgAio6hO1IPTqd+dR5TRPuii6/y8sIVSkl36ykeh6AzX8lCii4AoEgNEUdoxaMUihkIpKyMnMkQAWaRGoufMCohiSGbhWK3ZRvyFSDQBUSCPFFGoA5eLZDc399r+99rs+Klm2yvZdKnN1omEidpcB48xvqsG3GddX1K0jkLnnpThGshNtzGRRVJykhtlQ0oKkoA8AsQB6UGh2nO9+txuOWmPNfXaPoa43u21OhnXEuoQ0wSxynQG6DcnD49bpq4vX/alcFTXUphpodQUp0OQJDqj01xE+sDJIiCKxEDUUMgQO4W3eczy1Y3NVNiYLWWddx4FyotU5FjSEw1OkYkkkEeFKLhmJHlUUYS8qB1nWuzgt67Y4/II6xRFlDEoQMTLbGuX/1+lHd79dsiOWgq1qXCqjSvyDE1OWmZxpv5NcR0ekqCAyeMAswOHgdoObVehNtymKGLv5XZ7TASxQVFEVceQFftU02olCSDHIiSiCMue5PSNKHLS9eiYVpBhmdIfv0QIKSii0gc+KiogisTADcuTUlIgy9CNhSiypKwMj5131JNHWLf7uc1uco4niUeBKFByOj3eUUhtV9vUZ1vONtv2F6/ZDnX+PFJ3MgTp0WhizQDDJT1Jkxecf7XTKnSdGfUFNqLOD0lQm8I7XJXG7T4DPWDiXKYaMUcedk33kG1r7LUdIopdiuCLFJXmUKimFhF5y+qFr3NFwcoCqaSjbvVYRW7Y8vPDLgJlsi4T9h74sjEBUSSGdN3QTCkvoyhC8owpYue09Vs+I3Oi58wLRiPvrzSrzHukiIKF1sgvM869XNHXVnX27W822rYf3LBN1HgUnaWtNZIARBWQoAxc/uUOK1MbpDKbuzLXBkUWAzqFtAKGTpoR1CxikCqdYVZ12ZhIQt71ltZ+N+hhq9pxM563+l/6WiCJKKAKJ1HngpR2PvWLlj7LLsq0EUUXpJ3QGRdlScADiS4CokgM3KDUFJmz5CQbk5ISUeQ19VsxBdjIKfOjd9Rskyhlf/X0iCcEz3LNepUQhNppx81uO/babXvhlZv2+Jt3bdt7rVa5UMpuDSJJkVO22qIqK9W2l+dYuZ4jUsUIsAZYAEHGMmdkwrZ1Dtrha1327NUOe0ze9RZFn+sgCYxp9NQ1hxnRhYtKFU1ljE9YeWm2bZbtWaenSYNT6GaB0fuOpGDCXUKgEImSMiInR0y/51SzHf72FTv8pfNuvfq48HSd2X/5tJuR7SfcsewDnoGXhz5uehlAdOBEnl/D9U576vvX7ck/eseeau530YV0TyH2EqIIdZgPKC/P5afbVE2uTVXn2XhFrpMxGeTxQnUt9cEpGZ+pziH1MPlmHYNm8tqSZICSG/stJO81hcl8iBwBN7FvKb9xJvwaUkhask386kl7+VO77UW9hLB4XKwePGqdk4Jtmi46VdHlOt2nJ6522ok379gJ3Z8yTtBrzoyiOxwThYzwB9o0LUU6E3bLtEyxLEtuhiTNxnLDNp4tXRoctan+MbPBETNFNtavO9M/IsIfdaQf0m9FV1LcMfpY+n2Pziz29wLptFsShMUIK6THn99nb6eHnN1AsCPgvupKQBSJgYgC74+Ca1hGZv+ZZjv+9ct2/M9P2RF3RhwolcH6/s/Zuxmp08uMn5Mwxt4vQb7ax9rTSbLVRizGli0PsOFCmx39wQ078ldn7Wh7dAFFyALh8WIQSxQ/st7sqQYbP1Zvo5X500shsMTzXQmpPaI2crteIGPupyMzSZ4IrYRJc6careSHNy3vUkdkeZaFFnxMBPxmBIPF8en1dv7nD7vlP87o5QsSv7ggv500w6MCVmitH47sAVHfNWQNrf22nqL19S5bLwN9z9IbSyWKYvXBbSVmW8psojbf9TcGF3Bk2ZU7EvSGI7pCShCZqTOZQ2NWLDtQdKvbivVbC3uGraBbot/vli/3WApRRHVlUh/gjicb7B0JJIGj+ZLE/z7kvhj0gCgSh1eSZHkVh8622NNfuWhPy1M+5l6NYj4DKA/G/uhTdu1IjV3Vv1ckHElBIdQsGNmwmsH8h9LRcStTRyqTx97wXqvtevW27fr6JdulTkTYvChgXDluVDc8VmtTj9fb+KEaG8+RJ6inGRXil/7myD4frL2EvCeJNQicjwfrCuwSUkDsXCbKiexgdrXDyt+6beVyBIrfbLSU0Wi0IfLj/k9jKWS3o8wat5banV9+3O5W5rm5NfxOL+2SRwUpIonHRQ6PXemwx6912lZmMstjz5JHn0lNMHpewvDkIG/ctkMOpfLMFWnqKa8zFIm90P9Yew05JfG64gmD3wFZcIQM2CGxDtHvr2nqtaoL7VZ9qslthsWy9vcsVw5h6Md8QF8SIZKd5XbqeJ29VJVnP9C/LCrKb/TC71x2BESROLihTuQpHz4voviHi/bMH75tx92rUSxkPP75Iev810+66IFIAo+XyOKt6BGPcjWDGeu7mvtspyKJXZfareFmt5UxBFaPIQ8M9KKwp8ymPrvHpj4l0b90DIjWky3eoI8YENrWbx6D0fXGAcE7nCZ9CVEDHd8Lizwyko1j4e1uq//2Fav741NWL8+R5Rem97ZY6F7PBza0cutEZVnvf/iQtZZkT69Ci+DVPipgAtpJGdoT51rthPRkuyK8NBFzKoKRjZ6XMHZKZ06K/iEKAWOPrngnjb4HWXhDy2g0H9UhXle8xOqMmzgaI15fckVseazgcKPLyuUYlUmK1SdyGKklB9NNCtR500iEKHQdTSKJG4er7ca6XFfrxCHiWjiyhPmyIyCKJUCKDVE88+WL9uwfvGVPRJ92WMh4VObYxNf/sU3mhJ3yoZzflnwnesSzXLWQRuW39NkziiCe+YtT7oiHPo1EDGtsBPG5vWafFEGEQ9OdlnajzXy7EZEtF/AafcQBceAIHH/nrh37f1+3uhdvRuoZI+P3erpLIY2jVdbzh5+2b6WF7Fv6F8G75frXcielvZBUOV7P3Oq2p99ptGfOtdhO9+oi4COIGpntJ0UQmyITXNEXnseBQF9I3XAk2vSvcVwuQCQ7RBg71Bd2XO9yy3SUt0laRCBESZykL3X6kghRUK9gkUFqFj+520bWF03XKxDS2MuOYNTTEiAlqGobsAaFyg2nm61WCvr+jY8e58KQ/JSyLEvavc79i0cTOwpqNY5+YdgwnnapjGdNY69tu9xhm862Wh15/ug5Dgu1TSzq1Nm/eMTs158zO1gjq53sSJTVdsnPflXyioSNn6hB4BEuF/iN+qnTpETNo70i1649v9Wu/cgGa89Ls9HbvRamkycn09dddLFoz1eGciov3SalE/i+lZJqCcOuIS3qFXjDawlliha2DMjh6hi0Z+702GO3e2xHU59Vz6xJJIKiDLMXNtvkR7baZFGmazMiM1JJFH7/QULKhpoQC3OyDDz3+X6AmfgDuWFrK8+xxvwMa8sLW0dBhnXnh60nI82GUbLhcTdfJO4+ET0xSUqZLAKyPevsVmrK9AKjRNVxf1a8CIhiCdDNrWyJEsWpKFFwh7jp8dz4MzJtn9hpSRmp9xAFXuRqJIo8dfpSRVlV3cNWf7PbNl3tsNpLbVY5c3mTeDvFJ7eZ/S8fNTtW7yYo6m0OdHhI4kuSv5V4kqD2sJzg+yAIDI0jCQn3hpFJ1wozbfRIrWUUhq3szbsWgiwgCTkPGPVFgVFWp1ssJy3J1u2ptK16StToiAeSIEXC71gzkFPRIN1gS9JnX7ltH5W+7JCDweJ4eXptUTWJZzaYfXavTYnQ/b0jdcQgAUji7yV/JiGKoFB9P0kCcN/QmxuKAm7kpFuH9KYrnGq96vPstW3qM2GK39Kf+B0M9R79aFfzUFSbJAK6WZl7D1EsOwKiWAJEDOW9w1bZ3OeWHS9OS3F76U5xA8lfR0+bFZDKiNS4IN1sf5WN6H+MkJdVRxRS+BqF1tuudtqBN+/YkbMttuliu1UzEVGecjrk4CX6lllB+9E2/2iX2f/8gsKUNFdnIP+KgaazU7yjyEg70QkxCPezs3vwHd7w+Aijc0up3TheZ816YkCdPYUZ+s5hiMpC1xsLXbsji7cbLbSp2NLrC12EBAli1DAEa40oKqUbG5v63Ta2WyheKxpldr5bMTh62oJQO7ORlH12l00dqnH3hv5zScJ+IKSX0BuiUF/H4j5y3oMAesN3IRP6nYMijE45PkMpSc5OhHXd2XqeTbAmPAnE6pAQ+fs++N9J9PWxzFRLV/RUosds7UoUStoU52lZitsBUSwBukklw2NWoaiC1WQLdLMp+SSTtx6NLAg3J7wS3Oi0JIXIw1lpq5sopOxb5Bke+uYVO/mnp+yEiKL6dneEJBLs9PaFvWb/43PRJyJG8k0J+VeiCEgCzwkCwWg/DBABMhABw/N2UZZ1bi6ylGtdVnim2UUB00iEKABtJf1JvdNpaT+23QZCyW45ekiCaJPvXTMQKVYpetgkct0sothE8dqRRCSKirvdSDV9fp9NbSh2xhjDTEGXrYa/IflLCQMDaD9qWg+KIGYCcsJwd0nHGxVVDKUmW7ocLIaPF0Y7CItJMm9npu2Yry3cLO5b3VZekGGbRBaM2mO2P04GxXhG/y0ZAVEsDWF5Bsli8+HKPOvWTRpkwTcpPxuUzDsEFIOIEWEiT16qjcgT8qknjqtheCzKi0LjuaQNjNlGRQ+bTzfZ5rfuWh3GDrIkJZOIsfxXj9vUv37SeUEYRZScPDKpA4p0pAxoG+8pYRQeBvheSAoPnw6ZlJ1uE/vXWX9xtrUpEujIC9sI19+3wIZWsfA6gTT2W1J1jg3vKHfpEb4HW0IKj0mffP9qJA30AH3hGsJjk1bXM+wW99sg3anTRcUSxLw6o7Zyked6+c4/td9GS7IdoaIf1KyIIIgmSEtCsqSAfCT4MMF9c1Eptzoj1cZzwtZdkmWNpKRkS8bGJyyd+kz04hdsC9oA5wKSbey1jINVeirJEQR1GdpkWXbLC4hiaWDGZL+MQktFjt3KlbGQN5DR3G9Fd3vdSJk5wQ0GGAUZ1ZGnNtj1zDRHEij2aiAKcvHMomWPa/axZnIU8yUaLrZbBdcVOS1yjdGH8+J3nlenP+g6EsYXksBIQhR++B/Cayuh08cC0uqWl3hrT4W9lx92DkNK64AVLqQHsfA64SEve+Lp9TaZG3aGleGXOB8YU9pgNdax0Bm30J90JntkwmrlUK1v6bf6xj5XuI/FvDpDW4mYXT0iLeR0hWHlRJ3UrRgxhnNBZEFbrURA/h1pKXYjL8NOy9EYlC1JGxi1IukNc3q8OnCYsy04KZrqTpGzlpqTbqOVudO7Z+J4BkSxAjCl+zSWnOzCyAF5SEWdQ1Z+rdOqbnS5XarmRKxRGJuy8YZ8691c6rxEDAG75SGcxXPqWysOjHCq6R12i7Xtu9Rhe8+12ObzbVZzp8cKIAcv0fNnha9J/NmnzZ7d7J6i0+MJMeEMr5C5Jd4zJL+8kgjCg/vDfRrQtfTKaWB/EsbL5w6NWzgcckMZp6g/zJeGi22zaLtNyf1OPlrnCALC4Tnah7QbXuNqQ7baoFKO0UYZxJ3tA7a7qc82iyhq9Jj8OtfnZV48VmuDP77NpZKYI4NukJJkoANRBd60dyhWKtBjHIwhXWx/KNmyRJ5EjCwwHZLTOKS+MUkqinQcb5gDrr2czki3ekZsZH+lNeu99BWcCb7Hv3/R7REQxdKg+2MTulMjujFj8pAq2was+mKb218BxZ8TsUQB5JFP7SizTIWgvA+jQIiO8cEo4GWvKOjC14kg9pxutuN//5698Npt23m2xWpv9bhdxvCA4wLt8Js/YvbcFvcv7Yly+8L1lyXkmvGMqAms1GIuv9unopA8eXU5MoLZ6uRpciLED5Y0OOYmkMU9KgpiOdtqYTkReRuK3aKTGBbagQI3XuOqgtqgcGjMtquPHLzUbk9d77Ldjb1W1zFoJXp+wa2EPWoUW31mj2sH6lfUiXAqiCAgDKIIyHRVQfaDgnYaRe3MVBtJD0XSjdECf9zpS+naaFmWdRZluUjCO56Ir5EsCgFRLB0YCeflsk5Ns8Lo863WoIiiBCPoBUPBOR7874XXxyctqa3PwsfqLC+U4kiCvCokgVHAQKwoyACW61q3iSh2f/WSHbjZbcUyADkyhumJDBH9xSM29U+POO+HTk6HJ4J4XQJZUJfAY1y20Rv3EV4P6JAsJT6xodD65Rn2ZKfbmNorVe2TC1lwcpxIos5xo8PSPrzFMjJS3Sgvv9c67bWqII+3UNe/WXqz81Kb7VcksY6hsMMiiVkKuLNC0Zn91D43Gg6SICVJFMGIJgaB0FeIMlaqQzEf2M1uPC1FOpNqvSIMhlpnqn0KWcYk1pYI99iSWMh2TPSP2vjmEgtJB5m/RDTK+URYtA16mjDmDIMDLAruJpBOcf/FCRmR5FYZ2W9ctbJf/ZrV63/Wj8GDZFmJFXmP9BsZnZGqjp8BQbB+U6Ie849uMvuXJ5xhJWJgbsQfSn5X8nUJpLHqPEMBsmDOw1siiH84WW9/+1itvaJo8XpeeHEe3TnRw9+RUIlgTiOxCpCsKCldHnJ217BbQC9POpM5czmL+fCpnWbFkVk5RJ6QA44F0SctRLsv2mt+yOB6bsgZeKcgw35QkmXnijKtUcSY0PWIdMONfValCJ/VrBk7+JRkh4TVdxdtSwKiWEaQi5YM54dtgDV8MAzhVBtbiDgmpyxJNzgVY/s371neX757z/oxCIRB+Bm3Eb5PwEihM2w56YiC0U0QhI4hSIJrcWfOA3lOE4fW2dhvfMh5OZABUQOdPtY7JLWw0qOIuUA0SJR0Q9d6qb7AbtTk2936QmutzrMuGQEijdF49MLLP1xw7YpBJUXDmkKMlWf28krQi3jgdEdRBXqCvqSPTLjoM645E/Kkp57fbJMs6Kd/SfNhQDGu1GogCKJv2n3FpWnjBFEQixK2KZpoTA9Zh2xJnyIM9MStHIu4M+cBNQ1GTX3ripW1D7jFChmuTTobel2wb86FgCiWD1MihZGcdOutzLW29TIKFTnWI9IYIu8YPScu/OU5S73S7siBgjhLOeANYBzizlXeJ6AvbkisOrcb805kgSFzr8aJ3DSb+NWnbVieE3lUwmE6CI/p/JAHBEGHTygyW6GYyE23vg1F1qKo4sbOcrst0ugoCNtgIpHnazKF55unRz9VSFg/i9Ex6EUi6awHDUcQiEgihYIrz+nCE9KZ/ZU2dazO9SNIAv3guFZ05ANITxE5sA9FUnRdp2SbgCyjL88LiBf5/g3XV3EiXJvz2mIR1CiWD8nq+LnyAshPM6RxNCvNxiZlSLuHLGtYnnf0vA+AThMr2ek2Ii99ZGORQol050FCENxoilPLMtxtEUDpctXRi0Yn3N7PG1mm40K7NZxvtSp5hm5jeyRy+vvAIPr8KvLvTlrPs5tcPpmUEykm0gbkm8m/MzRYH7NmENI1h+VAEEkN52fYsLzEKbzppsg+665GhczWdrGozbOhA9XOSNL50QuIA+NJVLYSUy4YqGzpTIF+ZKmumX0mtrb02/rGPquRHsUOepjz2nnhp/bZkLxsogaK1egJ9St0hnoN0dtaAjakTDajSJEXdYYU6Qz3nY2+2CKWdp0LNJfrh429lnS0xtqld/QzonSOi4q4AqJYPmDcxjNSrbs40+5U51ljTtgm1Bkyb3VbSe9I/KM6RC7JHYOWfbHNyndV2AYZGVIM3GA87/uyjHAcoChWq+vYeqPL9l1osz0iiE06umU65ksfYAQ9GuQP/9qP2E0pPuPe/cJ+LNBGhye6WK3pprmAXgyp43eUZdvNokzrSQu59ECe7u866lOR0xYmijs9lvLCFsuRA0KESR0LwsB5IE1HGmalAaNWPTRum3uHbV9rv+1nscjmPqttH7QS0k7R88Cc135SsdO2UkcGFyXM0kdvGOzAvBr6AymntQR0gsELU+onLPnRzygotWWof9RyiOQjpy2M2nxrK8l2BOEloeyGR0AUyws6bY8YvEU3uV89P0+ed+mFVquRJ3XPyIX5jAIjXSCKyx1W9MoNq/zodqcwTD7Do2LkC4rC+zFCyINAtjr2hsvttuPtRjt4qsk263Elu3opYsqcL/0USxRfPGJTh2ucd0NH97NoyTNDgqtxtMpCoGO6fHpKsjWrwyvMtGIZy8p3G62eIbBeFxYiChmJ1Kpcy969zhRrusEOtBn1HYbKrkSvOl3X1yDd3y492S+HaaeiiepOkYSuhaHDEB3X/IHrls64KFT9iKGwrBqMjhBFULx+SeIjCSLsRc8PWKGgPZKlLwyT7WW5D7VFSBFZTueQlVD8p22i/eoDbRcLRbBdG4pc9E77YTt8Kgq7ETdpzBfCBEgcNDyePwXsUd3oMXKM1ChIvySSkwYY3/PtlvQHb1qmOhVeJHlpRjBQpKJ+8SBrFqGhMcttHbCKM822/nSz1V3vshIRWtZ8JBGLnSXTGw55ob0Q//9ahrtG6YIrSkoXnE5gEOPVC9r5K++5Pktnx1ngMRJX+z8EsLREzsCYlYkY19/udtublrN5z3wRaCyeqJWSR/xnIk0/ZJwogiMksRadC2wIEeJtkcS5vLCdK8iwW4osuqhXoD/urDig6J+hx9iOTZJDkm0S6p4Jbe8bEMXyghvoyEKdfzQz1QbF6D3V+dZRlWddhZk2oOcWVGwMQqx886rlfOOim9HKTT4oYQ4zhcy401nLANIlWfIGCxXpVLBTHTl2PRcXWWEMf3K3TWWlRQym5FEiiWkwQ1ttQYFyQt7iOCPAvCMRPWVevNpoSYoyPVmsZJIASXJwMgZHraB9wMqlLxWKLgqYXBcPUeSkmR1vmNYVP9KJyJoUJUcGPiwq577CwTVDiu26ubfTUuymIqu2jJD1uxVmhXjJguHHjb1u8ANTWg9LAqJYYRiVF9C0scjOv7DZfvBjW+31I9V2pa7AOuI1Ch6NfZb/f79pG3/vDTvaMWAv6CnIghz1ojd3SRT84An9gbimYkgs8urC2FdmU5/cEyHRqCTUBmsFiiDYTGecEXKFGTaQm27DMgBjkEX0lAVx/v3FO3z7r1Sy8IMbpgdq8CT6w3EhnGxwBIquQBJrepTTfIimmDj6CJQRUXG1AzvpXWx1xLBd8rhkl4QhswnZjoAo7h9GqFXUFth7e9fZy0dr7Y3dFXalMs86ozd7WqLnzwmF6znvNln1f3jJdv3cX9vjd3psr54mlPRrz3PTGUFy/wyGfiUdnM7uScITRvSMOYER/PhOG5MXjQeIp4RnSD3HeUePGMbzwjYokuiuK7S2dTnWrahzELKIvj4nfLufaYoY38izKx/ojNMdJM7fHQ7ZxJGaSG1HAjVSj6Amgw4t2GfWEmgw9R2ueZok9Fxc8yrYPe+Nu24eBcuP75FslJCNiExbjBMBUdw/kGJqk8Jfrcixt+sL7KyiiVslWdYTDznMhVNtlvLr37aay212VP9+XPIZyQnJBskDSUX5Th/9d0Fkp9nIoVo3MocCJENh/WiVhzXU92FiID1kt/dU2GlFmS8+vcHe1eObJdkulRIX3qY0uXrg9ASCcBInWewocyTBKCf2Qv8DyV9IfihhaGzc0dcaAYNZXHRFjQLxhBF9fU7Q1oNjlny109l60pVzDiCYDwFR3D8QKpNLZT/bc/IgL5Tn2N3iTOtJTU4sL+09SYThlO80WeUvftn2/905e0Ed72M65TEJhW4/+zIhJYgHcf3QObC3zEYbCiNbQkqYfc3uY5i7R5IoJHcrcu3svnX2kuTU5hK7VZplvehDrERO/yBuyq++iWatXKB/jOZyE+wQ6S7HuPVyU7EjCkbHQQ5/Jfk7CUNjWePpUSQKSGJUTsawhGwFA2biagfI4pIcTD1c9ACIgCgeEFisKy3ZzdweEGH0FmXaAJ42xczoKXEBshgctbT2Qcv+rR9Y0e+/YaUKLxkBhTBskpm7zHm4b7N1+Q2xx4UQTSFADAxvZGN75lBAGqth343lBim3zvQUu12YaRfKcuxWWba1Z6e7lErcOBeZTeMM8gxJyADcB5ACzZNxKpVTwwCMIuknQ2FDGCwkctr8UPStU52zRXtBrkwqfFTTlWOyE53Sl9tyuN6rzbdrJVnWmpXm2iUuXFji4OmAKB4QGK0gchjOC1vfuly33k+fSGNYBoMwMi5PEmCc+0ctnbrFzW4r/JMzVvKNS1baN+LG1SPULBjRcF+IwnuF85HEzOvZX+2MIOvxsK8Ee16zntMjTRRJSXYnHLKLijRvSS86ctIcmcaNM5GCtieKRacU7gMYBZc3PmnlIomqwTG3hHjO2ISbfPd+rWKG/ri8e1TW57vRcXjLEAW642eek859FImC6+4qFlFU5toFybXiLGvJSnX7n0y3GxI5/YOQY8mCgYtGQBQPDh1FWfbucxvty//2hP3nnz1k//WFLfbWhiI3YWrRYLLbl87bpt9/05463WSfU+f8pJ4mFcXIBozHcmHaG4w3kgCp0rC9la7T08FRVTo+xhIj8KilEACdGaE9xtW5GUod9ygWj7OROgX9l3QCTgGePMvE8NzDJItSkcDu5j77kYtt9olL7Xbsdo9tYIJd9PUFsWnenVweSdBfWjNT7XJ5jr1RmWdnSrPsdm56Yo5WB3S7SARE8eBAMfdUbti+vL3M/vOxOvuvR2vsrbrCpREFE96+f8M2/a+v2lOf/nP7/L//jn3iZpcdVWdla8nlMBq8P0ISs3iCC+FEnYumvHeIZ4TSc3xUiQJ44iSadIVJIi/3Spx444NEgUAUy+kcLAalih52nWm2575xxT75+m07frXDNrKiafT1BbHxfaLwbZJQ26xB4Fy1pCTbpZx0e1MR6FlFFLeyEyQK3YNFIyCKBweU3XvVI+GQDWWkumGSfYksST4TePcs761IIkTt4o27tu733rZDX71oH+8YsF/SKZ+QMCOT2ZmJguJ48cSU1QyNWV3XsJX1DFsOS4zwvbESOf2DEBnGXg+Pl9rpWZiwemLSdoxP2kF9NxOIaiXUZ/BaSX1E5vIuDRX6jgO67o/2DtvPyCP+Z2rnn9XzPyf5rISRZgw5vL/DkufBgO63Dhhgrh3zygJyXP/9JguuF9vB95DqZIz+0xLa5cN9o25dp0om1klX0lj6Wjd9wTaCMHPTbFxes3cocCYexVTTTOBY0B5MuOtUlM4yQeyxTfvEjShRLEpXA6J4SBBJjJdluZpFf1m29RZk2GBWqlv2Y0le9tVOK/nbs3boN75rn/rEn9q/+fN37TMydAylZXZmIkChIIoSERDbVa5n+YXOIcuFmNwZCwDSK3p/tPZSCcJBxJAn48PihLvbBuyojjuHx61ez1OfwWgyRBjPeknGW9/BtrZHTzXZJ//+gn3xb8/ZL/7ZKfulvz5r/6J7yH5ap2AYGZPuiWJJ35coIGd1fL47lihYjZbrv9/9mmt1RKHfQQ1ip3TjuQut9oV3Gu2Fl2/avuZ+q2DRP0hC58T1eyCK/IzpyBPBqaI/LIvurGJ4oqB43SMb0cecJElCVYf+JUQUwaKADw+p6hSjtfnWWV9ojetyrVfkMSGjninvNZykruglHm/Mg9TQiDx+Ct6sWDs2aUk6ZskTKctMtWopWak6JF4nHRJFm+uzIYNafffWMy2292yz7TvXahsvtVsVq8XKOM+5bDq/2R8/v9emqnSN+pehjl4wAvEiX559g75vtwzjMRHVYRnwfU19tqul3zbruWpJvbzrjTJItbpGPFyuj86FgfJGaiECzlPb1anttuuz+I4jus69t7pt650eq5GXnKvvye0YspxrnZZRnm2ZuWE30oxoBhLGYGPQ4p4PAfR9dSy7fTGyXDszaKcx332HhD++3XqL5WzoX66Nc/l+53lKEjEirEhar6h0t67zmK7/4MCY7R8cswN6/AGRbh10xxHbr3Y6fLPbDkgvtp9ptoYrnVaoe5Ojz3KbEumz+V1e5gS6Ik95rCbXRreXu2vyOsOgB7Z9jXuEzxrHlMi3Qu1f3zpg66WjrNAQi5ntPN3+xdmWtKXEzUOhXa9L7kZfWxBJU+odAR4KfAEyXZ20+EaXHX/llj3xN+fsuLwyCtHTwHuMPlwQGJDoQweWiGB0FVKTb+0yLi/vWWevyMC8rHNZdZTQHkMzM8SHCI7Lsz72H1+y4z+8aVtlKMOIiCc8X1ThfwPHr/+0TW0ocRvgfytG4jamuvYN3YqIZKyPvNdqR2W8smSEwiKOMGkNRpOJ/CY4Mk/lQKW9JeJlhVGG4DJ3gxKeH145J/SD60XSB+QJH7jWYft7hq1I15mv786XQXSFWJ3j7gMTnjJCNvL5fTai78SosRLuS1F5TRI39Nkn3m2yZ//uPXvm/zvjUoTTmO++6zdM/sEn7M6xetfZEQwqo8rY34Mjs5jjgr6nSvf1MbXxY2rjx0QWeXouWXrpNxq6B74dcEogA+4DAjnwGu/lNY7uDXFARDHF2miHKm3w2U3uXnFNzKFglBzHlbg67kOB2vpAc589c7bFnlW/fDL6tAPtHn34AWxVzPm5fW61ZvogExnRVfqqlzkRRBQPDxhmPGt2OhtRNJGnjkb+PyskE6xOM5ac7Da4iWurSA86aqzo80IYd3niWR2D8hyn3HLFjGsvkbFt0HduV2ffLvUiz8zKtDv1vp06sibM0a5B2/1f3rLNl9rcqp/hIUUSeu/00tizAe8QkqDz/4tjbuc/7x3ixSQUUej3luv3b7nbazvlce/tGrJCGfBcNpwfGrNMRN5VlrxchmCm65rSKnIsR9+Jt08qBsLDy57XcE5OWrk+Y4u84Z0ylvvUXsVEEexBzLLOUePnJ4+lqA3TFVlkHq1xdQGKigz/xVvD+40b+mwiioaLbbb+Qputi23X+dqY9n28xia2lrlzcDrQEa6RQRMMnp1vuC3XU6nv3iLi3d856JaFOXy9y3Zf7bTN7BUhgiwQWTqi7BmxvFhR+3shysrhHkjPWFKcNFNkkt08v302oDNMJNtUZCPV+e5+sXQH7YkzgyxhzM7agtp5nXS1Ic6IYhrp6gmHqlyb+iiNIRFx3aeAKFYGQqkplpsXtvC4PAKRxHhayCbx1tjHQse4agKzgQ4I6LgyDCkyArkySLVv37WdL9+0Iy/esKPfvWZHv3PVjn7jsj3+3av2+Ou37JiI4XHJ3rfuWsM3rlihDEo6xhLxn+c+eBbwndGOb79y3HkqEIUnCY5xE4W+r1SksKGt3zbIkG2MGm2M0fRwXQ8RWAhvWGRRtanYtuopiIIUG/OYMeRzQp9Zps63SUSx5XKHbcP4iXhSMX4zv8e3qdrEZNhM9w3v118bHfCe8+eD7m2dvMOGS9HUE5/tv2++Nga7ytTxaxwRUpfgXCIopuIxe3k+w5opwt+r7z15ptl+QhHssyK97U39VinSZd+RUNTYx+OgxH2t84HrTkux0e1lNlKWM03sEATXstD1PFJYLFGA43WuTdFRCCMydi6CeVOzcXuqAe4rMGZtuWG7eLLBXn1Ssm+dXazLt7aZE/Iip8cPGcDpkUlEAkzUY4nwV29bw4vXbfP3rtkWEcVWEcU25CsXbdufn7Gtv/2Kbfn171rN77xiRfIsWdM+GfGfFf34OaGOP1Wb65QvVuIBn01um7Qce11AlGGJM9r636U1ZjOikEjvsOWea3EjvKgdrJMUSOZaAwv9h4SZDMYe4EjqqKISPms2kgDu+6MiT5zXpz9HgnfP7+f/BduJN+okt8AbAxlot3jvc0vfNEkQ1UCKDB2YaxQW52brgwt1XeUiuer2AWsQ+W5WFLGBJcB1n5ko5yLY6XZeQCIfvXzISnVNEisBlgnRYjb3jHb1+ur1dN57GdyIlQEKj3iC58Ihe3FHuX3/sRo7V1dgzYsZMhsvMPiQhwxjiJQSQqpLHjnGMjSq1+RVL0pH+M0V2Y4cSLFBhPGSBd+HscvW7yuQ4crXb8iEKNyrcUBRRWyudq4OwPN0Egx7WA1MxORG6fBivJBxBfxmfh+/G8PN0Rdy5wXEoLMcSSDUHtxzcUCkz/e63y/he3k8F0GxB0Sh7nfVyLg1KHKALPLUtmnO6MfxW+83IKdwmrsm2s6TLf8/9N+2FoBSyQGiLWlT2ja2jefFgicEeCDgHhJak6JplJG9Wl9oZz+xw17/6X324ke32VtHqu1aZe7S9kWGGGaKDLCLFGQwUrz45xB/XvQj4gIkgdEbnXAkAQlCFDzmOhcygnwXBo/tVXP1G7L1m4ho4iYKNrwhlRHFfN/nOwwRBemWFJ294LViyL3khT/w+bHvj6fdppeMDkVnaNN+s0n0/GmkhtzvR7xh9R3/AwZW10YNp7J/1LZ2DNpeRRPru4as1Bego6c9VEBYus/egHlvN7BRywvutdf7WD2ZVweCm7Ay0S3DcLo63778Tw7Y//FPD9qfv7DFXtlW5nLhqwIYva6R6SG4niziiShQWAwFXjJpJ4RCKc/FhfJcZ1S9zAXfOVyn0YlIwkVYkTeIjZy4Vh7z3Hzf7yDjyBc6YnWEoMezkcJsKInMUYm9DiSWMPjfXY/aL18RRH1Lv+273G7HbnbZdj1epyhyrrTcA4ccg+TBEfe7IYkPXEOApUHRKkOQZ+pLXO3LSQFWHkhouEX00kL2w80l9uaxWntva4ndZt4FM7kZ9poecoZpRQJj1zlsUxOT0yknjF9cBtAjqtHufdFjXKj64GIRc73X/6bY35gQKiJE4T/DE4UnxQU/L+EvjIIoryhzutMj9GWMK9EYxt+nwDC61BOyhsetuHPQau702HpIgpFL1GPw5GNF5z8UqC2Y8wM5cB1BRLHMkM1YNIKbsDKBkcErZXTQsIxuT12htXx2j9388S12eXup3WUP7sw49t9+WPApq84h19kT8QyxnRjbIXnZzEAdSE2xYT2OixTDMjH7q6a/Z+YxFnyPT42N6HtG1c4s0kfbx4VDVbJmXNn7n+U/L+6IQm3kDCS1Itdmeswx+vK8KGAx+ffBe1zKTgJ9QZd+ufmQrothzekjiiAY0cXwXkVqbulvvb4iAEn1vU8UQUSxzMiOEAU6iaCfXhZEQBQrF9xAb3jcmHJFEue++Li99sWj9t7eCrtTkWM97GmRkerWq2cVUhRgRWB8KlL36By4p9PH0+G5bgiQmg2z1d1yBSky4ry4ED623Q1XBQt9l+8sfO4oRME4/jSRUjjVhhmqqefG9SGztmmxTPALW6Y/wx89QfjnFgSkoBOd0GYYS0cYs0j0LdPgN8SA12lnzAGv+OI2zyWp/aipUDAfD6W4bWkju6Tpd1IXiRWd/1Cga0zuHnE2yZNFvDoTIA5EI4pYXUX343JqAqJYHWASFTNuv5cWsr+Wx/zdf3vSTn1ml93ZXGQ9y7VO1HIBo4aHzCiqtn5nrLzBiqfjo7AQBbOpu2XQ2ORpUEQ4ilHjhNkgo2cf2mi2LbL0Ied5AXO9j+d9hxmW4e2XdOv72vPD1s1MYX0vRH0PyrLMPrc3MkJJ//pON9d3LAy1l0/7yMt3ZBF9ZV7MiCgA7/OG1nvi/C6K5EPSky5dV5McjNu6xjY5Gf0Qhl5fEdAPTRoYdr8bXfH64q8jwBKREyEKr68ukpZ4sphXfwOiWB1g7R4mHbHfNEsavJ4btrc/s89O/fZH7MLP7LcbeyqstTTL+mQIhjLTbPRhRxgQBRFFdKx/IvlmfjPKixITVbCybu/haush3SZl7wuH3IJo0wauUL7zLxwxO17vFJ76DkuEQK7MmOYz5jKGfBdC52E1ztYdZXb9ZL2dqSuwK+ty7C7GFcJQZDPE9x6vs5FfOGqDxVluhBqDC1iehElMfF9Cmw8BfbmLJibkTSdCEiBazI4F1+KJjyPiyaxP19Fck29Xq/PsvMjihsjC7ZLGGkssgaIv5v0PDVx7NKJAApJYZuTirkXuMfoBUSA8Rj/mRTAze3WCm9spIriRn2FX91Za22M1NlCaYVP9YzbBiCPd+aShMUvDCEXe8uAg79UZQL54d7klHax2M6OvS5i9nNASHgLmMCc9ZGl71tnUrnIb3lhkE5W5lrq/0sLPbjB7WiLiBJACs01ZooAI7IyEDfqZhcqs5flAZ2HHsCYZ0Iubiq1lY7H11ubbmB5PHauz/mc22uCWElczYs4Ln/2K5BsSyJttXiGOhPYBH5mwulaW8GBmdotV8ZxPMy10737luLnZ71HwvbTtZQnXzNpIkCZt7QmjX2TXKmJtEvERoaWwZIwIPR2ngi/Td8e1JPhyA2XhS8f15Sfq3UMiSnTG682juL/6rJBTwczs9a0D1pDIzGz1H1uX62Zl49xckeDgoBdq9fmdBIW7874eYOWDmcd+baadfSNWebbJCr52yQpfvWMFA6OWNijCQEbGXTg/jdny3suB2EjmkJTzL/7RBxYF9OsuxaN8LB9OZ2iICsaUTZk4+j02/HVASJ6MEAiCSIwOMe8SHrOAta9oV4TlxH0KDcEIs52rFyKYWC8+bvSO2InTi1gUsDBsU++w28j7gLxY6O070SOE6Y0AR8DnISxyyF4bB0VSBzqGrEbRTMb4hFvXKiORqAboCyLDivU+fU4aOvduk6VRLI+e4jDf54oonC7ohKkv7DdbX+Sux+vLNyX8/6jDtZ/I/WBTnz1zrsWe+cGNexcFnAnfruCn9pnJ6WFRQNqTdo17AcuAKFY/yDxiTNmPAIE42Nw+Xx0271Kr1X7ritW9eMPqLrRZeazxeRBEAd75ol1X5PNdPUQwZKSE4jWsZOJZniI/KlwfwnLijO4hReEFL5QdA1kUjyODADDiSKIeKYsKxrapT4VwJHLh8/134bVzzd4wx43FEsWHNtjU//Xxe74TYqBtPVFgWHl+5u/hM0kFsjR6eVT84okIRMg5se+bz+uEDHgPeojUypDV/+7r1tDY55ZQmUY8RAEUvU19eFNAFDGg3bzusUnZfrXtUyKKp16+6TbQmhOx7frPj+qm5wREESACkjB4jAyPRPaiWJfbbf93r9iWK+2W9HazJY9ORgrO1BFYtoOjzp3TOC2FVP70U3bj8Xr7gR6+JOFIPp+0CBJZgSZ+xBolBOOGseII6UAIXrwnvWKxWKL4747b1M89Np1r5kjE9L2oQMiJbLHrDZEX/veGgSPtOBdZcD9ID0LoHA9IDn/loh1+p9F2SMdSJqYkLFke+dxpxBJHrEFjNNcvH3PE4A3ao04U9E3amVRy2tCo7RNRPHG+xZ549bYdc2fMgdh2/Y1ndXOT7EU99AQcN1EENYq1CTo1BoTiKiNbmkqz7dLhGnvn6Y325qd32Ts/sc1On6y36ztKrask08baBy1NSsX+1q77ykhhMKYxs5MngqocGzla534LSguRYVQw7vzGxWxIw/VBCrwfokH4fL/vBP8nlAJ6WKBGsZiNi/7bozZVne8iM9JgpNdI71GXIeXG/wkX1gXuD+KJIZYcvMwGzoOsaHd+82h2upsU2pGXYb1pKTbOMuQSjF0spq8P3fMY1F3dV2H9GanT9QmOj3KNgj5TJGeukmhNzsWW1n7b1NxvtToSEc4J364Nihn3uwqYq1H41GzcKz0ERLH2QKfFgOKtYzhJjWBEyKW/lpJsp9JDdjY3bO+ty7PGLaU2urPcQgcrLVedM6mhwKby022qVKa8OMM9Zvx10qDMgMjDKR7CQ31eXBgYtclP7nLLVKDwpI/w/jEspIQYPZQIMFaeJEj5eJKAIDj64u2qwGKJ4r9/0iYz06ZJgk5/KXrkf6KJRAYMeNC2c8lc4DXuJd/n2x8j356Tbq3StQlFDmkybtTL3AZQMYi9Ph5Py7pcG6jInSYJjo8yUbCKciVLsPQOu/1CNrYNWG37gJWzP0v0nFnhieJwtVktCdSAKALECd+xMbBsmtQp7++2vNP3tpXZm/L8X3thq7368Z32+id3W5Nk6GM7LK1nwLLOxCQz9CGxnXxeDI/b1NFqSxYxMQnM7xHhveFHLaVAu/l8M6v2NjT1iSjarOG9OIliX5nZPz7kHAI6PSOcTksYhUXxnrvEYAHa+GGA38yKxwOKZAdl4NjYqKhj0Cr6Rl0qFPjrmlOHRDQD20rdIASMGfUXCMilRwWu/VEC+8SziOO22z1uG+ANIomK7mG3T8wHB0nHwBPFhzbbVHQexaKI4p70QoA1D0iCSAMjjUHBC6Vu8FeS/13ynyT/UfJbkt9WZ//rcMjeKsiw9mjYuigw4uqrF1xxuE7iRxERMs/0MB8F0HUxeK5wPMm+F5E8ftx9UREg4F76YcdsxfqGhKGxi40mlgt+QMG1tBS7kJ1mtyWdaSEb0YVHZn9Hfvu8uNVtydFUlR/MAMngaNBujxrCIttSRREbL7TZfjkVO+70WrWitMhKYwuAmk+Fp+j3seA9iEVAFI8uUBTE55dnpnII9fFWGUXzR09ttP/nF47YN55ssAvMBGdkU6zonDlBUfb337Wk8y3TnjTyqOpepkihUh1/e+eQHbvZbbtkFKs7B6e97QWx3Q8Kfj8y5F6RxuO+cR8TMgL3Ae/rFsuESKQjTuIhCaAoNCx9YfOpw5Ifk3xYskfCaK1HSnco+ktnQuOTli69yaRtxth9MbIk+7ygvRWZ+f7t59Xwf0I6EhBFgFhEOnckx48BwkNlqOXv5YXt//z4dvvqkRo7X5iZeAEasvirU86bnimPFNTA2YOjVt3cZ7vONNuJU022h61pW/vj8w7B9vfLl54ofI2GxwkbgfsIHz2wfLrba8NL5OW5gTH85hWXkz+qfz8meUGyX0J67tEiCvUTkQX7xLCxmBsUwBwV9akF24G23lh8z8APTxQJpe8CoggwF+jMKJUvOHcUZVm3CIPRLEMsRpgesvFE1pf6g1Nm55vvIQn0D/H/r3moc4cHRq30Tq+tf/227X23yTZe7bTy7mG3UdO8iwASuTF/YkdFxPhGnp1+HPvcigFRhHQEPRln3SyWCuG56MtzAm9Z3nPGy7fc4AdiKOazQKZk2h8JXYmFbqzrI9ILt00tEn1uXhRm2EBDoatFsPwPQ9OpZ1HLol/HjYAoAswHH104zzVL5MB6R44o0t1jt2otJ8YDjN9foaYRBfck4dNQj0TnlwEM941YydUOa/jOVdv12m3bcLndyrqGXC5+QTy/OfogAk8MK44gPFg4UcQwwYq1rCml4/SqtdFTZgVGEM/55ZuW0dTn0nLUsxg1d89s70cJpKC8RJ9aEDtKXfRPAfttCfNRqGVRyKZOGTcCoggQD+jUQ+r0t47W2Ns/uce+9rm99t1nNtjZjUXWiqcbK5G3zI7fe9eSbne7oiQeIktzbJOQiy6SYAjWOlLGJi2tf9Qy2wYsR5FEBsV+P+FxPjTIt37uXqJY6ZgSMYykp7jFKtsLM60jJ836FImOxJN+gizwnF+8Pl3XQh4Jh0KgaE8/yZmYsrzxyE6PabQHL9I2HBeCognSkowuhBwYIs8AFkYaJpQ+DogiQLwgB365JMu+d7zO/vQjW+xvnt5grzKEMZH0E/j2ZecdkmveKmE2MuaPzDsdY62Cjo03yAqxyYospvcp5zHRVuS0ufH8JjHp6hrzM5mS5KLProIMay7JtGYRRldGyIaIKqLnzAsM4lmZtdb3Z1G4dow8XLPg+tKlJznSi6LxCSscGbccRVhhZrnHSxKK+K2hyNUlWAmBqOK8hAUzIQ76c9wIiCJAvCD91CNPsDEj1S7LO7ymjt+an2H9C0URM/FHpyznpWtuUb8dEoqVEAbrAsWVflllSFfjVA2P256uIXv2epeduNBm2291W9koy1qIIOIhCcBYeB0wsNwLipOk/RIi6QcMfh97YNxcl+uWbj9TkWs3pTNdbllz6Y2XyOmzA8P48i3L1BEdQVeOSFi0ER1ai0OsKVSXiBg29Y7YkdYBO9rSb5s7h6xUpBFCZ7xEz58Vx+rUcBFCptYIMVCX4Mj/CelNMOEuQCJAudi3YEyKXCjDV3Ojy+rebrQGvOLIKR8Mi6Ws9wAv+vs3LGtLsRXVFLhCJcP2mBPAxKpEZ2qvdOT1jdiui+12/NtX7CPfvmrH37hjWy+1W0XnoJtxO906M9stFs+tN/snh6dJwtWMJMy4R65LFlpG/aFBESd7eXSlh2xQF5gm0sxtH7Qy6UHskh7z6ow86skUGdCqPDengmiUugVnYfgSyrevAoRHJmyL9OPAtU47IV05crfX1rcNWPnAmNOZBdOUTK77zB5FAknTaScvcdcUYxFEFAESAZ6fK26rh7rtNCXOM5yvPoExjBVy8vKScn75y1bc2u+8ROoTeIZrbjKVvL5UEUWRIog6keOu71y17aearLqpz/Jmtkv0LbPi+S3ugEfIEh1+AytSCZBrQmmEBwiIjd/ckppi17LS7JoMWIsi0n4iCnfGHIj1mpHBUct8/Y5VqO1oCeZWUNtaqxEFm1jl9o1axd0e2yiy2CR9Wdc7bLmMBoueMyvoi8gTtTalvkl/nLVPJoqAKAIsClJCB1m3KTZKSqROgVGk83eOWPLP/bVTfD5tXkO5WkGUoOtlaej03hHLkITZIjae4rXHs/VmHyVJF4kaWKrj65I/ljDHBbJgOfWVCIwUkU+fbm5narJ1pqVYnySuYnYsGAHVPWz5X71k6y632QY9BUmwetFaHABB/2BF5wxFENn9o5bNUOGxSUtFn6LnzIlCtcjjM7czWiICogiwKDAuPjfdBosyrXtDkbVW5lo3E/HCqS53viAgC9JV73Vayp+87cbHM+MWA8DyHkQZpBjiNqYrCHTkfHX02uFx20364HaPbbrTY2XdQ5YpwnBLustjjKuADX4G/zkCSrpEFOym96qE1WJXckQBiBzIiQ8lJ7vtZocVXYy4obLMr4hzC1aKuEzCU3SW8yenrVCEG7usBykshs2uZnvG74f0sqUXjHLKGR13+hJOaIKd2vJkg+uD6ARrfqEzjHwiXZkQOcciIIoAi8VISZZ11OTb7cdq7b3dFXazrsDa2bM7+npcgCy+dsUqXrtlu/Xvs5KPSA5KaiSr0VuEAOpvddvJl27Y5//0lP2zvzlrH/rhTdsGUUTPiRu/oJY4zODhCOjstC85eaILDAH/Lyrv/KAhIzaZnuLSlSMZ0T3ImYQX7wgoDxGtvX03sqSF/nVb5Uo8YaxWm8YopwL1h3W6vtrBMSuV5OoaE0rHVuTYxP4qN/SVWh97lOBIUP9LqF/ORFDMDrBYpIdSLC0rzaYkQ+r4bHcc6hm2LOoP0XNmBeGzF1xqjhfaLEPeZdGWUhdd4BG53LaEQvdKB5dB9OO8ws4h23Gh3Q5+/ZId//sLduByu5U391ve0JgbB8+5cWFzoU39+w+75cRdXUjCjFrGwbMGF3se8xxGVk24KpCliKJoWAZQ7ZAh/ZmgxqULcKm56DlzgXabFulbtwhmoDDDzfqm7XEqeM0vUbGqIJIoHpu0qqFx26A+tK1twDarH9VKKkQYM1eInVOHfmyrjZZmu37DyrsswXNBwoAHv/z8onQlIIoAiwUKN6wO21WYaXdFFpPyfjJb+63oepebTBc3iCoGxix8qsmy9Ti0Z53zhpgUhHKv5LSKB14fhipTvz9XkcOmm9224VyLrWfWtQwA3m8KqQNI0b0jDvwPJ+UdVrscP94gKQTGwPtRTrTNakOKjLtlptpAXtjaJL3M7B+dsAy1WWS3hDjBInk9I1bQ2Gd1RZm2SZ+Jcw7npvIAABKDSURBVAKhUq95f9bFKoG8rPW9I7bndrcdP99mJ3Tc1NJvlb3DLg01M6qYVYcU3TNzn2uHHN6SsO0pR/QFkkh4jTaPgCgCLBYuDaKQoCstxVrkGWbL2JfIQFZdbLMKQgUv8xlHXpehCPWPWro88aymPksuSLfu+kLrlqdIigVC8ss2rFRPkbxy8fC4VfaNWsPtHtt2ucM2nG+12lvdVgRBIJwYL1G8sMHsXz3poilIk/QB0QQGgEiCx3iNqw3cS5Z96Q2HrCUtJB9hyrJ07wubZ+yvvRDU1hmdg1Z0p8eq1c5Vdfk2lht2RpKUHAbRp6ASSms9QGD8cxRJFKpRStUGexp77eB7bXbk3UY70D5oJdRjXAE7EoXGyjTUfxjl5PrRZ3abQb56mhrWm5IfSohA0SEcrkW3RUAUAZYCOj4yKQ+vpkXenTzoehHFuliDGPt4JlDwWIgcpkQcU0OjllWZZ2UyKEQn5J+9t7jioCiium3A9r7Xaie+fdU+/Npt23O62RpuKLJSZw/H2xax+K3nzcpz3YxaOv0rEkY6vS4hnUC0tRoirdnAfRzRfe6XAcyRwWedq8q7va4mFTeiesPfJNJXOnbmZ1ifIltST6SivBfO/+joioKuvXRkwnZ0D9tjciaev9llR3Tc1qwoAoLQKS41Gzl74f7z/EazHQwHMUeWfn4NTgXOFu2zpDYIiCLAUoECTqUkWZWMZbW86SpJsTrvZJKMftSbnlPR6QyxIpcnScYj7U6vFZ5qssrqPMsuyrRxdQgUHgPJ9835eQ8IGCLIi0giX519hzzBo1+7ZCd/93V75lyLVRFJECVx7bHX5949B5iHQsf/jafNnovMmyBdwKZErPoJUeAdJrz8wgoC946okEhpQDpTMDhmVR2DVqvIoFbX7jQlhgTmA687oRienW4D4xM2IQIKZYQsTUciCmpdGE4M5cMGv8dtxKRGYDmODbruQ1c67IQci+eudbqaRDkkwQgvnRd7/XO2BW11uNomnt3orhVSpHCNM4FAFkQYtPuSEBBFgGWBOmtRTrrl9o9ZOF1qrhB4WGQxRQFXnpNPHcUFyIX3ydPM0ueN5KdbZ0GGtenzIArgO86SO8AiUTAyblua+uyIoojn3rprj79513aKIGr0XH4sIcQ+Xgh0+s/vNvulJ9y/XBudntm03kP0hf2Hdd3LCulMxfik24ujhnw8RIGQakmk3YB0JiTSyZPxxdgWKLJIUjRKapS0C0TxsHUmQ9faIL3eJb1+vLnPjsqh2s2M6xYRBMNg9XoIkpjl2udsi/X5Zj+5xzlROBW+gM3cGvSGOtaSRjt5BEQRYLmQnR6y9PywootkG0sL2eTYhKV2DVv2gDxrjKCXBYwAEUUqk9PaBy07N91Gi7OsSyTULenS+0N6M94ZHd7nXOf7vOUCZIdHyMYx1fKAD75yy07+0Tv2wnev2W7y5I0iCeotXJ8X98448ViV2f/2E9OeIR2cOgRRBCRBQZLC9lpCibz/dX2jVirjWShHYJwWw1GIetVxgfOlY1kiieLGXqseGre81GQblQ4OZKY6nUFX/OfFksb9hteZsH5jycCY7RQhHrnYZicvtdt+kUS9oogyX4twJBGpZfH7YmVWsEzH5/bbVEaq0xMW/fOjnEg5QRJEn8uiMwFRBFgu0BkHpbwdpdnWRlQho5l5t8eKMfiRUyKYz4BCJLHQ/0nywrI6h6yibcC2KjqplHHJS02RQ5rkjKoP0yENfsP9AMNaa/pHbTsd/XKHPXa62faearZN1GPYdEgeYSokgdGKvichKGqyL3/BRkIpjhBOSUg3MWqFpaHxDun0KyGFspxI0j0cLMmypopcuyyHoF1RwJjaMUNtPe8Q64Ug75zl28tFQpu5d3Ji8pKTnXr5QrfXtPulM8zIZ9LlTjk9j0tvTooYDt7utu2M1BIxFkFuLpJQNMT5kbfFD9Zyqspzeg8xsKzLaxKK2JAGEQZDzJdFZ5KI8wIEWGbktfbbMy/fsmf/4pQ98/odq1enme4IsY8XAnn72OPHd9gbT2+wV3aW2asyMKcVvbB/N52fvD3E4QnDRxuLBb/RGRR1kZyeYTtwtdMOvHHHDpxrcZ5gXnOf5ckA5KqzT6fWErk24K/r7z/nipHk0xmp4gWC4LoQIoylXtNKA+1L2yEscfLkzS578t0me/JCm1vLaRqko6IPF4TY4B6jJl05taPcXqrOs5cUob6i14nY8LQ5ojOcv1id8b+LY6yE5OAclZ4cudphR6912lb9nynyckKaSedMI9Hr+9HNNnWk1v1mfj9LuXwrKhDGsiMgigD3A0yoeurrl+3JL52zJ2VcG1i2QuE1E6vwuuPuFN6Qeuwst7vsgbGx2G6vy7VmZvfKWxxWlDFSlm2dRZl2Oy3F7qgzEXqT06d4iizkWfGbMFxO1JGr5dXWdg1abXO/1SgyqrreZVUX261KjwtJp8mwhSlYMw+EDwCLIYrfed7sxyNrOVF4fFHyveiRlBOGAOEa1lpnjW3zNEUST13psKfebbSnzre6Jei5YNeeSyGK8mxrrsyzmzreLJR+KBplE67hzFQbykqzHunPXd2HRn0BW4ZC1hCGl9nAb0EY0Yau50kH8qTjhbqGIkURRSKD4u6hyAAPORTVDHclFetk0lL1nmmdAYlc34kG63luo6u9MCqO4cDsXueFiHTZERBFgPsBZlc/0TtsT/z6d+zEO41Wj0EdHLU0dSDWrbmnk8yHmUTB/xgCjoomJkUQY+rwo6wxtbvcbj653l7fVW6vVeTYazIGXep+I+qBEAbe43zgN+HlsfBaSJ38iIzVsW9fsWPfuGy7qZtAchTmIT33jlmQKFH8+lM29VMsWBIBRUm8Qras5EhE8aiAtn9GkejT37lqz0AUug9Ec5F6zxKIAujN6Mwkr4kcBrJSbSAj1QZLs61xQ5G9WZ5jb+Sk25spSS5l44kZmQl+hyM3fUnu+IRVSyeq5ThUdw7aepHCxluRFV/Xx/52ju7dcyDe69tf6aJqnCDSTV6YiAlBIKQolx26iA+0aYAASwXLMayXsE/F+peuW8OpZkmTrX/ttjVAGu6sJQKyYGZvarJEx6o869pRZrc2FdutugK7JfIYCiXZeCi6qb/eMpuyuw6Kh4eoO7jjrW6rvdBu9frN9edbbN2EnoPgiB4SJYO58LefNdtX5dbjwZOl8zORjhErLPaHrNg9Ju4DML4sCLlR+oGh3SBvvLap12pleOvI57uzoojXsM4ERKGIc1T6MsYxN916RRK3S7PsNtGGnuvXOezp7fb6jr5tGlGD74y/9CE8NGb5cn6QvJ4hK+4atmKK6u0DVhx5x9Lhie+perOnaaHIEi7UIph1zfBpogtGyCGLnn09HwKiCHA/QGditAeTnjiuv9llJ7503k788bt2Ql7jkgqVHhBF9OF0pMGic5BGesht4j+lH+LOmXkuR2/wYw2/XnCPiRrmiiCWShRV2WZ/9hmzmsiiFXR4VoJFTksoQHpZKApaa/D6kiazxOCFE8wzePOunWjpdxtcTWMpROGO+ggec1RkyppTrBk1vZKtP28+8BtwKmYTORRzRp2Jgt/y0a1mB6ujT0QIgrrEdySkKGNTZQv+7sUgIIoA9wt0ZARPkdXxT55qtJO/+k070dhr+RhhX7PQa/cFseQQi5lEAWIf30/86Eab/J+et4mc8HTdBIJghBPCCCdfYOU4V458rcLfA47FiuIO3+mxwxda7VBzv1X3j1iOoo1shpNijCOnrm1kqnf85F7rX1/olnHxQkRB0Roh8rzvCIbHBrifwCBj7KhZrFOIX6EQv/ydRkuRl2STk5ac6GS8RMB3zAb9qA/kjGf+fz/whT1mv/mjNq5oBxKgbsJIJnLMzJVAyDXz2losXCcCrp0FBDNz0y0lnOqiw9FQilt4Mr1v1K2RtOaJokK95qf3uSGwpCAZMv2S5B8kb0gY6LBs8yQWQkAUAR4E/FyHwYYiazleZ10KzUf6xyy1td9yMeheltNg81nxSvQtyw6iF67rVx4z+zdPuafII9PJSTOxnSmpJ7xCZtWylpV+TgCBe8I8i6G8sJtwOSySCA2PW07HoJW4e6YzaNvouWsG0pnJneU2+vm9NqzIk5oDdSx0hHW/0Bsm2DE6C5J4IFFnkHoK8CBA1MDaSAjLce8bHLXHv3LBjv3rr7n9j6fxoFJADwrHq23qZ4/o2BB9IpI2YI4EqSaOdHgiC2StzbxeCtADV6+QULvYxii6V2/bE69JRidcHSNC9GtMZ55ZbxNPbXB64eW6hMl0XhhG7esRD8SAB0QR4GFgq+QAcqbJ9n7pnOW/0WgFd3qsQN7izE1aViUyRI3/UlHEzxxx6w3hAXphmQW8QoT9r5dl5uwjAPbI3jk+YTuvd9uuy+1WIV0paxuwMh2LIqdEsBqJg0L6thKbPNFgk+tyXVqSEXBEmRwhCvSGNCVHv+bXA0NAFAEeBkoldHykWt7h1h9ety2/9QPberYlsX0JViJ+dJPZzx81217u/iWPjBfoRzYxDDZ2ZFOA+OD2k5YwYi5nbMIO3Oyyw6/fcfNdFj05byWAWsSz621sS+n0QAbm01CH8ELtitn5fgWCBz7IISCKAA8D7B3tOrwkX0JH336ry7b/5Wmre+mWZXcMWDZrRA2NTe8rsOLBSp6/cNQmP7HLFR/9rFk8Qsa6e6FGEWDpQGf29gzb3tPNtr2pz4q6mL8gYYmMyCkRrETiYB5HUaaNnKizkd3rXMqR+hTzIRAiTz+qCWES4ENFQBQBHgYoblO38OPm66LCMNq6S21W981LVvd771hdmwhDz61o7FZ89DGZrY9sMyvOciOW8AIpUiPUJDACfkIUHmOApSNPwkwUHI3y3mE7cKrZ9p9ptgONvTM2zlqBRPGhjdb/WJ11hpKdQwE5MAs/dqY1dQgiC44PvXYVEEWAhw06MbNYvZB62oBc7bANL1614r95z3JEGDlM1FsJxW5GMiHP1NukyGHqI1utLymysZL3CpkQhUAUdHo6WdDRlh/oAkJda590Y79IYv/5Vqtv7rP83hHL6x6yfL+dKHMvHtT8C+nDPfebCX0VOda7v8J6t5ZZb3a60xPSkl6oQ0AWHJmpv6IQEEWAlQCW9CAHzZE5F8zCJcOP1LUP2KbvXrFN/+mHtvFu3/LNeF0sPr3dJj+6w8blEfr1gGIL1KQKMAJ4igijVgLcXxCdUtAujB5rh8ds591e28mGUje6LNcvxsdRr993eKIoyjDbqohzh8ihOt/tFcEwV45MnMOxQHAyqFehKxwZAbeiEBBFgJUGOj1k4WsYpKRYcnprz7BtO9dsuWebLeeNO5bz4k3LJMKIeotOdN6ygIgh+tB2ltjEkRob2LvO+reVW39tgevIFB5JCXCk87NyJ1EEZBHg4QIHY29U9vWNWOGdHsu82W0ZijgyYpf7Zpgtb/BAl6IPE4YnhzLFN9vLbErCOlKkjhB2Z8SJYKQbR+oQsQXqFY2AKAKsNNBR/dh5BLLAUyQfjTC0FuLY3jtiDeebLeV0k4XevG2hV+9Ycg9me4l4rFIWptKmdlaY7aqwqco8RwzUGvAEETq9n1nNkQiCwjXC4wAPF8zX8alMIgxfy2ApcIZg17O73NUOq1e0UdornfFmMFGiYJe5XMXChfrGqlyb2lJiUyXZblQSw579EGiO1B7QDS/ojo9IkRWNgCgCrAb4zssRL5GFuZmHAWH4ojgSGhi11O4hS+0atNROHTv6LbVtwFKb+yy1fSASdRRlynJk6JhtUzwuznLHsaIsG8nPcFECQuels3PEI4wducQQV08SSNCJVjYYEOEdDZwOnA1ki4Qh2imKLlIGRy2lf8RS+yM6lKZIhFRVUlKyJeWkWVJ2uo7pNpGbbpN6jIxLIX1UiaAvkATCoIVXJH5YNOnJVYuAKAKsJkAUJRLmYVDHoNNTnPRCURMP0gvneuF/6hte+CzfqekERAMQAMJEJ8jBz3UghxxbeCSXHEskAVY2cCKof/lamI9QOTJ6CiJBdxCeQ78Q9IboFmcEQcf8boMcqS9QayDC5IjTgD4gEAXPe+HcVYuAKAKsJZCmqpQwcoqjm9AXFf73HR6JJQoMPuvp+PQSRz9sEQkmxq1dQCKQhUtNSSokNVGplUAukAUCUaAL3omgznBdwmglhHoDBOHJYs0gIIoAawl0ZrxDLxCHL4zzf2z0AVB+L0QJM3PIPrW0DJWPACsU6IKPNpBYvUF8JOGjUJ9mQiAGPyyaIyThHY81ZVgDoggQIECAAPPCe1YBAgQIECDArAiIIkCAAAECzAOz/x8gPlpGNfas8wAAAABJRU5ErkJggg==;" parent="KPgrsXEgDjS83-H8w_TJ-38" vertex="1">
          <mxGeometry x="5.3700000000000045" y="4.999999999999773" width="49.25" height="50" as="geometry" />
        </mxCell>
        <mxCell id="KPgrsXEgDjS83-H8w_TJ-14" value="" style="whiteSpace=wrap;html=1;aspect=fixed;fillColor=none;" parent="KPgrsXEgDjS83-H8w_TJ-38" vertex="1">
          <mxGeometry width="60" height="60" as="geometry" />
        </mxCell>
        <mxCell id="KPgrsXEgDjS83-H8w_TJ-41" value="" style="group" parent="1" vertex="1" connectable="0">
          <mxGeometry x="-360" y="-1880" width="61.16" height="60" as="geometry" />
        </mxCell>
        <mxCell id="KPgrsXEgDjS83-H8w_TJ-39" value="" style="shape=image;imageAspect=0;aspect=fixed;verticalLabelPosition=bottom;verticalAlign=top;image=data:image/png,iVBORw0KGgoAAAANSUhEUgAAANQAAADQCAYAAAB/T08OAAABhGlDQ1BJQ0MgcHJvZmlsZQAAKJF9kT1Iw0AcxV9TRakVQTuIOGSoThZERRy1CkWoEGqFVh1MLv2CJg1Jiouj4Fpw8GOx6uDirKuDqyAIfoC4uTkpukiJ/0sKLWI8OO7Hu3uPu3eAUC8zzeoYBzTdNlOJuJjJropdrwihH2H0ICYzy5iTpCR8x9c9Any9i/Es/3N/jl41ZzEgIBLPMsO0iTeIpzdtg/M+cYQVZZX4nHjMpAsSP3Jd8fiNc8FlgWdGzHRqnjhCLBbaWGljVjQ14iniqKrplC9kPFY5b3HWylXWvCd/YTinryxzneYwEljEEiSIUFBFCWXYiNGqk2IhRftxH/+Q65fIpZCrBEaOBVSgQXb94H/wu1srPznhJYXjQOeL43yMAF27QKPmON/HjtM4AYLPwJXe8lfqwMwn6bWWFj0C+raBi+uWpuwBlzvA4JMhm7IrBWkK+TzwfkbflAUGboHQmtdbcx+nD0CaukreAAeHwGiBstd93t3d3tu/Z5r9/QBciHKeMNP+pwAAAAZiS0dEAP8A/wD/oL2nkwAAAAlwSFlzAAAN1wAADdcBQiibeAAAAAd0SU1FB+UKEgwNDmHxDQoAAAAZdEVYdENvbW1lbnQAQ3JlYXRlZCB3aXRoIEdJTVBXgQ4XAAAgAElEQVR42uydd3hU1dr2f3taMplJ74VAQieFKl2KIDZAREFEuqB+evQoR+rRF1CPAvrqK3pUzkEBlSIigtIUVEBDF4QklFBSgJCQZNInM5myvz8m2ZmZJNQ0cJ7r4iKzZ2avtdese63nuddTwCUucYlLXOISl7jEJS5xiUtc4hKXuMQlLnGJS1ziEpe4xCUucYlLXOISl7jEJS5xiUtc4hKXuMQlLnGJS1ziEmcRXEPgkuuVeQN+VbjnZXo6X9eUiZYXz44rco3QXxxQ78SujLfC2wJicG2fEcGnnsZJBWjq6dG8AHlDjqUIJ2QWccTMk5PPuAD1F5RFbT8LQyn/Awhxrat1NplOuRsUPf7Ku5Xsr/jQ82PWqVDK17vAVOe7VLsytfnLecyTuQD1FxK1oP8A6OWCwHUDpQjIr+VfsdOHh3vEtvgfl8r3F5HFscuniAifOV3ebBWYL60yokxvFUzG+umBe3593NWgKjEu+OMZfYMTFS2Wu3tohd1Ad3tYiYLwyOzEiZtcgLqD5e0OKzvLZGICoLa7fEalELu//OfkAtdedHPyr/ZfhioUlsOIhNldLhat9Jp9YlKyS+W7A+Wtdiv9ZYK4wQlMJTKZbKQLTLcm/zw5/rIoWkcB5XaXPQWBDe93Wu7jAtQdJutGrZPLFOJqBFo4qCXw1IzjE5JckLh1mZ00Za8ILznpP23KzaxdN2qd3AWoO0jOn9C/I8AQh99a4J3ZSZPWuaBQl6Ca9AmC8F8nq+K+1BNl81yAukNkYczyMYLAy45gEn4p9W/+TxcE6l58VIbngd8dMSW+ujhu+SgXKXG7gylueZwgCvtw9EjIsCit3eYenZLjmv71I4tjlodYBeGwAOH29qpopeedTlLcsTvU23GrfAVR2OAEJgPIHnWBqX5lZvLkLLkgjALsjx60gozv7nSS4o4E1DzmyWSi+SugleN2LD4/K2nCYdeUr3+ZkThxnygIf3e63NpoFr6+k0mKOxJQ6rioBSA+6ERC/Htm0uTPXVO9AUmKxIlLEfmPk40xJPWkfoELULeJLIpZMVwQmet0eZ/e6jHdNcUbgaRwN/4Nkd+cLs9dGLtitIuUaOLyVseVbeQW8SDgbXc5SykXuk0/NvGSa3o3LZJCJpP1utPOAe+YHWp+zDqt3CpucAKTSZCJo11ganySQpCJjzmTFFar9fu32q30dwGqiYmIKKiFss8RiXG8zt9nHp/8m2tKN77MOj55P6LwjNPlKLlCXHMnkRR3xIN4xEbNAV500ma/nJ00yXV424RkZ87GY0OCHg4FoZvd5ZYFuSblzisbf3btUE2BhIhfMQh4w+nyn0pP9TO32aP4VvyLAKKB4IrX2jsJVN5u5S8Ae5wuz75TSIrbmpR4t/2y5ha54jAQYHdZJ5PJus04PiG1iXTTH4gHYiuAEgSEVfwfAvhd532swJWKf5kV/2cD54ETQDKQdzv8bv+K/W+wAuXhisVDIilEQew9O3FyogtQjSDzWix312iF30XoanfZIoqyh2YnT/ixEbsWDQwD7gc6AqEN2PaVCmDtAX4CDgLmpqlZLO+JVdgFuNkZvWlyk+quV1LG5roA1cCyMGbFckFgkhMJMWN20qR3G6E7zYEpwMiKnejG9G6ZDK3WptlptVoEQcBkMmEwGLBarZSUlNxsvwqBX4A1wEbA1MR+wwmCwEqnyzui2ns8MPqb0RYXoBpqdYtd8SLwgROYvpuVNPFRAUFswK50B14FHqrNHvXw8CAqKorWrVvTokUL/P398ff3JyAgAF9fX3x9fa+rIYvFgk6nIz8/n9zcXHQ6Hbm5uWRkZHD27FnS0tLQ668aAX8Z+DewBOc8EI0oi2NXfCzC/3OYlKKwcGbyxDkuQDXEqhb7eW8B2a/Y8tpVPkRDp69qC7wLDHV+Q61W07NnT+6++266dOlCWFgYMlnDcD+XL1/m5MmT7N+/n/3795OZmVnTx/KAt4APm8KOtbTrUmWBUbUDhP7266OA8MTMpIlfuwBVn6tZzPIQUSb84Zy7wCKI3ecmTj7VAF1wB14DXrEHtEwmo2fPnowcOZLevXujUqmaxHhduHCBH3/8ke+++47s7Gznt5OBZ3GOXWo6JEWZILP2nXl8yhEXoOptJXP7Behrd9kqIDw8M2ni5gboQiywGoizB9L999/P1KlTiYyMbLJjZ7Va2b59O8uWLSMjI8NBkwQWA/Mae7daHP95F9Eq+x37nB+3IUlx2wBqUcyKpQg87dB5gXkzEye93gDNjwf+U7FDAdCpUydmzZpF69atb5vV02Kx8PXXX7N06VJKS0vt39oHPFphZzWibbx8PAhfONnGO6Pbe9x/u5AUt8XB7qLY5eOrgQl+KE1MfbMBFpx3gC8qwaRWq5k7dy7//e9/byswAcjlcsaOHcv69evp1cshz2cv4BDQpTH7Nytp8peCwL+dfoDBaaf0b902Y9zUO/h2h5WdBYHvAKXd5TMqhfjgnKyXy+qxaQWwAjsGqlWrVnz66af07NkTQbh9z8Q1Gg0PPPAAnp6eHDx4EFEUwVZg4AlgL5DeWH17rNkDOwwWeT8QWthd7jM48OHTO3M2NXnP9CY9K95qt9JfLhcPO6X/agi3fzmwFnis8sI999zD/Pnz8fDw4E6SQ4cOMXv2bAoLCyUyABt7+UsjkxSHgGb2JIVV4O45iZP+cKl8NyHzBvyqUCjE9Y2QS08APrUH06OPPsrChQvvODAB3HXXXXz22WcEBQVVXlIDPwB9GqtP/0yalm21Cg9XgFvql0wUvn23zeoAF6BuQtQ56YtFGOBwURQXN0AuvTeAqRIbMX48c+bMabCzpMaQFi1asGzZMkJCpGIkHtg8K6Ibq09zTkw8CqKTg7PY3KIsXztvwK8KF6BuQBbHrHjCOZceIj/rA1u8Ws9NPwpV4fPDhg3jxRdf5K8gYWFhfPLJJ/j7S/F+AcBmHAM2G5ykEBE+dNIfBmly0992Aeo65Z3YlfGigFP2UTIsKusTC3YNrE9Hz3bAykq78u677+a11167rcmHG5VmzZrx/vvv4+Ym+au2r1B/G03KAiKnC7DLcW3llcVxyyc1xTFsUizf23GrfMHyM7ZYoEoxgOz+Occnna3Hpt2B7ZVGcHR0NEuWLLGfWH8ZCQwMJDw8nF9+kTiJWCAD+LMx+rM7baV1oN8jm2UyRmGLD6vcqu4fFDxi+89XNl5uSuPXZHYou1x6LR13+AbJpTcfW6gF7u7uLFy4EI1Gw19V7r//fh599FH7Sx/gyLg1qMw9NTFPEMWRgL33r7tMFL59q/PngS5A1SAesVGvO+fSQ+SjBsil1xH4R+WL6dOnEx19bVv8FkIqmoxc7RmcxsETHA9cG1pmJk/+U0SoRlIozPImRVI0CQNhUcyK4QhsdOrPvjLRY8D85NHl9dz8b1T4B9511118/PHHNdpNV65c4fvvv2fPnj2kp6dLrjvBwcF0796dwYMH06dPnyYLHqvVyq5du/jll184fPgwubk29zhPT0+ioqIYMGAAQ4cOxc+vKoA4MTGRp556CqvVWnlpBNCoVQkXxa74AOf8IaL43qzkyf9wAYpGz6V3P7ANQKVSsXbt2mpOruXl5SxdupSvvvoKi+Xq7mQdOnRg9uzZdOjQoUmB6ciRIyxevJizZ69uhqpUKqZOncqECRNQKGyL/uLFi1m3TjqpOI3NObjRHGnnDfhV4ZGb/hMw0GkmT5mVOGn5XxpQ82PWadUy/X6n9F8mQSYOaoD0XwJwALgLYMyYMbzyyisOH8jPz+e5557jzJkz1b6s1WrR6/X2q7c0KV999VUefPDBJgGmdevW8d5772E2OxKkcrkcd3d3ZydZAOLj4/nwww/RaDQUFRUxYsQIioqkULPngE8adRFut9JfrhAPAVFO5NXdjZ27vtEAJSIKi2O/+BpEp7pB4v+blTS5Iajah7EdXuLu7s6mTZvsz2AoKSnhmWee4fTp09K1bt268fjjj9OtWzc8PT0RRZGUlBR+/PFHvvnmG8rKbAf7giAwZ84cRo4c2ahg+uKLL1iyZIn02tPTkzFjxjB48GBatrRxP0VFRezbt4+1a9eSmFiVH6Vz5858+OGHuLu7s2rVKt5///3Kt9KB1jR2uEfM8k6iICRgO4SulEYvVdRotHltufRmNUwuPQH4mgp6fuzYsQwcONBOJReZM2cOR47YYtsUCgVz587llVdeISoqSqLTBUEgICCAHj168MADD3DkyBHy8vLw8vJi4sSJBAY2LgFlsVjYuXMnZrOZjh07smzZMu6++24HO8nNzY1WrVoxfPhwtFqt5CyblZVFdnY2AwcOpG3btmzatKlywfDBlmnpz8Z8th05m7LuDR6Rji2PR6V4y6xCr1HNHvhq8+XN1r8MoN6JWzlYhM9xZBn/VHp6PPLjxW8aIktPf2AW2HI+vP3226jVVXFtgiBQUFDAoUOHEEWR119/naFDh171hp6enjzwwAOcOXOG1157rUnYUaGhoXTs2BG9Xs97770nJYKpcYURBOLj4/H29iYhIQE3NzdGjx5N27ZtUSgUiKLIgQMHpFsDyxr7+XZe2Zh4b/AIH6Cn3eVIg1XhufPKxkbJfNXgKl8tufTyZDLZXQ2YS+9zYDLA448/zowZM2r8UGJiIkeOHGHixIn8lWTp0qUMHDiQNm3aSNeKi4u57777KC+XSNcYbPkAG9dGHLVOnnqydAsI9zUFkqJBAVVbLj0BHpyZNOmnBuqGBltkqifAqlWraNu2LS65tsydO5effpJ+pkXA7KbQr/c6LPMzyRSHcHTmNVhFsd+c5MmHGrIvDXqwq9YInziBCWBWA4IJYFQlmFq2bOkC0w2Ik9o7EVsQZqPL9BNTdaJoqe5JIQjfvhP/RdAdCajFsSv/7pyYEoQNM5MmvtfA4z+h8o+HH37YhZIbkJ49e9rHTYUA9zaVvs1OfuqYKIjTnC43s1qtG+bHrFPdUYBaGPt5bxFxsZOueQqTeVIDJ6bUUuEVUZmxyCU3MFmqj9kDTal/sxMnr0YUnRfoPmpB/84dA6h/tf8yVBBk32CXxw4osFjlw2adfqqhM5j2oSI3Rdu2bR3o4+sVU7GF/JOlZO0vIOdoESUXDCDeRqgQoTi9jJyjxWTtLyD/dClm/fUnFOrZ055Qo19Te7yoDpqZCGx3uvzi4tjlUxqi/XrVgW259CzrnBJTWkUYN+fE+LONMN5SdtIuXW4swY/uRAnpm3PRnSypBiA3XwWhd/vS4sFA5O5NM7LXXGoh9YccsvYWUF7keDIhyAX8OmiIHhGMV0v1Ve8THx+PSqWqZPvisbG1TSZv3uhvRlve67DsSZNMcRC7yAUR4d+LYlYmzUqeePC23aEKDG4f4ZiYEkFgweykSVsaabwlQHXt2vW6vmA1WUn+70WOLk5Dd6Kkxt3ImG8m7fsc9s1OofCsvsmBSZdUQsLMFDK251YDE4BoEclLLOHQm+dIWXX5qjuuu7u7/RmbANzd1J53+ompOhnCSMDer8odQdy4qO1nYbcloBbGrJjQSLn0ahMPoFulLdCxY8dra0cWkWPvZ5CVUACAxl+NX7QXF8rPcaRgLyeKjlBsLqgCVoGZI4tSbcBrIpLzRxF/vpeGudSCwk2Of0sfyjWlJBX9wdGCvWSUnUOsRJAIF3bkcfzfGYjW2lHltLv3b4o78oykicdBnIDj8hCKUvFNfZIU9eIp8XaHlZ1lskbJpXc16Q5MAxtdPm7cuGt+4cyaLLIPFKL2cWPoW3fzwBt96PJEe7qO7sDGP9by9cEv+C33R7KNmURp2uAmc0e0Qt6xYkJ6+qBQN25AdGmmkWPvp2M1icQ+3IrR/7mX7hNj6DulKwU+WSzZ+A4J2Tv5oyABb6UfwW62xVufaUSQC/i2rTnI0mKxsHXrVvtLnzVFUO28sunkkKARWqC33eVmSky+O3M2brstdqh34r8IksnE77HPUQ0lopVHXv5zckEjjm+nyj/at29/7cl4yciFnXkgwLBF/Whzb3PpveDgYDZs2EDfvn0RETleeJCPzr1OgclWQNBUYuHchuxGn1Bn12VhNlhp2T+CB9/sg7uXm8TWTZkyhaVLlwKQX57Lqox/sye3ao6l/ZCDUVez/6vT+MXRhLNnlSalzkLEETwCf1sUu+KpJg+oeQN+VYhW69c4VlEQRXhq9olJyY08tpKOdz0plDO254IIoXEBtOhdXe2WyWTMmzevyl405bHmwqeS+nQ5oQBj/vU7ZOv1ek6eTGbXrp/ZuHE969atZtWqlaxbt5offviO337bxblzZzGZru+epZcM5P5pI1F7PxNf42fGjh0r2UMiIluz1pGmT6mwHUUu7Ki5wqi3t7e9468Gp7QFTUkWsMCqFM3jgHNOb320KGZl9ybN8nnkpb9TYy695MnrmsDYSoCy91Gr2XhCmoyBrWoviOa806Xpz3CmJJk22ljbPY6VED6g9u9bLBaSko5z+vRJcnKuVKZErlHS09M4duwocrmc0NBw4uLiiY5uVWtWppyjVScSfi29ar1vhw4dOHHihASqn6/8wFMt/iHdo9XjITV+r3Xr1uTk5NiP7ZmmCqrpJ6bq3oldOdKKuLdiAbAnKbrNOv1UZpPboRbHrHgCkZecJubPUR00/2wCYyqDqiDGVq1aXfXDBp2J8mIbG5Z1sXbVLSsrq9q1U8XHpL+L02s2F61WK0lJx/nii8/57bddXLmSfVUwOYPw4sUMtm3bzLp1q0lLq9mfuDjdIP19+VJWrfe7fNkxadC50hOUW422XTPLiNlQcxSE06IUTxOXhiIp6mSHeid2ZbwVsVouPblJNaaJlCFpXbkyBQcH4+Pjc9UP21PLxw4kcf58xxoTt/z739XzluSXVx3JlBdUV89KS0vZvn0Lly87RvcrFAratetAXFwcYWHheHp64e7uTllZGTqdjgsX0jl+/Bipqecl8OXkXGHz5o20bx/DgAGDkMurSBCT3TN889W3zFgwvVpf/vjjD/bv3+8IWNFCkSmfADfbzlReaEbhrroWoDpyG8ispMkbFseteEcUmWm36vdWC6XvA883CUC9HbfK1yqaNthtpWALR360CRXKun51D5Cr7DZuo8CYMWNYv369lG9CFEWWLFnCihUrqn1XKauafHI3udOOdplt235wCDv38/Nn2LCH6dWrT615AFu0iKJLl648/PBIiooK2blzBzt2bMdgsO1CJ08mk5eXywMPDMPT09O2JauqVMHlH35BaOsgB2bz1KlTjBs3rsY8GQ7PoBJqVfluN0ABlCamzvGIiYpDsHebEp5bHLPy6MzkicsaFVC15dJD4LlZiY0b238rhITKR2E7shQhQBXMsT+OExcXx9ChQwkICOC3337j6NGjNX43XF3FBrr5VQ3vlSvZbNr0rUQqyOVyRo58jCFD7kehUF73g3h5eVd87z7WrVvLb7/tlu6/ceN6HnvscdRqD9x8q+4ZJA9n/PjxfPrpp3Tr1o1Lly6xZcsWKWTfXrQKL7yUNrtPphBQedfct+bNm+Pu7l4J6khsSSjzmzqgFrDA+rZs1ZMy0XQQkHR/URA/XhjzxanZyRNuqUTqLdlQNeXSExE+bArZZ5xt7+u1nwCUGjmekWpptY737k5RURGrV69myZIltYJJISjo6N2javfpoK1Q80rYuvV7CUyenl784x+zePDBYTcEJoeJr/VkypRpTJ36rFTTt7CwgB9+2IjZbJbaBuji0xsBgYSEBD744APWr19fI5gAuvr0QagIk/Npp0GoZYbIZDKioqKqllBb2ubbQuYkPpkPsuEi2Bc5VwqCdd17HVeGNwqgFsWsGI5dYv0K2WcQ1a80wTFsXaU+tbiuL4T0qspqNiRoJFqF1zW/MzBwGD5KW6IXN18lPu00iKLIDz9slJJKenp68eqr82jfvuYQ+RMnTrBw4UJGjRpF//79GT9+PEuXLq2tojt9+vTlb397CZlMLu1Ue/b8in9HrXSwHOIeQW//wdfsv6/SnwGBVTFPIT2vXiegWTOHZLItuY1kVtKEk3KESc4khckifrOk1RK3BgXUovjP2ooCX2If8SuQabbIH22AxJQ3KgJ2kZwRERHX9aXwe/wktclb6cuU5tPxUtROZvT1H8KgoOHS66jhgcgUAsnJx8nNtdHLKpWKF198maCgYIfvrlmzhuHDhxMZGUlMTAxz5sxh/fr17Nmzh6+++opnn32WiIgI2rVrx5NPPsnevXsdvh8XF8/EiZOl1ydPJqMrzqX5g1VZBh4KGUNXn7619t9fFcSUFv/AQ24zhTWhboT09r1jAVXB/H0niMIip8u9DGqv/73Ze96wb8w85smUgX47BGhuT4yJWB+ae2LSySY4bhFgY3X8/PyYMuX6vPhlcgFtpDvZ+wpABC+lD3f59kMhU1JmKaXcasRD7klbbRyPhE2gp99ASVXyj/ek9ZgQTCYTW7duxmy2qXqjRo2he/ceDu2sXr2aJ598kpSUFPvcdzVKXl4eiYmJfPXVVzz66KMOWZWaN2/BpUsXycy8VPHZXHoMvYv8k6UYdSZkgowYry5EqqMxWMswWssAgRD3CPr638uoiKlVtpNSoONLzXH3u7o6mpWVxe7duytfXgI23G6gmjZg7K6CPFN3e3sK6PZg6COf/Zi98YbDi26YlNDEtAgS7dx4bHYTL81OmrK3iY5Zq1pW1GuKXwctHaZGcPLzS1jNImq5B/cGjeDeoBG1q01tNcQ+G4EgE0hKOkZZmc37PCgomEGDHANcrVYr8+fPd7hWmdarTZs2+Pj4kJ2dzenTp0lLS5MYufLyct58801Wr17t8N3Ro5/g2LGjmEwmsrIuk52TSfyLkRx7L52iNJvN1NYznrae8VdlOGP+XzO8otTXHB+n8WzFbSijvxlteavz5xPkJlm2ncYlM4nym8q3csOAKk1Ou+IRG1WIXepkq1z4uQmP2U0DCiCktw/uASpOrbxE6SVj7TuaUkaze/2IHhmMTCFUqF5VSYFGjBgppTeulD///FPKSqvVannqqafw9vZ2qJbYvHlzunfvjtlsJjMzk88/t9VO2LRpE+Xl5RIhAbZSNP36DeDnn3dI7Q8aFEGXOVGcXZfFpV91iFfJVucVpabdpHA8m7tf19jcCYACEMyySHvzRYRLs4+Pu9gggFrAAusiYcU+RKRYaLlV7AOkNNHxanmj9pOz+LTxoOebrcn5o4jsw4WUpBswFJhQuMtxD1ASEOdJcG9v1AFVk7uoqIj8fB1giyHq1q2629ivv/6KPfvo61u7zaJQKIiMjCQgIIDc3Fz0ej0HDhzg7rsdw5H69u0nASo9PRVRFJG7yWg7PoxmQwLISiggL7kYY54Ji1HEzU+JV5SaoG5eBHT0vKE8WP7+/nh4eKDX6wH8uU2o82qLoehYT1hAuGlt66bOoQQrCaJQBShsHVreRMer1a0CqpLaCOzmRWA3r+v6uL0nRNu27VEqq9sj9jnTr3f3jIyMlCpnnDlzphqgmjdvgZeXF0VFRej1eoqKCvH2tpEpHsEqokcGET2y7hIBRUREkJKSYj/Wh7j9pJfDTy2K+xqU5RMREpzmWp8mPFhRdQIoZ3xdo4h15e5UqbbVNhkr5ffff7d3Nq1RUlJSSEpKuup9BUEgMrKF9Fqnq9ljXBCEOinE7TSmUbep0ucEKNneBgWUTC4cxC5ZvAhtm1olOTuRZldY2K1FP8vlcvz8/AkLjyAsLJyw8HC8fXxqnJiVbkE21SigxvuNHDlSSo+cn5/PsmXL7Fd7B0lISGDNmjVS5ta2bdvSvXvN0Qf2yWecD3AVCgX+/gGEhUcQGhZOaFg4Xt7eN11LODQ0tMaxvl3EFhIv2q9MRrfygj8bFFAzjk8oBY45LNjlQs8mOF6eFbo9bm5uV7VRrqkbKxQEBgWj9vCQJp8gyNBqPQkIDEKQyRBFEYPBiC6/sNKuAHBQ94qLq5jYDh068O233+LlZVMjjUYja9asYdu2bZJXRXFxMatWrWLHjh2SU2yrVq3YvHmz5LdnNpsdgGPvE1iq15Obl4++zIBCqSQoKBh3uzzuMpkMT08v2zPcBKicANX8ttucFIreTlcOvXj2RWODAsq2K4m3g9rnsDvdSkV3H18/B29uaTkrL0eXpyMnL5/UtAtcuHSZPF0+ZksVnWY0Vv0+Tz/9NBERETz55JOcPn2aIUOGsHfvXsmbvTIp/6effsrvv//Oxx9/7GBrDRw4kAMHDtCqVSs2bdrEgw8+iJ+fH19//XWNu6PZbCG/oJBLmVmcTjnH8aRkMi5coLik2CFkRKVS4enldcPj4rTr33Y7FFh7Oal/+24JnzeNRIEEUeTvdkp5kwaU00p6Q6JUqaRV32w2k59fQH5BAfn5+ZSVGRw/q1TgoVbj5+dLRrrtWqWnRKUddOnSJVavXs3LL78MQExMDAcOHGDatGls3LgRsB3i7ty500HdnD59Ov/617+kHe/48eNs22aL7ravTmjfXoB/AL4+3hiMRgwGo63v+bZMBCqlEl9fn4p/vmg0WoqLiq47NutOUPkQhN5OO0zjAAorvzlRrHfNa7HcfUHaZMOdZj+ZTGYyLlwgP7+AwsIih6qFcrkcHx9vAvz9Ea1maTIWF4VKBZRSU1NrZPbsPd8DAgL47rvvWL16NdOmTXNQGaOjo1m1apVzkkmHUJRK28tqtZCeniZdDw4OxsvLC62nJx4eGgoKCtDl2xYDg8FI9pUcsq/YAKh2d8fNTYXa3Q212r3GHdlZwsPDnUmJCj/9pi9LWi1xK4PODpqXaG0cQM1Mnpy1KHZFqh2z46bWil2ApuQx0fxmdiiT2YxeX4a+zIBeX+YAIEEQ8NR6Siu7j0+VQZ9zJZvy8nIMRiNW5AiCgCiKnDlzmrIyPfn5BZINFRISgrd3defTsWPHsnfvXofgxY8++gbOjyoAACAASURBVKgamCqJiUqprLR45kyKBEa1WoOuoAi5XIHW0xOlUklgYKDkslRmMFCQXwmwAsoMBtu1Qts93d1swNJ4qHF3d6tRZfbw8JBoemyJeQKBK7cDoPTu2q4C2DvCnp+ZPDmrcXYo21KUINpRpQJCnyYGqBtW+Ur1ZWRedgx7d3d3IzAwEF8fG4Bqo5uN5eXk5uooKCwCZHh5+VBYmI/JZGLv3gTU6qoYTJ1Ox9atWx1q8WZmZvKvf/1LykZUKePGjWPBggU89dRTUmE4q9XKV199JX0mLc22K+3evUu6FhIaislkJjPrCkXFJbRr1w6ttqoPand31KEhhIaGIIoiRUWFXLhwkVJ9GQaD0aYmGo3kFxTi5+uDv59PrXaUnR9ii9sFUCDr7TSfb3nu3hKgbMSEIIWBCrYD3neaIqCuV+XzULujUCjw8FDjoXZHrXZHIZcTGBTs4ObjoP1araSlp3PxYiZWqxVBEPD28qRTp87s3v0LAN9/v5G33lpM//792b17N+Xl5QwdOpRBgwYRHR3NmTNnSEhIsC9oJu1wOp2OF154gfnz59O/f398fHw4cOAAyclViaRmz55NRkY6Bw5UaSx3deuOWq0hNy+fklI9fxw5SlBQIK1aRlc7aBYEAblcjq+PN74+3litVsrKDLZdusyAh9r9qsTEqVOn7Mf84O0AJwGhl712Koq3RkjcOqAEEuxrZ4iC0EdEFBq4okadAkoQBKKaVz8Azs/XERgYVG13ys8vIOXsOcoq1CyNxoNAfz+USgV+vt4cOXKI4uJiiooK2bp1M6tWrWLAgAGcPXsWURQdiAd7GTZsGM8//zwvvviiZB/l5eWxYUN1h+7Ro0czc+ZM3nlnoaSeNmvWXAoT8fBQk19QREFhEdnZV8jLyycyMpxmERGSGldeXk5RYWHV2i2TodF4oNF43LnEhCD2tLf2rCK3DKhbOiovS0xLxtF3K+Dtjl+0biLDVWdnUABmk4kr2VmUlZUhiiJlZXqOJyZx7HgiZXo9SqWS8NBgwkKCUCoVEpnRqnVVIOG2bZvJyrpMQkICY8eOrVF1HDRoENu2beP777/nvvvu4/jx4yxZsqTGSGNPT0/efvttVq9ezaZNGzh9+qQEhhZRbSpUTxtxEuDvS/NmYWg1GsxmE+fPp3Hw0BFyc/MoKS4m9xppzK4mtyN1/k78F1FORSxKDUGRibe+692iLIpbsc3eUVZAfGpm0uTPm8CYxQHHAaKiovjmm2/q5KYWi4WCwmLyCwptjqdyOX6+3vh4O57hGAxGLmZmIYoifx7dT3aWLV2XSqVi1qx/Eh3dkosXL3Ls2DHy8vLw9fWlR48e9gXNHLUBUeTMmTMcPnwYQRAICgqiZ8+eaDQa9uzZxfLlVflFYmM7Ed7MZtoGBvhV61tZmYEruTpJvVSr3QkK8Eelurlw/D179jB9upRVaRvwYFMH1MK45WMFUVhlp5n8MjNx4qBGVfmguqOsFVkfbEWhbztC4qrqrShSUlJKbl4+5oq4JG8vT/z9fKrRy/Zg0mo1PDz8Edav/xqdLo/y8nIWLnyTCRMm07dvv+v2LxQEgTZt2jhQ5aIosnXrD6xfX5VHtEWLKPr3H0BBYTG5eTpycm0+hfagUqvdiYwIpbComDxdAWVlBjIuZkrPc6M+frfjDiVYhV7220lFEkwaHVAWQfxd5hAJ32Q8JuoMUGVlBnLydBiN5RJxEeDvh5tbdZLCGUyhwYGIokjP3v349eftlJWVYTKZ+Oyz/3Du3FkeeeRRvLy8b7hPly5dZPXqLzlxooqYCAoKpmu33lgsFnx9bACqDVSCIODj7YWnpxadroCCQpuNVVxSWuOOe4OAkgHWJs5IOB3oivuaBKDcPDUHTMX6cqQKhWKbtzp/Hjj36JScRh6y2Mo/avP2vqbdZLaQm6ejuMSWR0+pVBDg5+tAPV8LTAAFhUVYLNCn7yCOHtlPXp4t/GLXrl/Yty+BQYOG0K9ff4KDQ665S6amnmfnzp/Yv3+vg80TFRVNp87dKSm1kSOhIUHXBBWAXCYjMMAPL08tOXk62+KRq6OouITAAD/U7tcONvTw8JDitLCdRUVRPZd4U7KfNFar1T5sWZQZ3Q42CUBN3ze6bHHsimMi3FWJfXm5rBfwfROwoYDrSx3mLIVFxeTk6hBFEUEQ8Pfzwcfbq1Z/wNrAZLFY0eXb2LPIyGa0jG7Br7/uJCXFRjMbjUa2bv2BrVt/IDg4hLi4eMLCwvHy8katdkev16PT6cjISCcx8ThFRYXVVMEePXrTtetdWK0iaRkXKSnVS1S3M6gqKf1qC6ObioiwEIpLSsmt2I0vXsrCx9uLwIBrl05t1aqVFKcV3W/ah2GdHk69bmbMKvt2z0cP/tJQE8NqEbsjVM19AU7XVVLWOknFLAokIEqAQpDRp5EBJXCDuficxd3NDVEU8dRqCAzwu6obTm1gqpzIVqsVrcZDOssZMuQB4uLi2bcvQUqqApCdnUV29vUf1EdERNK3bz8CAgIr2DwBXx9v8nT55OTk0TzS5hZkD6orOXmS/VcjNarVoNV4UFBYhC6/8LqJilatWklpnS2mshsqZm2VW88DDQYoQaCXPZ9pvYUI3XoBFFYhAUF8qUo1aXQ7KpKKnBc+Pj43VZzazU1Fi8gIiQK/GTAZjEaKS0oRBIEAf0faPjQ0nEceGUVaWiqnTp3gwoV0h0Pd2kSr1dK8eRQxMXHV0pFVgqe4uIRyk4nComIJODcCKkGwAdNTq0WhuL7EWC1bVmURK81Lb9Lmk4jo4GEuq4PzpzoFlID1d9GRge/WyI6ykrp3PamXa5NbARNAbm4+oiji6+NdYwi8IAhERUUTFRWN1WolM/MS2dmXKSgooLzciMlkQqVyQ61W4+3tQ3h4BAEBgVcNQ6lUTy9n55Cbl4+nViOxdjcCKuC6weQMKH1uelMGk7CYlQ6OkVZRbFqAqnCUPU9VQkk3jUboCiQ0RfvJZDKRmprK+fPnyczMRKfTodPpKCiwhTWUlJQgimKFt4CNgKjc6fz8/AgJCSE0NAylmxo3N7cawVRUXEKZwYBcLsPP99osnkwmIyKiGRERzW754bVaDR5FxejLDOTpChxsoBsF1fVKdHQ0MpkMq9WKPv+C1WwseUmp0pqva5KLYoP5fy6O/7wNVrl9CHVB2YnUk00KUBVrYwKI0VV6KX0aEVB3Oe9QZ86cYffu3ezZs4eUlBTMZvOtP7EgEBIaSq+ePelZ8c/DwwNRFMnT2cAZ6O9XJ7kbblQCA/xJv3CJgsIivL08HWyh+gCVu7s7kZGRNiddUZTtXzrmMNSdKlV3W5S8t5N6tX8BC6xNDlAVfn3jnYiJxiIk+tjvRs899xwHD9a9v6YoilzOzGTDhg1s2LABDw8Phg8fztBhw5ErVLhX7F6NISqVEm8vzwq2Mo/wsJBqtlZdgyo+Pl7yeq/4DZoeoJwcYoU67mOdAUouCAlWe18wkd6N5CjbBgiysV5y3n777VrUqwhatWpFs2bN8Pf3l9Q5QRCkxClgy+kgiiL5+fnodDry8/O5dOkS58+fJz093aHmrV6vZ+3ataxfv577H3iQl176+y2F3d+qBPj7UlJSir7MQKm+DI2HuhqoBAFycusGVB07duT777+3B9S7TW+HciQkhDpk+CpX87oz9mJX5gJVCrvM0m7W8adON/CQ/R34v+ortorBgwczYMAASTW7VbFYLCQnJ7N//3527tzJ+fPnHd5v1qwZr732Gl26dGm0+ZNfUERung6lUknzZjXn1SgoLJIOfoMC/W8aVBkZGYwcOVJqGluwoaWpYGlJq6+8ytzN+VQ5hVtFN6Pf7D+eKWxygAJYFLNiq31luEZwlA0DTmCXJtrT05PHH3+c0aNH3xR9fiPq3759+1ixYgVHjhxx2A1nzJjBqFGjGm0ipWdcotxkkhxlrVYrly5d4uzZs6SmppKbm8ulS5nk5ORQUlqCaLVisVgwGAzI5XJp8dFqtfj6+kq7eXh4OC1atKBly5bS2A4bNsy+bm+TCjhdGPPFfYJg3W43/Y/NSprYqUmqfBUISoAqQDWwo2wMNk9nCUx9+/Zl7ty5tXpw1+mjCwK9e/emd+/e7Ny5k4ULF1JQUIDVamXRokWkp6czffr0RiEoggL9OXX6DHt27+LUyWQOHDjgkLPimrtc/rWzK/v7+9OjRw/Cw8MlQAW1u+fDNkOm33IlS5lV9nVdeFIIgqWX4x4i1rmNV6eAsiImODjKimLfBpozrYFdQADY8uDNmTOH4cOHN8pKOHjwYDp37syMGTM4fvw4AGvXrkUmk9mHOTSIXLp0iTVr1vDdd985pDOra8nLy2Pr1q0O14qzTncBblnftQjWk9SJJ4VjhiNRpGkDqpqjrEDrd+K/CJpxfEJ95hgIALZUgsnDw4OFCxfSu3fvRlUv/P39+fTTT1mwYAE//vgjYKsFFRwczJNPPlnv7RcUFPDee++xfft2hyQz0q4VFER0dDRt2rQhJCSEgIAASZWTy+W4ublJIf+ViWVKS0vJzc0lPz+fvLw8MjIyOHfuHKmpqVKFRnspK7jEiR9ep/Xgv6NUezfq7zGPeTKguyOg5HWujtY5BbUodsUB+46LgjBiduLETfU0TgrgN6BnJZiWLl1K+/ZNp9yr1Wrl1Vdf5aeffpJsqnfffZd+/frVW5s//fQT77zzTjVVLTY2liFDhtCvX786zfNeGfy4f/9+fv31VxITHQNflWpvovs/TWCb/jd5f15O+HDo/92S/RS3PE4QheN2l3JnJk0MqmsWWlHXP6YokiAIVYCqSNxSX4D6ZyWYZDIZb7zxRpMCU2W/FixYQEFBAQcPHsRqtfL666+zbt26OidJzGYzb7/9Nps2bXKw7fr168f48ePp1KlTvTyjffDjhAkTOHbsGF9++SW7d+9GFEVMZYWc3v4Ol45sSOj46KKvZCq3G2L+rAh1oJrJejucP4liQn0c6dQ5oGS21GIv212qrwPeLhWAAuDvf/87/ftXrYA6nY709HQEQZDOmhpKdDodFy5cwGKx0Lx5c/z9/Vm4cCFjx44lKyuLgoICFi5cyOLFi+usTb1ez5w5c0hIqHJOCQsLY+7cuTXm9KtP6dixIx07duTIkSO8+eabZGRkAFBy5VyfhE8eMwCPAoUN2ScBqwMhIcpk++qnnTqWf8X+N1iB0j4GwagvEX3q2FFWwJaqqhtA165d+eSTT5DJZCQkJPDZZ59JZEDlChoTE8PUqVPp27f+eJK9e/eybNkyEhMTHYL/4uLimDx5Mu7u7jz//PPSe++//361+k43I6WlpTz99NNSskuA4cOHM2PGDCmPX2NJWVkZ7777rsOuCRwFBjYkqBbFrkipIK8qTBH6z06ctKfJA6qi8+ewq7wuirK7ZydP+L0OmxgJfAugVqv5+uuvCQ0N5b333mPNmjVX/eKYMWPqnL62Wq188MEHrFq16qqfe+yxxwBYv349YEulvGrVqlvypjCbzbz00ktSLJIgCEybNo2nn366Sam+a9as4f3337cnSHYB9wPG+m773TarAyyq8it2892kdzP6LPjjGX1dt1UvhyIiOIBHkIl96rjP/1P54oknniAsLIyPP/7YAUwqlYpOnTrRqVMnh/Iua9euZeHChXX6vP/7v//rAKbKtjt37uzQ9vr16xEEQTooTUlJ4eefb748sSiKvPHGGw5gmjdvXpMDU+XvNG/ePPvFYwCwrL4WdYdFR2nsZd+OAH/WB5jqDVAywdHLXBDrFFAPAR3BdnI/btw4MjIyWLlypfSBIUOGsG3bNpYtW8ayZcvYunUrDzxgO2/28PBwSH9cF3L//fdLYR733nsvW7ZsYdmyZfz3v/9l27ZtDu19++233H9/VTVV+37fqGzcuJEtW7ZIr//2t78xdOhQmqo89NBDvPDCC/aXxgH1jn5BcKxQKNaj066iPm5qtZAgyBweoC4dZSdX/jF69Gi8vLzw8vJiyZIlvPrqq8THx/Pmm286qHTe3t68/vrr+Pv7079//zpnu+Li4vjwww/ZsWMHL7/8skPbXl5eLFiwAIPBwOHDh3njjTeIi4tj69atGAwGTp48yZkzZ244EDIzM5P333+/SgceOZKJEyfS1GXChAlkZmZKai+21N0/Aan116rY24GQEMV6A1S9bLc1OcpaBLH93MTJp27x1v5AJqASBIHvvvvO4TwlOzsbtVotVQRsSlJaWkpRUZGU0ux//ud/JM+CbgMfY8Aj/+9GdD2+/ugfXDhjKyIZHR3NV199JR3EFhUVsXv3blJTUzEYDAQEBHDXXXcRGxvbYN7ver2e/fv3c+rUKQoKCggODiYmJobu3btjNpuZMGGCVNPKwz8yq8uTH2+5pZ1BlM3f9eGDF52vzxvwq8IjNz0f0NrZ9M1nJ0/IuG12KAFBXMTK/SBKuo5cFPoAtwqo0VR4YXTu3Lna4WRwcHCTXZk1Go2kFgIMHTpUAtTxAz/jHjfxute33LMJEpjkcjnz589HpVJhNBpZunQpa9eurTE/RYcOHZgxYwZxcXH1txeIIqtXr+bzzz+nsLA6iRcWFsYrr7zC66+/zsSJEzGZTOjzMkJyzyY8FdDq5i0Di8y0BKgGKI/cC53swYRA5uyk+gFTvQGqYutLEB1T8vYBPrvF2w60t5NqE92JErL2FaLPMoIIHiFuhPT0xi9WW+/AyT9RyuV9BVLbmlA3gnt64xfj2Ha3bt3w8/NDp9NRrs9Hr7uAh1/kdUxYKxn7qwiQ8ePH06FDB/R6Pc8995xDlXhnOXHiBM888wyvvvpqnduRYCs48Nprr12VaMnMzGT69Ok899xzPPnkk6xYsQKAjP2r8G/ZC0GQ1fE8tPRyyHciCvUaRV5vgEIQEnAMOOxz6xhF8tfp2rVr9VWqzEryfy6Sc7TI4XrhWT2Xf8/HP96TmGciUGrkdf645jILyUsvkvtncbW2M3+ztR37bAQKD1vbMpmMzp07S5Ov8GLidQEq5/Qu9DrbAqvVapkwYQJWq5UZM2Y4gCkuLo7+/fvj5eXFqVOn2L59O3q9nvLycubPn0/btm0dEqvUhSxbtswBTC1atOC+++7D39+f9PR0tm3bhk5ni7v6+OOPmTlzplSsTa/LIOf0boLaDazbHVMQetlX2BDq0X6qV0AptO4H69hRth0QDODn50eLFi0ciRCTlaP/m0bhWT0qrRKfCE90qYWYjVVeLnnHi/nz3TS6zo1Gpqw7W8JqsvLn/6ZTeLZ2JjbveDFH302j65yqtrt27SpNwMvHNx8KjXvo02u1lfrbZ/OwpUlj/PjxeHl5kZKSIh1kC4LAzJkzq8VfTZ06lenTp3Pq1Cmef/75OgcTwKRJkzh8+DDHjx9n/PjxvPDCCw4EzbRp05g7dy5799p8Urdt28bYsWP59FPbY5/f85+LQW0Hzrsp4JjkF2pBlIPLkSivX0DVq4W6MG75fkEUetgtD4/MSpy88SZvNx74AmDAgAG8+65jdHXalhzOfZNNs27BjFxyD26eKi5lZPLkQxPwygumj/+9CBWPG/1IEFEPB11FdTFSUlKCXq+vKL7mgaenZ63qSNrmHM6tzwYBej0dT9R9wZw5f4YFr7yJd14wvf0HV7U9Moio4ba2U1JSGDt2bOVtzgPXmuUdwVa6V61Ws337dskuO3/+PDNnzmTIkCG1nkMVFRWxa9eueg1rKS0tZceOHYwYMaLG941GI5MmTaJ9+/bMmjULi8XCfffdR1lZWeVHumDzpLhlWdT2szCU8kv2zasNRd4vnn2x3g6TFfWKVisJCPSowpPQB7hZQElct31t2Qp1kos7barEgOndcPO0bYrhkWFM+sc4Jk+eTI7xMo+E2Wjlizt1tkltt5wYDAaSkxM5f/4sV65kV6uV5O7uTrNmzWnbtj0tWkRVNW0VubDDlo+h/QNR3P03Ww3kiNZheAVo6datGznGLEaE2fLXXNyhI2qYre2WLVuiUqkqCYQowAsousoYSEcGgwYNciA5oqOj+eKLL3C/Si5yLy+veo8R02g0tYIJbLW6li1b5tD3e+65x/48bWJdAQqFordT/ezD9QkmqKeDXbv9L8Fp3t+KHdWx8g/7ki4A+mwjxnxbshR3X8eKGJUFmg/odpFvsk388mIzJRcNEiv1xx+H+PLLz9m373eys7NqLDxmMBg4c+Y0mzdv5Jtv1nDliq0Orz6rnPJCW0qywHjHmJ+uXbuiVqvZr/uFghralsvl9qqrAMRfQ5t4wp4lrMZoeXg0SkTwzYDOXpxAPrbu5qW1l9MQ1ns4fr2OvhmzM6PS9b1e69R1DShjYVWOvf2b/nB4r9IlSETkijGzSq0rNGM0Gti8eSP79v3uEM2qUCgID4+gffsOtG7dBl9fxzCL7Owsvv32a06cSKK8qKrtlONnqrFqZWVl1du2+47Ts3S8yvPHUpHNKSAgoEZSRhp3vYXLCQWcWZPFqRWXSN10haLUsgYFjdUkknO4iDNrszi1IpNzG7LJP1WKaK2+WHXp0kVa+LAldqkbXt/JQ0LWAGnN6lXl+2fStOwKR9lK20BVXmToipOv33VIBBURuZ6enoSEOOaYs2ft9nx0hG+PrqJLly5s376dH374QXrPV1kVwiG4ww8/bCQrS0ooQnh4BEOHDqdjx87VvLQvX85kz57d/PLLDsrLy7FYLPzyyw7ujr23CkDfp/J/of/HuHHjOH/+PNOmTbNruypZqcKuvzcAqAH2E7C2A9oLO/M4v+EKZr1jyNH5767g20FDh6cicPdX1uukyjlcxOlVlyWtQbI1v8/Bq4WadlPC8IxU2817gS5dukiRzRXPeuxW+rCk1RK3Mqfw+3KLbP9tvUNVqHmOu5TMcjPxE+0q/2jZsmW1yaQJc5dA5asI4ND64zz//PMOYGrv2YkgN1thMLm7jENnfpPAJAgCjzzyGG+88TYdOsSyZ88eXnjhBe655x5GjBjBu+++S16ejsceG82//rXIwYbam/wLMndbf/wUQXw+bxWBgYH06NFDYt5ivLoQ6BYqta2NqLJznFJFXy06sr+9KlmTnF2XTcpXl6uBqVLyT5Ry6PVzlF0pr7ff+9KvOo7/O6MamCRiJK2MI2+lVmNEnZ6p/632Q++u7Qq42a8p/zw5/vJtD6jqjrLCzdhR0qyLjKx+ViPIIKxfVXWL0eHT6ON/L1qFFxq5J738BjG2WZVrj2cnJSnnqpw2JkyYzPDhI3juuefw8/Pj/vvv56OPPuLXX39l06ZNkndBaGgoJ0+eYs6c14iOtm26FtFCaUi2dK/HI56mj/9gNApPNApb22MinpHeD+vni0xRtSA4eXtcjeWToqA7d+5cfVc4UkT61hw8/Nx5ZMk9vPD749zzYTwJsq0cyv8Ni2iWVN3Ef2fUqHrdqhSnl3H6y0wQwU2rovPUVrR+0Z+UsIP8nvcT5Vab7Wg2WEn8KAOLwVoboOogIlLmnFSkQbLYKuodUFbr7xZHurnPPObJbjCfdMtaJqAkLYYHknO0GH2WEaVMxfDQJxkeWj0ZinuAknTvY2DjCLj77v4MGHAPP/30k3QeUqsqk5PDs88+S2JiIi+88DJz586grKyMC77JdCgKxqwTK9oex/DQcdW+rw5UEe1E14eEhNgzfaHY3GScM574A80q6XLnMziA8xtsx3v3/rMnrQfaCg50G9CZf3z4PP379+dQ/m6mtZiJUqaiON1Azh/FBN1V3efRYrFw8eIF0tNTKSoqpLS0FIvFglarRaPREhnZnGbNmtfIJqZuvIJoBZlc4JH/9icy1qYRDJ/yAAMHDuSDA/N4NnoungpvjAVmLv6io/mDAdJCqdFoKC0trRyHYCD75vkwx5TL9ZHhqFF2qH8kTz4J6Owu+XrEtmx7sztUs2Y1V6dQqOV0eqU52ma108aacHfaPBfIZZ3N5UupVPLYY6MBHGKpAgMD6d27NxMmTGDEiBHExMRIjqcnTpzg6NGj+Pj48MADD9kmodxMac8MNOFuV2nbjc4zWzjYT2DzmHCqURtdw9c72au8zkyePssoMYfN7nL0Z+zbty9KpZJ0/Vl25Val+bpy2NHPrry8nIMH9/PZZ0v54YfvOH78T9LSUsnJuYJOl0dGRjonTybz449b+fzzpfzyyw4pGxKApdxKXpJtHQiO8ZfAVMlmTp06ldzybLZkfV1jHwRBcD5sjr81U0Ps4fBaFPbeEYCqCNnY56j23XB81DV3KAB1gIru81vSdkIYPm00KD3lKLVyvFt70HZ8GN0XtCRbf1GixWNj46SC0ceOHXOgcYcMGUJ0dDSdOnVi1KhRDmdfR4/ajkl69+4r2XMZurPcNb8lbceH4dPGw9a2p63tNuNC6b6gFepAVY39dlokWt0IwwlQermKocxMdayAmJqaKuVfP1l8tMbvXLp0kS+/XM7Bg/soL7/2MY3VauXEiSS++mo5SUk2O9GQU47VZBtXnaF6eeXKaie19QGq1fLqeLNz7u1Oy1sIEG4/RIagyMQ7QuWrkARsgYG2HwSxD7ZozeuVqOsBFIAgF4i4x4/IwQEolUqsVqtDQv/i4iI7QqDqB7RP4rJ582bGjBmDr6/NLjt8+DAnTpxw2MFs3wnA19cPnS4Ps9lMmVFPxCA/mg32R6FQIpMJlJeX13iu5UBhOj5T1NUAVVPclGipuv8X877huf+OJyQkhIKCAp55psp+M1tN1b6TlHSc3bt/RRStdmpoKF26dKNNG9uRgVwup7CwkLS0VP788whnzqRI6uGuXT+Tm5tD1+gqkyUt6SJ79uyRUqUZjUY++eSTij6YEREREBDNjuNyA4zn1eeAxbHCuyAIBxbsGmi+YwBVUerG7gFrPuAdNWqdPDPUYwVOe3VpblqyWiXXuLvJPT7dXZ4jGUBXEa1a6SuXCUqAMqO5uNxsLQMwGyN90UpJhAAAE8JJREFUrUEhKo3aTftdorthy+nfTACBvZ53GxY7XmW1mBUWi1lxtKBE5W5wF80mkyCE3me595lhFoVCZRRkMnFLimfpT+//ZgUo8R6sMarLrcZyk+Hjn0sKBbnR4KaUadxVCg2A2SIaSw2mqyYjKQkd4TFg2gBtQYkxR6n2GqzSBjhEQP6xYupDhqKsWgGlDqxSNa1nVbRu2ZroVtGcP3/eIQFltKaKRPQIcuP8+XPs3v2LBHgfH1/GjBlL9+49HZhUi8VCeHgEHTrE8OCDQzlzJoXVq78kLS1VAqUKNYLMG9EqEqQM5dGHRjFm0miCgoJYt26d5LgbrWknuWGpg9yutkPdtMonWIVeDg7m9ewQ2+CAUmk9Djk4ykLrxTHLQ2YmT3bQT877RsvUZDla84KANtC2aJuASzpT9PW1aqqtN4CKHAOQXw5UUshKm+0vVIyKN+ipIl4rlBMtVsi/WBYAZXZas7vtn9G+3RvxcNGAWoNWXdPuJGIqK6gCRXT1x9c2c8PNV4kx34SXwofe2iH8dHyDw2e8lb4MChpW1WJbBT/9tEkCU6tWrfnb315Cq9WSkJDA/v372bJlCwcPHsRkMtGhQweGDRtGr1696N+/P//85/+wcuVyfv/dljjoSNIBOkfchyFDRC4oGOwzgn9/9G9EO2LATebOgyGjpdcBHR2rfDg9Wytsv8YN05HORanFBqxT1SCAmr5vdNmi2BVH7OlQQZD1Ar7DJVeV8tJ8LCYb4eDt7V1jNLIgE2j+YAApq2zHLIOChuPvFsSh/D2Umotp7tGaQUHD8VT42Ca2r5Kz1mOSXRMWFsZLL72CRqPhkUceYePG6u6Wx44dk+zMNm3asH//fqZMmUZZmZ4//rDVA8j0O41fhm2X6ezTG63Cm9/zfqTQlE+IewSDAodXncepZDS719EDRavV4uPjU1ma1QNbNZVLNzJe78R/obFarfbqoqgoVx24owBlZ0f1dLKjXIC6hhgKL3MthhOg2WB/8hJLyDtuY946efekk3f14xyZQqD5OB++339aYtemTn0WjUbDjz/+WCOYKmvnVkpKSgoffPAB8+fPZ8qUp0lJSaG4uIhsRRrNurSh9Ihtf2itjaG1NqYmpop2k8Jw863usREZGSnVOq7YpW4IUGar5S4ZgsKuqdOvpIzNveMAJUNIsCL+w+5SNTvqj/90Nfd5YfM4F4yqJCvpp35UZAa6GqAQIP6FSE5/kUnm7/k1Kkpuvkpin23G2eIkSdXr2rUbUVE2VWvDhg0O6ld8fDytW7dGpVJx7tw5Tp8+LTGc3377LfPnz6/IIjWUr79eDUBu1Fnah/ckfUsOYg0njQoPOe0mhhHcw7tWgsYuSWkrYPeNjJccWW97NVNs4LKkDbdDyYQEHE/nu87rutTDMT+aICZ8yCoXjByk/fUynDKlQPunwgm/x4+svQUUp5dhMYq4+ynw7+hFSG9v5CoZGRvSpO/06FHlP2qfbbdfv34OB8jt2rWjZcuWHDt2rII2P4HZbEahUNCjR0/WrVuDKIpcuJjOQ88OJ7SvL5d/y6fwrB5zmQWVtxLf9hrC7vZFqa09Yvo6jhCuToDhWPKzIQmJBgXUjOMTriyKXXHWbpCUGpOqK7bqGS6pXa77yKBSvKLUeEd7oFTaVCrnhC1FRVVHBy1bVjFr9oXptmzZwhNPPCEVNDAajXz77beS6hcYGIhCYZs+vr62Mjh5eXlYLBb0+lI0wVpaPhaMTC5HqVBgNpuxWK5dI+A6jhCuBiZhMSt7OFHMDVpBsWGDZwTRwa/PKjZapfjbSaRtojIF2TVXSYWSoOAQAoOCCQwKJjgkFKVKRXm5ifyCIvT6Usl+8vb2kkJXnnrqKckLIycnh6VLl3LkyBHS0tL49NNPSUlJkdqYOnWqjUs1mRBFEW9vH+m9CxczKS3Vo9FqCQ0NIyAwiJDQMLy8r10jyukZm9/IQC2O/7wNtvCPSikoO5F68s5U+QDRSoIgMLEKX4ILUDcAKCcXpVrFz88PhUJBebmJwsICdPkF6HQ6jMbyCsAppANng8FIy5YtadGiBQMGDGDt2rVMnjyZ0tJSjEajfVV3CYSvvfYavr6+3Hvvvezbt4+TJ09iMFTFWxkMRjKzrnA5OwetRouvrw++vj74+HhjKi+3D3evJk7PeEM7lCDKHOhyBPbfoM/o7QUoBWKCxTGNxc04yv6VxA0IqQTBtWoFW61WysvNpGdcQJdfUK2OrkIhx0OtRu2hkdTAlJTTZGVlkZWVxcmTJykoKKB169aMGzeO5ORkh+8HBATw6aef8uijj9K/f3/27LGdQZ06dYq8vKrD9rDQEKwIlJbqKS4pprikmIwLF5DL5Xh6eqJUyPBQq1GpqrN8AQEB9s7CQdjo8+vKQy46HegKDUxINDig/pE8+eTi2P/f3rlGR1Vdcfy/752ZZPKYZPIiIIZXQDCJ4qNgMLRC6eoSH6taSn1C0LasuhQUJAGqBkQkARUSsRVbTIKPpSL2A4LaZSlmNaBIRMlDkBDAYgIJeSczk8nM3f0wmcnkMckQIPM6v6+5k3vvuft/zj777H1OYT1s2dMAoA9PGjMZ5agQ2umXMXa3fMSIES7L21ta29DS0gZTR0ePNCdZlqGPjECkPhJRej3a29tQV3cBYWE6NDfZTjf87LNP+7hbU6dOxZ49ezBt2jTU1tY6RrX3338fs2fPBoAeRZ5FRUUOtzE0NAxmixWTEhOhi9ChqbkZjY2NaGxsQnu7wTkkDpUsQxuiRUy0Hiq5e3u1+Ph4+5lS1NUG7rlthBmeDEgMu6BsO8oWHATg2BDBAroVEIK6FHfPbO6E0WRb/A0OCkJsXCyi9HpERkY4UogaGxpRefIUOjrMGDFiJH46ewYAUFJyGEQEZsaxY8cwffp06HQ6FBUV9QhmWCwWzJkzB6mpqQgJCcG+fd1nSFdUlEKns23kGT9yNIxGE46WlSMuLhYTJoxHdFdgw9zZiXPV1ahvaES7wQiLxYLW1jbExUT1mUfZD2nraoNBBZWX+LbOCMuUHlP0IPMhvxaULejCxcTkEBRJuBXA34V2hh6Q0OnCoNUGI0Qb7Dguxy4mg9GIU6fOoK7OlgGuVquQkpyMEz+Uo7W1FaGhWtx772+wa5dtjf3QoUN95kyyLMNisYCZHXvq2Zk16zaEh4c6Rpdp06aDmdDU3ILz52tRX9+IhISrcPXo0basLpWMuNhoR0fQYTb3GXl7dR5j3WkoQ5CSSoBzPL5sZcni5uH+YMO+RU7vCl6IwMRgLt+ggtKo1QgN0TpGI4PBgHPnzuHYseP4+usS1NXVQZYkxETrMebqqxAeHo4ZM7pPTgwPD0F6+sI+aU2zZs3C/v37UVpainnz5kGWu+1VrVZj/vzfYfz4BMd9U1KuR3RUlOM+oaEhsFg6UVV1Gl9+dQinT5/u4ZJqNGqEh4VelkgfkbXXDkc44IkPNuwjVLCh9ZAxWNeB7nr/xP4SZQVDi/AxM9ra2lFX3wCrVQERITwsFDExUY55CgAkJk7CiRPHUVV10m6QyM3djLFjx8NsNjtK/u3s3LkTTU1NKCkp6SrnaMTevbsdbqFeH4Vp01KdBKfCqPg4GI0m1NbVo6PDjJ+qz0GrDUZcTHS/AQkXgnJrhGJQKvVoh+EPSHhEUEsql3TkJBccgVNeH9smkx95mzWnLdl9DwMPeur+TT8e0XPjiTKd1BzfiJFN+yvaBzynOJjMoTp160g1KcEAYGZ1e4s5vOasSTahvu9Pg6/+haStbRpnbKvXMjO++GIfystLcccdd/XZOw+wld9HRurwySd7cPJkZbcRaYItsdfMqTp40mIG+pYdEUdQuNoYFSYb4oxGk3zmbDUbLEENzZawWgXUZ7W3AaOCbpl1t76ZI85JkRNjIxNu+LC/95VZXl/06twjWciSCOixoCsp7BFBkSduujG5YBMDTzt1J69kli9a7m2Cmrn049XMWO8LQ9n1o6xIG2crHWkxEYpPq1BVP/ihCBJ3YoTpS4R2nu0zd4qPHwm9Xg+VSo3GxgbU1FQ7MtQdARE5EjXaNHRK4YPeS6th3JJgwZQRtsUTg5nwzjdBMFuH9s6sSHOLt879JDslP4WYjjr96UJG2cK4y3TAn3ePUPbABJgcgmJJZExcKpX1Em4aTSg7J6PkrAyr4l5fqZAaNdo0RKgqEWUqg8zdO+rW1FSjpqa6/99BRotmEhqCU6DAvdNMjGbCfyrVKK2RMXOcBQ0GGrKYenULPbdcJhzwhJg8Jii5I+i/Vo2Z7SMkMd3YN1FWcDG0dxAKD2vcFlJvR6VZPRGt6vEIN59EqOUnaC21ICh9rjNJehjUo9CsmQgrBQ/pWS+0S/hnmQbyZQqJEZTUHkd+wjPunscE9fQPD1zoSpS1Z2aqteagmwEUeZORKpB3ga3HfEVUFuulefBWyGhST0KTehIkxagJ7Twfp0FrhMRWjVkOazBK0fVmWd/mZLmX+LyX+Hu585uuYTa15+SFDgSUoLqiMMVEDkGBbImyXiWo4tzbjwM4LsY/7+XFyYXRIHbejKLTqOk47KnnkTx3Y+p9MsfsLGRJwkQE7rIh5R29rOLn0DO49p0npw6eG6GIip19BgLmhKSMO5rNhdnGmIT3hmvbJ4EPjko3vBkrddKT4M7HYTtTy6ljpoOefDbymKDAtDG5sAZdx3z2ooqJNoYYmwuu9AFZAt9h/ZS3Rqoky9MgWgwg1IVB/zqjLP1fAScoANiYUvAnZvzNpetJqGbQyzLRthVHF7QLkwpMspN2JEiSksGMR2Hbs60/6gm0LqNsYW5AjlAOUSUXTGBGBgiLYNscr9/GAnirWrHmLav4Q8Plunfakt33EFO6rxqaQvioOO/OQr+dI03NHytZ6CnYNqlxJaQ6gP/KQebNnkiG9TpB2Xlpyj/GWGXVMgB/BODqlMM2AG+i05qTefzR6ku958wluzMYlOOrBsfEm4pz78rwNyE5dbKPDDDPPw+izQaN6VVvWr8kb2vMTdftiFMU62MAPQnA1SYEHQB9oCjS86sqHq4UgvIT1y4lP4VYWgHwA4Cr9As6Q8Dm9jZl29rTi0ze9g4qb3ugFUcX1AJYk5f49itGrfXPYM4AENXrsiCAH5Yk6305yYXvWUl5cXXpomMQ+OaIlJQ/lUlaDeZ5ALvq5KuIkBOhMeUvLlnc6a3vQt7e2GuSPggLIeOjCnhFryNKekwnAOxVmJ9fVb7oa3f/94wn9k6QYL3WVw1RkqmyaMud3/uukApuZcJK2E5mIRcWWs4KNhpjx7zrC0sp5CuNvybpA00wDPcR4Rl0pyz1R7GiKM+tqnhkn+j7vdS1S9qRRqRkwmkrhH44yoyXx18b8s78nfOtvvJu5GsfIwtZUmjK2N8y01oMfMhzMTPnZJanf+ypzGNBr/lxSuEchXkdBjxDlw4wK9m++t3IVz9OFrIkbdLYOySiZxn42QCXfsuMzb7W0/kLDKacpII73fhOxcycs7J80W5ffl/yh4+WnbQjjaCsAeGXA7ypT/nivo69wyOiNQBuDBQXnfzpIzr55q4nuYzTRLRFFa59Y9nB+UZh+peXbTdtUzeagu4notUAX+Ny4AL2gGldZvnCQ/70/uSPHzU7afv1RKrlA69n4DzAr2tN6leWVD7UMhzPNXPpxw+Bcb+3tlt8jeHunUN0i52CRs/C9akZtmgsYc2q0vQSf7Q9vxSUHTdX3C8A/NrlTmvqj7Slu9eB6RlvbS+jKV5T8sbNF7XGk5eYF2TS6hYy41kAo10LiXYBlJVZtuB7f7Y5vxaUHU+kNfm7oOzrgwzOBOBq08BOgN6zynhh9XcLfwgEWwsIQdm5mLQmAq/NKEs/KQTVk5xrtodDo3rMRQaLHTMYBSpSXlhe9sj/AsnGAkpQdl6cXBgtq5QnAHpiAKOw9a6XMa3p50t2T7QqcqK3tkvx1ts/hYu1n5cmvRtj1XQ8DtBSAJEu/kU7gO1XcpQXgvJiHG4LcQYYowaaSAPS2syyBYcDrY3sozqDnqJe1bFOtALIJ+YNgb4DcEALyklY7kSowMDnMtFzK0oXHvT3NslO2pFApCwfZN5ZD/BWhTS5q0ofbBSWJATVg+41FKyEG2lNvr6q3x++WNQnBOXlBGJaky8X9QlB+Zbr49dpTZuu25GsKJzhy0V9QlC+Kiw305p8wfC6skn+AvC8AezgFIFyg03Nr4vdp4SgrqQhel1ak9uunR8W9QlB+YOwri1IIokyAb4fg6Q1eUMUzJ+L+oSg/AinqNhA4eVWAPkWq5z9l+8frhnWOZKtqO95AKkDWMERAm9YUZr+oSjGFILylsm9e2lNjMIrnZITaEV9QlB+jKfSmoCLK+qDhKzMo+n/Fl9MCMonGM60JvuCtERYxcBk1yMXPpcV6ZkVFQu+El9ICMonyUvMCzIE6X5/JdKa3NwJyu+L+oSgAhB3RxF35jWiqE8IStBrnjNowIBwhBVsMZafenst1ioX4UYGXFGfEJTAFolLLpxLoNUAzxjg0lIGbSRSxoFpKYBoF9eZiLBdUaSNK8sX/ChaWAgqYNmQnH+bBFoN4FdD+Hk7mLdZFNVLw73GJRCC8mq6Ns1fNkhak502AG+Koj4hKMEg2DLAlZUA7utHWA1EyLVC/aoo6hOCElyMK9iz2K8N4Nc0Kmx56ttFTaJ1BIIhsn7KWyOzbtoWIlpCIBAIBAKBQCAQCAQCgUAgEAgEAoFAIBAIBAKBQCAQCPyS/wMCSCt5IbladgAAAABJRU5ErkJggg==;" parent="KPgrsXEgDjS83-H8w_TJ-41" vertex="1">
          <mxGeometry width="61.16" height="60" as="geometry" />
        </mxCell>
        <mxCell id="KPgrsXEgDjS83-H8w_TJ-40" value="" style="whiteSpace=wrap;html=1;aspect=fixed;fillColor=none;" parent="KPgrsXEgDjS83-H8w_TJ-41" vertex="1">
          <mxGeometry x="0.5799999999999841" width="60" height="60" as="geometry" />
        </mxCell>
        <mxCell id="KPgrsXEgDjS83-H8w_TJ-42" value="" style="group" parent="1" vertex="1" connectable="0">
          <mxGeometry x="-246.52" y="-1880" width="63.05" height="60" as="geometry" />
        </mxCell>
        <mxCell id="KPgrsXEgDjS83-H8w_TJ-21" value="" style="shape=image;imageAspect=0;aspect=fixed;verticalLabelPosition=bottom;verticalAlign=top;image=data:image/png,iVBORw0KGgoAAAANSUhEUgAAAdMAAAFICAYAAAALXxQtAAAAAXNSR0IArs4c6QAAAARnQU1BAACxjwv8YQUAAAAJcEhZcwAACxIAAAsSAdLdfvwAACSqSURBVHhe7d0HlFTl/f/xufdO393ZXerSe+9NAUEQUESUWPJTo2KNRoPGxN5+0ViSaGLDSERj/QUVCzZEwRVQpChIUzqI1JWy7Gzfaff+9yZf/LsuZXdnZ3buzPt1zh6ez3fWJOdE/Zznzr3PVQzDsAGovaBuc8rScjTFFjF/JAKIEmUK1JH3+XzL/sNz1wDP/fcM9N4rEUCUVPkTAADUEWUKAECUKFMAAKJEmQIAECXKFACAKFGmAABEiTIFACBKlCkAAFGiTAEAiBJlCgBAlChTAACiRJkCABAlyhQAgChRpgAARIkyBQAgSpQpAABRokwBAIgSZQoAQJQoUwAAokSZAgAQJcoUAIAoUaYAAESJMgUAIEqUKQAAUaJMAQCIEmUKAECUKFMAAKJEmQIAECXKFACAKFGmAABEiTIFACBKlCkAAFGiTAEAiBJlCgBAlChTAACiRJkCABAlyhQAgChRpgAARIkyBQAgSpQpAABRokwBAIgSZQoAQJQUwzBkCaA2pnxR+qwsLWdiW8cHZ7R1fiARQJQoUwAAosRlXgAAokSZAgAQJcoUAIAoUaYAAESJMgUAIEqUKQAAUaJMAQCIEs+ZNpBVB8ODblpS8pREy5k6Iv26Po3sayRWk1emt7wot+gtiZZzxwDvg+PbOOdIPKJT3vcvkaXlXNbd8/zlXV3PSwQQJcq0gSzYGxo78aOiXImWM2+ib9SIHMfnEqvZXhzp2OsN/zaJljP95PQrJndxvSTxiLzP51v2H567Bnjuv2eg916JAKLEZV4AAKJEmQIAECXKFACAKFGmAABEiTIFACBKlCkAAFGiTAEAiBJlCgBAlChTAACiRJkCABAlyhQAgChRpgCQwL49FOkrSyQwyhQAEtTHu4ITT3jHv+aS+cVvFASMRjJGAqJMASABFQWNzCmLi58x17O2B/9nwCz/t7N3BH/xnw+RcChTAEhANy8tmZpXamst0ba/TG9xfm7xu+xSExNlCgAJxry8O2Nr8FKJVZi71P5v+dd9sCN4toyQAChTAEggP728ezQHKvScC3KL3zF3qYcCRmMZowFRpgCQQG5dVvrETy/vHst/vkt9y//t+zuC58gIDYQyBYAEMXdX8Iz/2xK4XGKNmLvUC3OLZ12/uHR6ULc5ZYw4o0wBIAGYl3dvWHTsy7vH8sLGimtOn1O4YH+53lxGiCPKFAASwG1flj6+u9zWRmKdLNsXHj7svYIVq/PDA2WEOKFMAaCB5e4OjX9lc+AKiVExv2897cOiz3gmNb4oUwBoQOURw3PjF6XTJNaLkpCRfsG8wnceWll2n2GzKTJGDFGmANCA/r6m/M7tpZGOEuuNoarKQ6vK7716YcnLId3mkDFihDIFgAayrSjS+fHVFbdKjIlXtwUmX/BJ8TvmDlhGiAHKFAAayE1LS5+qMAy3xJj5eHdw4qSPi+eadwzLCPWMMgWABrBkX3jEJ7tDp0uMucU/hEaeNrtoAef6xgZlCgAN4E8ryh6UZdysLQgPOOOjok8o1PpHmQJAnM3fGxq36IfQKIlxtSY/PHDS3MI5RSHDJyPUA8oUAOLsgRWl98uyQXx9IHLihbnF7wQihktGiBJlCgBxZJ5S9OWByDCJDWbh3tCYyQtKZkYMmyYjRIEyBYA4emZDxfWybHDmKUm3Lit5QiKiQJkCQJz8UKa3eHdb+XkSE8Iz6wPXP7uh4rcSUUeUKQDEyXMbK64L2tSEe03aLcuKnzRvipKIOqBMASAOdMOmvrip/EqJCSWsq/ZL5hfO3Fmit5MRaokyBYA4+DwvNPqHMlsriQnHH1AaXTS/+E1eMF43lCkAxMGb3wUvlGXCWnkgPOTur0ofkYhaoEwBIMbM3d473yfWjUdHM+2bst/N2x2aIBE1RJkCQIx9sjt4unkZVWJCM1/ddu2iouf8ASNbRqgByhQAYmzOztCZsrQE87vdW5aWPikRNUCZAkCM5e6pGC9LyzDfgxrPt9pYnWIYhiwRT3tK9dbm6SMSLecX7Z2zcrxqnsRqzEO0X9sSmCzRcka3dHzaLUvbKPGIpq+vmCJLyxnc1P7VoKb25RIRQ+sLIr0Hz/J/I9FSOvu0LcvPzezj0pSAjHAUlCkAxNAT35TfctdXZX+TaDl/Guy969Z+nr9IxFFwmRcAYujTPcHTZGlJj64uveNghd5UIo6CMgWAGDFPPVq+L3SiREsqCiu+h1eX3y0RR0GZAkCMbPJHephlJNGynltXdt2OEr29RBwBZQoAMfLlgfBQWVqaeTj/k9+U3SwRR0CZAkCMLN8ftvQl3p96aUPw1/vK9RyJ+BnKFABiZFV+eKAsLa/CMNy89/ToKFMAiAHDZlO2Fka6SUwK/9oQuDqk2xwS8RMJ+5zphzuDky5bUPKaRMv5bFLm0F7Z2lEf1DZfx3TuvOIPJVrOB6f7ThvW3L5YYjXmzQqD3vavk2g5/xiRds2FnVwzJB5Rp9fzd8nScm7snfb473q7H5N4RGNnF36xJj8yQKKljGtt//j1sb4GPVjePJily+sFlv175Gj+PSbj/HM7ON+UCJGwZfre98Fzf/Vp8dsSLWfZ2ZkD+ja2r5ZYzYK9obETPyrKlWg58yb6Ro3IcXwusZrtxZGOvd7wb5NoOdNPTr9ichfXSxKPyPt8vmVPPLlrgOf+ewZ675V4RMPeLfx6jUUvU45v45zzzmkZEyU2CKv/M340Y1rac2dPyDxVIgSXeQEgBjb7I91lmVQW5gXH5JXpLSVCUKYAEAPm1RlZJhXdUFXzyqFECMoUAGJgf7nRXJZJ5+3twfNlCUGZAkAM7CtL3mcyl+UFhhcEDEu87DxeKFMAiIH9FXozWSadiKJq5g1WElGJMgWAGNhXYSRtmZpydwct98LzWKJMASAG/IFwY1kmpSV54RGyRCXKFADqWcSwaWFdtUtMSlsKQ13zK4wmElMeZQoA9SwQMVyyTFqGqiorDoROkJjyKFMAqGfBiC3py9S09lCknyxTHmUKAPUsoCf/ztS0oSDSS5ZHVRg0ssyzutfmh/t/lhc65f0dwXNe2Ry4Yuq3FTf9a2PFtS9srLjmSD9vbAv86tM9oVPNv253qd6mLGx45T8yIXE2b4xwNi9n8yYyzuaNrb1leqvOrxXslpi0+mbbV+We5Tt5kz/SY11BpPfmwkj3HcWR9jtKI213lhjt9pfpLeRX64VHU8obO42DzdPVvG4+x6YuWdqmzpnali4+dXPln5u9dqVMfjXu2JkCQD0z/6Uvy6T2rT/Yr/lLB4tGvl/41bWLSl54bG35bebpSCv2R4bWd5GayiOGZ3e5rc3XB/QTXt0WmPynr8senDy/eObQdwtXNX3xYEm3mfk7zplX/OFDq8rvnbc7NMEfMLLlL405yhQA6pnHbmuwHVI8mef0mjciSWxQ5v+OXSW2tnN3Bc94aGXZfWfPLZrTesbBgye9W7j8jyvK/rJwb2hMWLfF7A5ryhQA6plbUyo0Q49IRAMxy35Vfnjw39eU33HGR0Wftp2R/8N1n5c8n7s7NF436rf/KFMAiAGvXUuJ3amV+IO2xi9vCVw5aW7Rxz3eyN9uXg7eX67XywsJKFMAiIE0l1EkSyQg85KweTm4x0z/9puXlk7dU6q3lo/qhDIFgBholabukSUSmHlT0z/XV9zQ7y3/JrNc63rgBmUKADHQ0qtRphZiPsdqXvYd/k7ByhUHwrU+2YkyBYAYaJOu7ZIlLGRDodHzlPcKlvzv8rK/1maXSpkCQAy09HKZ16rM97U+urb8dnOX+vWB8BAZHxNlCgAx0D5D2y5LWNR/dqmzC5bct6LsoePtUilTAIiB3o20tbKEhZmv0ntkTfldw9/zf73yYHiwjKuhTAEgBjr7tC3pDqVEIixuQ4Hea/QHBUuP9l0qZQoAMaAqNr1blrpOIpKAuUs1v0s966PieTL6EWUKADHSr7FjjSyRRE5uaV8oyx9RpgAQI4Ob2JfLEknCvHT/216eqRJ/RJkCQIyMaeX4RJZIEtf0cE9r5FLyJf6IMgWAGGmbru7o6NMs+5J8VOVWlIrre7mfkFgFZQoAMXRKS0euLGFxV/V0Tc/xqnkSq6BMASCGKsv0U1nCwpw2Pfi73p7HJFZDmQJADI1r7Zjr0ZRyibCoy3t4/9UmXd0psRrKFABiyOdQis5o6/hAIizI/K701n6ev0g8IsoUAGLsws6uGbKEBV3V0/VMqzR1t8QjokwBIMZOa+38KNutHJQICzEv0d/U1/M3iUdFmQJAjDlUW+j8jq6ZEmEhv+nhfrqFV90r8agoUwCIg9/2dE9VFV2XCAswTzu6qZ/7EYnHRJkCQBx0ydQ2n9XO/Y5EWMBNfT0PN3GrByQeE2UKAHFyS+W/nGWJBJfjte25obf7cYnHRZkCQJwMampffnILR7U3jiDx3D84/e40u1Iq8bgUwzBkmViW7AuPeOjrsvskWs5TI9J+c6wzOdfkhwfc9WXZce8QS1SPDEv7Q69s7RuJ1ewr13OuXFDyb4mW84d+nkfGtXJUe2fhTw2dVbhSlpZzdU/X9Ku6u6dLPKIbl5RO2+qPdJVoKSc0ty+7d5D3HokJxfx326nvF3xuqKoiIySYk3Ici+ZN9I2q/D+oxgWZsGUKAMnqioUlM2ZuC1wkEQnEPDZw6XmNBvTI0tbLqEa4zAsAcfbgEO/taWrNLyEifm4ZkPbX2hapiTIFgDgzT9O5ZcCxj6dD/PVrbF95W3/vQxJrhTIFgDgrCBiNioJGpkQkAK9dKXtpdPrFTtUWlFGt8J0pAMRJXpne8pn15dc/823g+uKIkSFjJIB/jky/6rKurhck1hplCgAx9uX+8LBp6yp+9+735eeFdNUhYySIy7u5/jVtRPrVEuuEMgWAGNhRord/fWvg4te3BS7Z5I90lzESzMCm9uW5E30nuzWlQkZ1QpkCQD1ZXxDp/dGu4MQPdwYnfZkXHMazpImtfYa6feFZmcOaedR9MqozyhQA6mh3qd5m6b7QSYt/CI/8eEdg4s4yo518hASX5TIOzT8ze0T3LG2DjKJCmQLAceiGTd1Zorfb5A/32OCP9FxxIHzCkn3B4T+U2VrJr8BCfHajaPYZWacObmr/SkZRq1amYd1mLwlxlxmA5FYRMdzlEcMj0ZZfYTQ5UK43O1BhNDXvuj1QoTfbV6bnbPHrXbYURbr/9HdhXeZhGe9OyJhgHhkoo3pRrUzf+z547q8+LX5bIgAAScG8tPv2qVmThjW3L5ZRval2aMPWokgXWQIAkBT+e7NR9vBYFKmpWpl+V6R3kiUAAJY3oLF9hXnXbtdMbZOM6l31Mi2MdJYlAACWNrGt8/25E32n1MfjL8dSrUy3FYYoUwCApbkVpeKBId47Zo7LOCfdoZTIOGaq3IBk3q3W9OWDJbqhcgA+AMCSumcpG14a7buob2P7ahnFXJXS/L5I70iRAgCsSNF145oe7mmLz84eFM8iNVUpzj2lemtZAgBgGf2b2L/+dFL2iCeGp03xaEq5jOOmSpkeqNCbyhIAgISX5bTl/21o2u8XTco8cWhz+xIZx12VMs0PGE1kCQBAwvI5jcLb+nn+vPGCRp2m9HI/qSm2iHzUIKqU6cFydqYAgMTV2KPuv3uA508bz2/c4b7B3rt9TqVQPmpQVcuUnSkAIAH1bqStfeqktGu3XJDV7u6B3vuyXEqBfJQQqpTp/jK9mSwBAGhQmS6j4Mru7mdzz8wc+dU5Wf2u6u6eHu1LvGOlynOm42YXLlqyLzxCIgAAcdXMq+ZNaOX46Ix2zg/Gt3HOcaq2oHyU0KqU6ZBZ/rXrCiJ9JAIAEFNeu1I2sLF9xZjWjk9Ob+OY06+xfZVis1V9nZkFVCnTfm/5N20pjHSVCABAvXFpSqBLprqpd7b9mxOa2Zed2My+tE8j+xq7agvLr1hWlTLt/tqh73eWGe0kAgBQY+Yu0+c0Clqlabtb/+dH3d02XdvR0adu656lrW+foW1v6EdYYqVKmbZ/rWDv/jK9hUQAQAoyj+V7YYzvkqYedb+Mqkm3KyUO1RZKcyglmU6lMMupFJg7T/k45VQp0xb/PnioMKBkSwQApKAxLe25sydknioRNVDl0ZhQRHXJEgCQoqb08jwpS9RQlTIN6hGnLAEAKaiTT9tqPpIiETVUpUzDumqXJQAgBV3X0/2Uqth0iaihKmVqV3XL354MAKibDE0pvqSr6yWJqIUqZeqyaSl7JxYApLorerie8zmUIomohSpl6nDolCkApCBV0fXf9HQ/LRG1VKVMnRo7UwBIRRPbut7rkKF9JxG1VKVMPaqNMgWAFHRjH+9jskQdVP3OVEnd0ysAIFWNzHF8Nry5/QuJqIOql3kd7EwBINXc2t/zZ1mijqqUKXdxAUBq6ZttXzW2leMTiaijKmXayKUelCUAIAXcNcjzgBXfH5poqpRpE49CmQJAiuiepWw4s63zPYmIQpUybexS82UJAEhyt/RL+wtHB9aPqpd53QplCgApoH2Guv38jq7XJCJKP9+ZcpkXAFLAzX09D9tVG+ex15Oq35m6+c4UAJJdu3T1+8ld3S9KRD34WZmqB2QJAEhS/zvI+0enagtKRD2oUqZt0tWdsgQAJKEe2eq6Czu5ZkhEPalSpjleNc+tKBUSAQBJ5r5BafdwB2/9q1Km5oO7bdPVHRIBAElkQGP7ijPb8VxpLFQpU1O7THW7LAEASeSBE7x3ctpRbFQr0/YZGmUKAElmRHPH52NaOnIlop5VK9MOGSovhwWAJKLoulG5K71DImKg+mXedO17WQIAksAvO3tmntjMvlQiYqBamXbOVLfIEgBgceYTGvcP8d4pETFSrUy7ZmobHaoekggAsLDf93P/3TzxSCJipFqZujQl0DnTvlkiAMCimnjUfb/v6/mbRMRQtTI19WnkWCtLAIBF/XmI93afQymSiBg6Ypn2yta+kSUAwIL6ZttXXdTZ9X8SEWNHLNPelCkAWNqjw703cmxg/By5TBvZucwLABb1y47OmSflOBZJRBwcsUzNt8f47IZfIgDAIjI0pfivJ6bdLBFxcsQyNQ1u5lghSwCARdx3gvfull51j0TEyVHLdFhzx2JZAgAswHwrzDU93NMkIo6OWqZDKVMAsAzN0CNPj0z7jabYIjJCHB21TM1zHO2qHpYIAEhgU/p4n+zf2L5SIuLsqGWa7lBKemY6eUQGABJca49t1z0DvfdKRAM4apmahrfQuNQLAAnusZMybjA3QBLRAI5ZptyEBACJbVJ7x6wz2znfk4gGQpkCgEU1cqoHnhqefp1ENKBjlmnrNHVXtyxto0QAQAKZOiJtSlOPul8iGtAxy9Q0rpXjY1kCABLEBZ1cr57bwfmmRDSw45bp+NZOyhQAEkgzr5r32LC0GyQiARy3TEe0sH/mtStlEgEADWzq8LQp2S7lkEQkgOOWqVtTKka2cCyUCABoQJd1cb0wqZ3zHYlIEMctU9NprfneFAAaWpt0286Hh6bdJBEJpEZleiplCgANSlV0ffpI3xU+p1IoIySQGpVpZ5+2pWuGtkkiACDO7hqQ/qfRLR3zJSLB1KhMTed1dr4hSwBAHI3McXx2e3/PQxKRgGpeph1clCkAxJl5ytFLp6RfxKvVEluNy7RntvZtj2x1nUQAQIwpum5MH5X26xZeda+MkKBqXKam8zq42Z0CQJzc2Dft0Yltne9LRAJTDMOQ5fFtLox06/+Wn7N6ASDGBjS2r1gwKfMkp2oLyggJrFY7066Z2qbejbS1EgEAMZDltOXPGJtxPkVqHbUqU9MvO7pmyhIAUM80Q4/83xjfr9pnqNtlBAuodZle3Nn1ivl/tkQAQD26/8T0O8e2cnwiERZR6zJtlabuHtfWPVciAKCeTGrvmPX7Pp6/S4SF1LpMTVd2cz0nSwBAPeiVrX3z/KiMSxWbreZ3hSJh1KlMJ7Rxzm7u5rknAKgPmS6j4PVxGeem2ZVSGcFi6lSmdtUWvry760WJAIA6Mg+wf2mU75JOPm2rjGBBdSpT02Vd3c+bfxNIBADUwUND0m8b38Y5RyIsqs5lat62PaaFM1ciAKCWrujmfu7GPp5HJcLC6lympqt7ev4pSwBALZze2vnh1JPSrpMIi6vVcYI/pxs2dfCsQ99u9Bs9ZAQAOI5+je0rP5noG5XuUEpkBIuLameqKjb9ht7exyUCAI4jx2vb89apGb+gSJNLVDtTUyBiuLq94d++v0xvISMAwBH47EZR7lnZIznjPPlEtTM1uTQlMKWn+ymJAIAjcKh66NVTM8+jSJNT1DtTU1HI8HV9PX9nUVDJlBEAQJiPEb442nfx/3R0vS4jJJmod6Ymn0MpuqKb918SAQCiskeNqcMzrqNIk1u9lKnp+l7uJ8xLvhIBAJUeHJp++5Xd3c9KRJKqtzI13yZzVXfXdIkAkPJu7+956A99PH+TiCRWL9+ZHnawQm/a63X/tuKIkSEjAEhJ1/RwT3tieNoUiUhy9bYzNTVxqwem9HE/KREAUtKFnVwzHhuWdoNEpIB63ZmaioJGZveZh7b5g7bGMgKAlHF2B+dbr4zO+JX5di0ZIQXU687U5HMqhbf19/5VIgCkjPM6ON94eXTGRRRp6qn3nampImK4+848tHl3ua2NjAAgqf2yo3PmC6MyLqFIU1O970xNbk2puHNQ2gMSASCpXdLF+fKLozMupkhTV0x2pibzjTKjPihY+vUB/QQZAUDSuayL64WnR6Zfbb74Q0ZIQTHZmZrMv7GeHJ4xxTxGS0YAkFQu7+b6F0UKU8zK1DSwiX3FFd28z0kEgKTx217uqU+PSL+GIoUpZpd5DysIGI36vOHfeCioN5URAFjazX09Dz8wxHuHRCC2O1NTtks59OCJ3jslAoBlaYYe+cdJab+hSPFzMd+Zmir/G5Sxswu/WLYvPFxGAGAp5os8XhiVfsk5HZxvyQj4UVzK1PTNoXC/Ee8VLA/pqkNGAGAJPrvhf3t85qSTchyLZARUEfPLvIf1aWRfc0f/dJ49BWApTd3qD/POzDqFIsWxxG1nagrrNvsps/1ffH0gcqKMACBh9cxUv3379Myz2qWr38sIOKK47UxN5ukgL4/OuDjdoZTICAAS0rjWjrnzJ2WNoEhRE3EtU1NHn7btwSHe2yUCQMK5srv72Vmn+s40X9whI+CY4nqZ9zDz7t5z5hZ9OG93aIKMAKDB2VU9/PehGTeaL/aWEVAjDVKmprwyveWgWYe+8QeURjICgAaT5TIOvTY285ejWjgWyAiosbhf5j2shVfdO32k7ypF1xumzQFA9MhU1n8xKfsEihR11WBlajqrnfPdWwek/UUiAMTdme2c7y2YlD3cvJ9DRkCtNdhl3sPMV7WdO69oNt+fAogn8/vRewel33NTX88jyn9u5QDqrsHL1OQPGNkj3i9c/l1RpJOMACBmcry2PTPGZF4wrLl9sYyAqDToZd7DslxKwetjM8712pUyGQFATIzMcXy29OzswRQp6lNClKmpdyNt7dMj0q6WCAD1yrzZ0XwH6YcTfOOae9QfZAzUi4S4zPtTt31Z+tg/vq34g0QAiFoTj7rvuZFpV45v45wjI6BeJVyZVv6vUa5eWPLyq9sCk2UEAHU2rqV93rOjMi7P8ap5MgLqXcKVqSmo25znzSuc/eme8KkyAoBacStKxQMneu8wL+1yty5iLSHL1FQUMnynfVC0cG1BeICMAKBGzLe9vDTGd7F5L4aMgJhKmBuQfs7nUIpmn5ExvrNP2yIjADimwzcZLT4nazBFinhK2J3pYVsKI11Hzy5cXFBhNJERAFRjnmA0bUTar09u4VgoIyBuEnZneliXTG3z7PG+081DqGUEAD/SDD1yfW/341+dk9mXIkVDSfid6WFr88P9J3xc9Ak7VACH9chW1z0zMuOqIU3tX8oIaBCWKVPTRn+kx/gPi+YfqNBzZAQgBZnn6t7YO+3RewZ67nVpSkDGQIOxVJmaNvkj3cd/VDR/f5neQkYAUkifbG3N9FHpV/ZvbF8pI6DBWa5MTeYO9fSPij6lUIHU4bMb/j8OTr/3mh7uaXbVFpYxkBAsWaamzYWRbmd97J+3q8TWVkYAkpD5uMvk7p6XHhjsvaOpR90vYyChWLZMTfvK9Zxz5xZ/sCo/PFhGAJJI32z7qidOSrt+aHP7EhkBCcnSZWoqDRtply8oefXDncFJMgJgcZkuo+CeAel/uran+x+aYovIGEhYli9TU8SwabcuK3nimfWB62UEwILMu3Sv6OZ97r5B3nuyXQrPlsMykqJMD3t6XcWNt39Z/JhuqAl/GAWAqsa0tOc+PDT9pl7Z2jcyAiwjqcrU9MGO4Nm/XlDySnHEyJARgAQ2rLl98UND0m7je1FYWdKVqck8z/fi+cVvfnso0ldGABJM1wxt0x+HeP/3nA7Ot3hFGqwuKcvUVBY2vL9fUjLt31uCl8kIQAJo7lb3/nGw577JXdwv8rwokkXSlulhM7YGLr1xcek/zXKVEYAG0Nij7v99b/dj5ivSPJpSLmMgKSR9mZrMQ/Ivnl/y5raiSGcZAYiT1h7brhv7pT16ZXfXs5QoklVKlKmpKGT4bl9a+vjLWwJXyghADLVLV7+/pZ/nr5O7ul90qragjIGklDJleti83aEJ1y4qeu6HMlsrGQGoRx3StO9uHej588WdXa84VFtIxkBSS7kyNRUFjcy7lpc98uL6sqsNVVVkDCAK/ZvYv57Syz31go6uV7mxCKkmJcv0sE92h06/9oui5/JKba1lBKAWVEXXx7dxz7mlr+ev5vOiMgZSTkqXqckfMLLvXl728Muby67i5CSgZjI0pfjS7q7np/TyTG2foW6XMZCyUr5MD1t1MDzo5mWlU5ftCw+XEYCf6eTTtl7V3TX9ym7u53xOpVDGQMqjTH9mzs7gWX9YWvwP3pMK/Jdm6JFRrZwLflu5C53Q1jmb04qA6ijTIzAPeHh8bfltj66uuL3CMNwyBlJKizTb7os6eWb8pqf76dZp6i4ZAzgCyvQYviuKdHpgZfn9b35XfiHfpyIVOFQ9dEZb9/tXdXc/O6alI1dVbLp8BOAYKNMa2OiP9Pj76vI7Z24tvyiiqJqMgaTRI1NZf1FXzyuTu7heauZR98kYQA1RprWwwR/p+ejq8jsoVSSDNum2ned39Lx2aVfXC10ytc0yBlAHlGkdmK92e2Bl6X2ztwfO5tAHWEm2Wzl4fkfXzAs7uWac2My+VMYAokSZRmFzYaTbP9dX3DBjS+CykpCRLmMgoTTzqnmT2jrf+0V756yTWzgWcsQfUP8o03pgHqL/1rbAhVPXVty0uTjSTcZAg2nrVXac2cH13hltnR+cnONYyPF+QGxRpvUoYti0D3cGJ01bV/G7z/NCo2UMxEWfbG3NpPbOdyt/3unTyL5GxgDigDKNEfNmpVe3BC6dsbX8Et5Qg1jIdBkFY1u6cse1ds49rbXj45ZedY98BCDOKNMY0w2bumx/ePirWwOT39gWuIjvVlFX5qHyfRs7V41t6cg9pZUjd2SO4zO+/wQSA2UaR2aRvvt98LzKYr100Z7AKB6vwfF0y9I2Dm/uWHRyC/vCsa0cnzRxqwfkIwAJhDJtIAUBo9GCvaGxc3YEz5q9o+IXRWHFJx8hhZkv1j6ljSPXfJ3ZqBaOBRzjB1gDZZoAyiOGZ+Ge0NjZO0OTZleW64EKPUc+QhJLU5XS/s3sK09oal82Isf++fAcxxeZTsUvHwOwEMo0wZjfsX59MDxk/p7QuEV5wdHL9keGmwfvy8ewKKdND/Zq7Fw7uJl9+aAmlT9N7Su6Z2nrNcUWkV8BYGGUaYIL6jbnigPhE8xHbRbtDY3+8kB4GOWa2NIdSknXLG1D32xtbf8m9pUDm9hX9G1sX+1UbUH5FQBJhjK1mMPl+uX+0LDVByMDzZeab/OHOnOsYfyZu81u2Y4NPRrZ1/fK1r7pma2tq/z5tn2Gtp13fgKphTJNAkVBI3N1fniAWayr8iODVu8PD9xaEurCa+OiZ74Yu43PvrNjhrqto8++taPP/FPb1jVT29jZp23hZCEAJso0SZWGjbSthZGuW4v0Llsq/6z86ba5MFSZI10KA0q2/FrKs6t6uIlb3dc6XdvVwqPmtU3XdnbyaZWlqW3rUFmg7TK077k8C+B4KNMUdLBCb7q5UO+2vTjSMa9Ub5lXprfcUxZpta9Ub7GzLNLmYLnePKSrDvl1SzJPB2rqsh/MdNkONXFr+U1ctoOt0rTdOV41r026ujOnsjhbpql7mnvUH3gBNoBoUaaopvLvCGV/ZaH+UKa32F9uNPcH9SzzUrI/aGQV/vcn08yFgco/Q3qmmcuCtjT5y22HwuEfd74VYdUbiBguiVX47IZf0f7/d4tORQuka0qZuXbb9QqXQyvPdih+t0Mp92i28kyn6ndrtgqvXSkzHyFx25UKn0MpbOxW8hu51Mof80/lUCO3ms9dsgDiiTIFACBK3KACAECUKFMAAKJEmQIAECXKFACAqNhs/w+ly29yJgNnhAAAAABJRU5ErkJggg==;" parent="KPgrsXEgDjS83-H8w_TJ-42" vertex="1">
          <mxGeometry x="3.049999999999997" y="10" width="56.95" height="40" as="geometry" />
        </mxCell>
        <mxCell id="KPgrsXEgDjS83-H8w_TJ-22" value="" style="rounded=0;whiteSpace=wrap;html=1;fillColor=none;" parent="KPgrsXEgDjS83-H8w_TJ-42" vertex="1">
          <mxGeometry width="63.05" height="60" as="geometry" />
        </mxCell>
        <mxCell id="KPgrsXEgDjS83-H8w_TJ-43" style="edgeStyle=orthogonalEdgeStyle;rounded=0;orthogonalLoop=1;jettySize=auto;html=1;exitX=1;exitY=0.5;exitDx=0;exitDy=0;entryX=0;entryY=0.5;entryDx=0;entryDy=0;strokeWidth=2;strokeColor=#007FFF;" parent="1" source="KPgrsXEgDjS83-H8w_TJ-4" target="KPgrsXEgDjS83-H8w_TJ-14" edge="1">
          <mxGeometry relative="1" as="geometry" />
        </mxCell>
        <mxCell id="KPgrsXEgDjS83-H8w_TJ-45" style="rounded=0;orthogonalLoop=1;jettySize=auto;html=1;exitX=1;exitY=0.5;exitDx=0;exitDy=0;entryX=0;entryY=0.5;entryDx=0;entryDy=0;strokeColor=#007FFF;strokeWidth=2;" parent="1" source="KPgrsXEgDjS83-H8w_TJ-14" target="KPgrsXEgDjS83-H8w_TJ-40" edge="1">
          <mxGeometry relative="1" as="geometry" />
        </mxCell>
        <mxCell id="KPgrsXEgDjS83-H8w_TJ-46" style="edgeStyle=orthogonalEdgeStyle;rounded=0;orthogonalLoop=1;jettySize=auto;html=1;exitX=1;exitY=0.5;exitDx=0;exitDy=0;entryX=0;entryY=0.5;entryDx=0;entryDy=0;strokeWidth=2;strokeColor=#007FFF;" parent="1" source="KPgrsXEgDjS83-H8w_TJ-40" target="KPgrsXEgDjS83-H8w_TJ-22" edge="1">
          <mxGeometry relative="1" as="geometry" />
        </mxCell>
        <mxCell id="KPgrsXEgDjS83-H8w_TJ-51" value="Continuous Integration &amp;amp; Continuous&amp;nbsp;&lt;span style=&quot;background-color: initial;&quot;&gt;Deployment (CI/CD)&lt;/span&gt;" style="text;html=1;align=center;verticalAlign=middle;whiteSpace=wrap;rounded=0;fontStyle=1" parent="1" vertex="1">
          <mxGeometry x="-565" y="-2070" width="340" height="30" as="geometry" />
        </mxCell>
        <mxCell id="KPgrsXEgDjS83-H8w_TJ-52" value="GitHub Actions" style="text;html=1;align=center;verticalAlign=middle;whiteSpace=wrap;rounded=0;fontStyle=1;fontSize=11;" parent="1" vertex="1">
          <mxGeometry x="-495" y="-1889.33" width="90" height="20" as="geometry" />
        </mxCell>
        <mxCell id="KPgrsXEgDjS83-H8w_TJ-53" value="Podman" style="text;html=1;align=center;verticalAlign=middle;whiteSpace=wrap;rounded=0;fontStyle=1;fontSize=11;" parent="1" vertex="1">
          <mxGeometry x="-355" y="-1820" width="50" height="20" as="geometry" />
        </mxCell>
        <mxCell id="KPgrsXEgDjS83-H8w_TJ-55" value="DockerHub" style="text;html=1;align=center;verticalAlign=middle;whiteSpace=wrap;rounded=0;fontStyle=1;fontSize=11;" parent="1" vertex="1">
          <mxGeometry x="-240.00000000000003" y="-1820" width="50" height="20" as="geometry" />
        </mxCell>
        <mxCell id="KPgrsXEgDjS83-H8w_TJ-57" value="Code" style="text;html=1;align=center;verticalAlign=middle;whiteSpace=wrap;rounded=0;fontStyle=1;fontSize=11;" parent="1" vertex="1">
          <mxGeometry x="-752.07" y="-1890.67" width="60" height="19.33" as="geometry" />
        </mxCell>
        <mxCell id="KPgrsXEgDjS83-H8w_TJ-61" value="Pull Request/ Merge to Main" style="text;html=1;align=center;verticalAlign=middle;whiteSpace=wrap;rounded=0;fontStyle=1;fontSize=11;" parent="1" vertex="1">
          <mxGeometry x="-612.5" y="-2030" width="85" height="19.33" as="geometry" />
        </mxCell>
        <mxCell id="_8cUsbGrloG9QdCYFXXz-6" value="" style="group" vertex="1" connectable="0" parent="1">
          <mxGeometry x="-360" y="-2020" width="60" height="60" as="geometry" />
        </mxCell>
        <mxCell id="_8cUsbGrloG9QdCYFXXz-3" value="" style="whiteSpace=wrap;html=1;aspect=fixed;fillColor=none;" vertex="1" parent="_8cUsbGrloG9QdCYFXXz-6">
          <mxGeometry width="60" height="60" as="geometry" />
        </mxCell>
        <mxCell id="_8cUsbGrloG9QdCYFXXz-5" value="" style="shape=image;imageAspect=0;aspect=fixed;verticalLabelPosition=bottom;verticalAlign=top;image=data:image/png,iVBORw0KGgoAAAANSUhEUgAAAv4AAAKlCAYAAACzLOiNAAAAAXNSR0IArs4c6QAAAARnQU1BAACxjwv8YQUAAAAJcEhZcwAACxMAAAsTAQCanBgAADjKSURBVHhe7d1LkhpZtjbsw3/4mQfIBOOAFm060dcUole0VT1Ngb46aqsF40AYzjwojtUXi/JV6ZkpKW5c/PI8Zsfc2VWVKUWA+8sy3+/p/fvf//4fAACg3f6/8ggAALSY4A8AAB0g+AMAQAcI/gAA0AGCPwAAdIDgDwAAHSD4AwBABwj+AADQAYI/AAB0gOAPAAAdIPgDAEAHCP4AANABgj8AAHSA4A8AAB0g+AMAQAcI/gAA0AGCP0BH/Otf//r/47harT7F/1XXAGi/3r///e/yFIAu6Pf7p//7v//736frf69cAqADTPwBOqA67Y/Qn+dxNPUH6AYTf4AO6fV6f7rom/oDdIeJP0BHLBaLb3H83//93//L/8s1ANrPxB+gxeIxnif/OhwOw9FoVETYz0d9Qrze7XYfh8PhIf+75X8EQMuY+AO0WAb5+Xz+/bxQkV8C8j8T+gHaTfAHaKnctLvZbKY/fvwY/3XaH+extt/vP8R/J9Zs9AVoL4/6ALRc1nf+NfiHXIvj6XTql8sAtJCJP0AL5eR+uVx+/lXoD9X/LP67sWbqD9BOJv4ALRUBfjAYHOP8V8E/VP+z4/E48Kw/QDuZ+AO01MPDw9c4/i70h/jP4r8T5/m/AaB9TPwBWiSm/DGxz/rOcvlViqIYqfcEaB8Tf4AWyaCeFZ05yX+J/O+q9wRoJ8EfoCVyU+5qtfr0s/rO5+QjP/G/jX9GrNnoC9AeHvUBaJnf1Xc+J/83cVTvCdAuJv4ALZCT+efqO59T/d+q9wRoFxN/gJaIgJ71nZei3hOgPUz8AVqiWt95XniH/Geo9wRoDxN/gAaLKX9M5DebzXQ2m63L5Ytar9ez6XS6yX9XuQxAwwj+AC0wmUy2b2ny+Z38Z43H4x/b7XZSLgPQUB71AWio3HT71vrO58Q/K/6Z6j0B2sHEH6Dher3e+UJ+6eAfqv/Mp/tF77wIQCOZ+AM0WFZuXiP0h/hnxj87zvPfBUAzmfgDNNThcBiORqOifHkTRVGMhsPhoXwJQIOY+AM01OPj45c45kT+mvLfkf9OAJrHxB+gQW5R3/kc9Z4AzST4AzTQNeo7n5P/LvWeAM3kUR+Ahrh2fedz8t+l3hOgmUz8ARrmmvWdz6n+O9V7AjSLiT9AgywWi29xvEfoD/HvjH93nOefBYBmMPEHqLncRJv1nfcK/VUZ/ne73ceo97TRF6D+TPwBai4D9Xw+/35eqIn48pF/JqEfoP4Ef4Aay82zUd95jw29vxJ/hviz7Pf7D/FnizUbfQHqzaM+AA3Q7/dPGbbrEPxD/lnieDqd+uUyADVl4g9QUzlBXy6Xn+sW+kP1zxR/xlgz9QeoLxN/gBqLID0YDI5xXrfgH6p/puPxOPCsP0B9mfgD1NjDw8PXONYx9If4M8WfLc7zzwpAPZn4A9RMTPljcp71neVyIxRFMVLvCVBPJv4ANZOBOasyc6JeZ/lnVO8JUF+CP0CN5ObY1Wr1qU71nc/JR37izxx/9liz0RegXjzqA1BDdazvfE7+WeOo3hOgfkz8AWoiJ+R1re98TvXPrN4ToH5M/AFqJIJy1nc2nXpPgHox8QeokWp953mhgfLPrt4ToF5M/AHuLKb8MRnfbDbT2Wy2LpdbYb1ez6bT6Sb/juUyAHcg+APUxGQy2Tapyed38u8wHo9/bLfbSbkMwB151AfgjnLza9PqO58Tf4f4u6j3BKgPE3+AGuj1eueLcVuCf6j+XZ7uNb3zIgB3Y+IPcGdZfdmm0B/i7xJ/pzjPvyMA92PiD3BHh8NhOBqNivJlqxVFMRoOh4fyJQA3ZuIPcEePj49f4piT8TbKv1v+XQG4DxN/gBtrc33nc9R7AtyP4A9wJ22q73xO/h3VewLcj0d9AG6orfWdz8m/o3pPgPsx8Qe4gzbWdz6n+ndV7wlweyb+ADe2WCy+xbFLoT/E3zX+znGePwMAbsfEH+AGcjNr1nd2LfRXZfjf7XYfo97TRl+A2zDxB7iBDLbz+fz7eaHj4ktP/iyEfoDbEPwBriw3sUZ9Z5c29P5K/N3jZ7Df7z/EzyTWbPQFuD6P+gDcSL/fP2Xo7XLwD/kziOPpdOqXywBckYk/wBXlJHu5XH4W+v9Q/VnEzybWTP0BrsvEH+DKItAOBoNjnAv+f6j+LI7H48Cz/gDXZeIPcGUPDw9f4yj0/1n8LOJnEuf5MwLgekz8Aa4gpvwxwc76znKZ3yiKYqTeE+B6TPwBriCDa1ZW5mSbv8ufjXpPgOsS/AEuLDeprlarT+o7n5eP/MTPKn5msWajL8DledQH4ErUd75c/oziqN4T4DpM/AEuKCfV6jtfp/qzynpPAC7LxB/gwiL8Z30nb6PeE+DyTPwBLqxa33le4MXyZ6beE+DyTPwBLiArKDebzXQ2m63LZd5hvV7PptPpJn+25TIAbyT4A1zQZDLZavJ5n/zZjcfjH9vtdlIuA/BOHvUBeKfc0Ku+8zLiZxc/Q/WeAJdl4g9wIb1e73xBFfzfr/ozfLpP9c6LALyLiT/ABWQFpdB/GfEzjJ9lnKv3BLgME3+AdzocDsPRaFSUL7mCoihGw+HwUL4E4A1M/AHe6fHx8Uscc0LN5eTPNH/GALydiT/AG6jvvD31ngDvI/gDvIP6zuvLn616T4D38agPwCup77yt/Nmq9wR4HxN/gDdS33k71Z+xek+AtzHxB3iDxWLxLY5C/23Ezzh+1nGeP3sAXsfEH+CFclNp1ncK/beX4X+3232Mek8bfQFezsQf4IUyYM7n8+/nBe4ivmzl70DoB3g5wR/gBXIzadR32tB7P/Ezj5/9fr//EL+LWLPRF+BlPOoD8Ar9fv+U4VPwv4/82cfxdDr1y2UAnmHiD/CMnCgvl8vPQv/9VX8H8TuJNVN/gOeZ+AO8QATLwWBwjHPB//6qv4Pj8TjwrD/A80z8AV7g4eHhaxyF/nqI30H8LuI8fzcA/J6JP8AvxJQ/JslZ31kuU0NFUYzUewL8nok/wC9kgMzqyJwwUx/5O1HvCfA8wR/gJ3Kz6Gq1+qS+s77ykZ/4HcXvKtZs9AX4OY/6APyG+s76y99NHNV7AvyaiT/AX+TEWH1nM1R/R1nvCcDfmfgD/ESE/6zvpFnUewL8nIk/wE9U6zvPC9Re/q7UewL8nIk/QCmrIDebzXQ2m63LZRpovV7PptPpJn+n5TJApwn+AH8xmUy2mnyaKX9n4/H4x3a7nZTLADzxqA/Ak9zQq76z2eJ3Fr879Z4Af2fiD1DR6/XOF0XBv7mqv7une1zvvAiAiT9AyipIob/Z4ncXv8M4V+8J8AcTf4Anh8NhOBqNivIlLVIUxWg4HB7KlwCdZeIP8OTx8fFLHHNSTPPl7zJ/twBdZ+IPdJb6zu5Q7wkg+AOo72yx/J2q9wTwqA/QUeo7uyF/p+o9AUz8gY5T39l+1d+tek+gy0z8gc5aLBbf4ij0t1v8buN3HOf5OwfoIhN/oFNyc2fWdwr93ZHhf7fbfYx6Txt9ga4x8Qc6JYPefD7/fl6gU+JLXv7uhX6gawR/oDNyU2fUd9rQ2z3xu47f+X6//xDvgViz0RfoEo/6AJ3T7/dPGQIF/27J33kcT6dTv1wG6AQTf6ATcrK7XC4/C/3dVf3dx3sh1kz9ga4w8Qc6IwLeYDA4xrng313V3/3xeBx41h/oChN/oDMeHh6+xlHo77b43cd7IM7zPQHQBSb+QKvFlD8mulnfWS7DfxVFMVLvCXSBiT/QahnkssIxJ72Q7wX1nkBXCP5Aa+WmzdVq9Ul9J3+Vj/zEeyPeI7Fmoy/QZh71AVpPfSe/ku+JOKr3BNrOxB9opZzcqu/kd6rvDfWeQNuZ+AOtFQEu6zvhJdR7Am1m4g+0VrW+87wAv5DvEfWeQJuZ+AOtElP+mNhuNpvpbDZbl8vwYuv1ejadTjf5XiqXARpP8AdaaTKZbDX58Br5XhmPxz+22+2kXAZoDY/6AK2RmzLVd/IW8V6J94x6T6CtTPyB1un1eucLm+DPa1XfM0/3x955EaAlTPyBVslKRqGft4j3TLx34jzfSwBtYeIPtMbhcBiORqOifAnvVhTFaDgcHsqXAI1m4g+0xuPj45c45sQW3irfQ/meAmgDE3+g0dR3cm3qPYG2EPyBVlDfyaXle0m9J9AWHvUBGkt9J9eU7yX1nkBbmPgDjae+k2upvqfUewJNZ+IPNNpisfgWR6Gfa4j3VLy34jzfawBNZeIPNE5ussz6TqGfa8vwv9vtPka9p42+QBOZ+AONk4FrPp9/Py/ADcSXy3zPCf1AEwn+QKPk5sqo77Shl1uJ91i81/b7/Yd478Wajb5A03jUB2ikfr9/yjAm+HML+V6L4+l06pfLAI1h4g80Rk5Yl8vlZ6GfW6u+5+I9GGum/kCTmPgDjRJBazAYHONc8OfWqu+54/E48Kw/0CQm/kCjPDw8fI2j0M89xHsu3ntxnu9FgKYw8QdqL6b8MVnN+s5yGe6uKIqRek+gKUz8gdrLQJVVijlxhXvJ96B6T6BJBH+g1nLz5Gq1+qS+k7rIR37iPRnvzViz0ReoO4/6AI2gvpO6yfdiHNV7Ak1g4g/UVk5Q1XdSR9X3pHpPoAlM/IFaiyCV9Z1QZ+o9gboz8QdqrVrfeV6Amsn3pnpPoO5M/IHaiSl/TE43m810Nputy2WovfV6PZtOp5t8D5fLALUg+AO1NZlMtpp8aIJ8j47H4x/b7XZSLgPUikd9gFrJzZHqO2mSeI/Ge1W9J1BnJv5ALfV6vfPFSfCnKarv1ad7a++8CFAjJv5A7WQ1otBPk8R7Nd6zcZ7vYYA6MfEHauVwOAxHo1FRvoTGKopiNBwOD+VLgLsz8Qdq5fHx8Uscc3IKTZPv3XwvA9SFiT9wd+o7aSv1nkCdCP5AbajvpC3yPazeE6gTj/oAd6W+kzbK97B6T6BOTPyBWlDfSdtU38vqPYE6MPEH7m6xWHyLo9BPm8R7Od7TcZ7vcYB7MvEH7iI3O2Z9p9BPW2X43+12H6Pe00Zf4F5M/IG7yOAzn8+/nxegxeJLbb7XhX7gXgR/4OZyk2PUd9rQS9vFezve4/v9/kO852PNRl/gHjzqA9xNv98/ZSgS/GmzfI/H8XQ69ctlgJsy8QduKiedy+Xys9BPV1Tf6/HejzVTf+DWTPyBm4vAMxgMjnEu+NMV1ff68XgceNYfuDUTf+DmHh4evsZR6KdL4r0e7/k4z88AwC2Z+AM3EVP+mHBmfWe5DJ1VFMVIvSdwSyb+wE1ksMlKw5x8Qtfke1+9J3Brgj9wdbmJcbVafVLfSdflIz/xWYjPRKzZ6Avcgkd9gJtR3wn/kZ+BOKr3BG7FxB+4qpxkqu+EP1Q/C+o9gVsx8QeuLgJN1ncCf6feE7gFE3/g6qr1necF4Cw/E+o9gVsw8QeuIqb8McHcbDbT2Wy2LpeBX1iv17PpdLrJz065DHAxgj9wVZPJZKvJB34tPxvj8fjHdrudlMsAF+dRH+DicpOi+k54Xnw24jOi3hO4NhN/4Gp6vd75AiP4w+9VPyNP9+XeeRHgwkz8gavIikKhH54Xn5H4rMR5fnYALs3EH7i4w+EwHI1GRfkSeKWiKEbD4fBQvgS4CBN/4OIeHx+/xDEnmMDL5GcmP0MAl2TiD1yE+k64LPWewKUJ/sBFqe+E98nPjnpP4NI86gO8m/pOuJz87Kj3BC7NxB+4GPWdcBnVz5B6T+BSTPyBi1gsFt/iKPTD+8VnKD5LcZ6fLYD3MvEH3iw3HWZ9p9APl5Xhf7fbfYx6Txt9gfcw8QfeLAPIfD7/fl4ALi6+TOdnTOgH3kPwB94kNxtGfacNvXAd8ZmKz9Z+v/8Qn7VYs9EXeCuP+gDv0u/3TxlOBH+4vPxsxfF0OvXLZYBXM/EHXi0njsvl8rPQD9dV/YzFZy7WTP2BtzDxB94kgsdgMDjGueAP11X9jB2Px4Fn/YG3MPEH3uTh4eFrHIV+uL74jMVnLc7zswfwWib+wIvFlD8mjVnfWS4DN1YUxUi9J/BaJv7Ai2XAyGrBnEACt5GfOfWewFsI/sCL5GbC1Wr1SX0n3Ec+8hOfwfgsxpqNvsBLedQHeBX1nXBf+dmLo3pP4DVM/IFn5URRfSfcX/UzmPWeAC9h4g+8SIT/rO8E6kO9J/BSJv7Ai1TrO88LwF3lZ1G9J/BSJv7AL2VV4Gazmc5ms3W5DNTMer2eTafTTX5my2WAPxH8gWdNJpOtJh+on/xMjsfjH9vtdlIuA/yUR32An8oNveo7ob7iMxmfTfWewEuY+AO/1ev1zhcJwR/qqfrZfLqn986LAD9h4g/8UlYFCv1QX/HZjM9onKv3BH7HxB/4qcPhMByNRkX5EmiIoihGw+HwUL4E+C8Tf+CnHh8fv8QxJ4lAveVnNT+7AH9l4g/8l/pOaAf1nsDPCP7A36jvhGbKz6x6T+BnPOoDnKnvhObLz6x6T+BnTPyBP1HfCc1W/eyq9wSqTPyB/1osFt/iKPRDc8VnNz7DcZ6faYBg4g8dl5v/sr5T6Id2yPC/2+0+Rr2njb6AiT90XAaB+Xz+/bwAtEZ8ic/PttAPCP7QYbnpL+o7beiFdonPcnym9/v9h/iMx5qNvtBtHvUB/qff758yJAj+0B75mY7j6XTql8tAR5n4Q0fl5G+5XH4W+qGdqp/t+KzHmqk/dJeJP3RYBIDBYHCMc8Ef2qn62T4ejwPP+kN3mfhDhz08PHyNo9AP7RWf7fiMx3l+5oFuMvGHjokpf0z8sr6zXAY6oiiKkXpP6CYTf+iYvNFnxV9OAoF2y8+6ek/oLsEfOiQ39a1Wq0/qO6Fb8pGf+OzHNSDWbPSFbvGoD3SQ+k7opvzMx1G9J3SPiT90RE721HdCd1U/+1nvCXSHiT90SIT/rO8EUO8J3WLiDx1Sre88LwCdlNcA9Z7QLSb+0HJZ2bfZbKaz2WxdLgOcrdfr2XQ63eS1olwGWkjwh46YTCZbTT5AymvBeDz+sd1uJ+Uy0GIe9YEWyw296juBv4prQVwT1HtCd5j4Qwf0er3zB13wB6qq14SnPNA7LwKtZeIPLZeVfUI/8FdxTYhrQ5yr94T2M/GHFjscDsPRaFSULwF+qyiK0XA4PJQvgZYx8YcWe3x8/BLHnOgB/ExeI/KaAbSTiT+0jPpO4D3Ue0J7Cf7QUuo7gdfIa4V6T2gvj/pAi6jvBN4qrxXqPaG9TPyhhdR3Am9RvWao94T2MfGHllksFt/iKPQDrxXXjLh2xHleS4D2MPGHFshNeFnfKfQD75Hhf7fbfYx6Txt9oR1M/KEF8oY8n8+/nxcA3imGB3lNEfqhHQR/aLjcfBf1nTb0ApcQ15C4luz3+w9xbYk1G32h+TzqAy3R7/dPebMW/IH3ymtJHE+nU79cBhrMxB8aLCdwy+Xys9APXFL1mhLXmFgz9YdmM/GHhosb8WAwOMa54A9cUvWacjweB571h2Yz8YeGe3h4+BpHoR+4tLimxLUlzvNaAzSXiT80UEz5Y/KW9Z3lMsBVFUUxUu8JzWXiDw2UN9ys2suJHMA15DVGvSc0m+APDZOb61ar1Sf1ncAt5CM/cc2Ja0+s2egLzeNRH2go9Z3ALeW1Jo7qPaGZTPyhQXLCpr4TuLXqNUe9JzSTiT80TNxos74T4F7Ue0LzmPhDw1TrO88LADeU1x71ntA8Jv7QADHlj8naZrOZzmazdbkMcFfr9Xo2nU43eY0ql4GaEvyhQSaTyVaTD3BveQ0aj8c/ttvtpFwGas6jPlBzuXlOfSdQF3ENimuRek9oFhN/aIher3f+sAr+QB1Ur0VPWaJ3XgRqzcQfGiCr84R+oC7iWhTXpDjPaxRQbyb+UHOHw2E4Go2K8iVALRVFMRoOh4fyJVBDJv5Qc4+Pj1/imJM1gDrJa1Neq4D6MvGHGlLfCTSRek+oN8Efakx9J9AEeY1S7wn15lEfqBn1nUDT5DVKvSfUm4k/1JT6TqBJqtcq9Z5QTyb+UEOLxeJbHIV+oCniWhXXrDjPaxhQLyb+UBO5GS7rO4V+oIky/O92u49R72mjL9SHiT/URN4Y5/P59/MCQEPF0CKvZUI/1IfgDzWQm+CivtOGXqDJ4toV17D9fv8hrmmxZqMv1INHfaBG+v3+KW+agj/QVHkNi+PpdOqXy8CdmfjDneUkbLlcfhb6gTaoXsvi2hZrpv5wfyb+UANxQxwMBsc4F/yBNqhey47H48Cz/nB/Jv5QAw8PD1/jKPQDbRHXsrimxXle44D7MvGHO4kpf0zAsr6zXAZopaIoRuo94b5M/OFO8saXlXc5GQNok7y2qfeE+xP84Q5yk9tqtfqkvhNos3zkJ651cc2LNRt94T486gN3pL4T6IK8xsVRvSfcj4k/3FhOutR3Al1Rvdap94T7MfGHO4gbXtZ3AnSNek+4DxN/uINqfed5AaAD8pqn3hPuw8QfbiSm/DHh2mw209lsti6XATppvV7PptPpJq+N5TJwRYI/3NhkMtlq8gG6Kq994/H4x3a7nZTLwA141AduIDexqe8Eui6ufXENVO8Jt2fiDzfU6/XOHzjBH+iy6jXwKYf0zovA1Zn4w41khZ3QD3RdXAPjWhjneW0Ers/EH27gcDgMR6NRUb4EoKIoitFwODyUL4ErMfGHG3h8fPwSx5xwAfDHNTGvkcB1mfjDlajvBHg59Z5wfYI/XJn6ToBfy2ujek+4Po/6wBWo7wR4mbw2qveE6zPxhytS3wnwvOo1Ur0nXI+JP1zJYrH4FkehH+D34hoZ18o4z2sncHkm/nBBuSkt6zuFfoCXy/C/2+0+Rr2njb5wWSb+cEF5g5rP59/PCwC8SgxL8hoq9MNlCf5wIbkZLeo7begFeL24Zsa1c7/ff4hraazZ6AuX41EfuLB+v3/Km5fgD/A6ee2M4+l06pfLwAWY+MMF5ERquVx+FvoB3q56DY1raqyZ+sNlmPjDhcSNaTAYHONc8Ad4u+o19Hg8DjzrD5dh4g8X8vDw8DWOQj/A+8Q1NK6lcZ7XVuD9TPzhHWLKH5OorO8slwG4oKIoRuo94f1M/OEd8gaU1XM5oQLg/fKaqt4TLkPwhzfKzWar1eqT+k6Ay8tHfuIaG9faWLPRF97Ooz7wTuo7Aa4nr61xVO8J72PiD2+QEyf1nQDXVb3GqveE9zHxhzeKG0/WdwJwG+o94e1M/OGNqvWd5wUAriavteo94e1M/OEVYsofk6bNZjOdzWbrchmAG1qv17PpdLrJa3K5DDxD8Ic3mEwmW00+ALeV19zxePxju91OymXghTzqAy+Um8nUdwLcR1xz49qr3hPexsQfXqnX650/NII/wO1Vr71PGaZ3XgRexMQfXiGr5IR+gPuIa29cg+M8r8nAy5j4wwsdDofhaDQqypcA1EBRFKPhcHgoXwK/YeIPL/T4+PgljjlpAuB+8lqc12bgeSb+8BvqOwHqT70nvIzgDy+gvhOgfvKarN4TXsajPvAL6jsB6i2vyeo94WVM/OEZ6jsB6qt6bVbvCb9n4g+/sVgsvsVR6Aeop7g2xzU6zvOaDfyciT/8RW4Oy/pOoR+g/jL873a7j1HvaaMv/J2JP/xF3ijm8/n38wIAjRBDmrx2C/3wd4I/VOSmsKjvtKEXoDniWh3X7P1+/yGu4bFmoy/8mUd94Cf6/f4pbyKCP0Az5DU7jqfTqV8uAyUTfyjlZGi5XH4W+gGap3rtjmt5rJn6wx9M/KEibhCDweAY54I/QPNUr93H43HgWX/4g4k/VDw8PHyNo9AP0Exx7Y5reJznNR34DxN/Oi+m/DERyvrOchmAFiiKYqTeE/7DxJ/OyxtBVsDlpAiA5spruXpP+IPgT6flpq/VavVJfSdAe+QjP3Ftj2t8rNnoS9d51AeeqO8EaJ+8psdRvSeY+NNhOflR3wnQTtVre9Z7QpeZ+NNpEf6zvhOAdlPvSdeZ+NNp1frO8wIArZPXePWedJ2JP52TlW6bzWY6m83W5TIAHbBer2fT6XST94JyGTpB8KezJpPJVpMPQDfktX48Hv/YbreTchk6xaM+dEpu6FXfCdAtca2Pa756T7rMxJ9O6vV65ze+4A/QHdVr/lP+6Z0XoUNM/OmcrHQT+gG6Ja75ce2Pc/WedJGJP51yOByGo9GoKF8C0GFFUYyGw+GhfAmtZ+JPpzw+Pn6JY058AOievAfkPQG6wsSf1lPfCcCvqPekSwR/OkN9JwAp7wXqPekSj/rQauo7AfiZvBeo96RLTPzpBPWdAPxV9Z6g3pMuMPGn9RaLxbc4Cv0AVMU9Ie4NcZ73CmgzE39aKTdpZX2n0A/Ar2T43+12H6Pe00Zf2srEn1bKC/Z8Pv9+XgCA34jhUN4zhH7aSvCndXJzVtR32tALwHPiHhH3iv1+/yHuHbFmoy9t5FEfWqvf75/yYi74A/A7ea+I4+l06pfL0Com/rRKTmiWy+VnoR+Al6reM+IeEmum/rSNiT+tExfqwWBwjHPBH4CXqt4zjsfjwLP+tI2JP63z8PDwNY5CPwCvEfeMuHfEed5LoE1M/GmFmPLHZCbrO8tlAHizoihG6j1pExN/WiEvyFnFlhMbAHitvIeo96RtBH8aLzdfrVarT+o7AXivfOQn7ilxb4k1G31pA4/60BrqOwG4lLyXxFG9J21h4k+j5QRGfScAl1S9p2S9JzSdiT+NF+E/6zsB4BrUe9IGJv40XrW+87wAABeS9xb1nrSBiT+NlNVqm81mOpvN1uUyAFzNer2eTafTTd6DymVoDMGfRptMJltNPgBcU95jxuPxj+12OymXoXE86kPj5IZe9Z0A3ELcY+Jeo96TpjPxp7F6vd75zSv4A3Bt1XvNU3bqnRehYUz8aaSsVhP6AbiFuNfEPSfO1XvSVCb+NM7hcBiORqOifAkAN1cUxWg4HB7Kl9AIJv40zuPj45c45uQFAG4l7z15L4ImMfGnEdR3AlA36j1pGsGfRlHfCcC95T1IvSdN41Efak99JwB1kvcg9Z40jYk/jaG+E4C6qN6L1HvSFCb+NMJisfgWR6EfgDqIe1Hck+I871FQdyb+1FZulsr6TqEfgLrJ8L/b7T5GvaeNvtSZiT+1lRfO+Xz+/bwAADUUQ6m8Vwn91JngTy3lJqmo77ShF4C6intT3KP2+/2HuGfFmo2+1JVHfai1fr9/youq4A9AHeU9Ko6n06lfLkPtmPhTOzkpWS6Xn4V+AOqueq+Ke1esmfpTRyb+1FJcMAeDwTHOBX8A6q56rzoejwPP+lNHJv7U0sPDw9c4Cv0ANEHcq+KeFed5D4O6MfGnNmLKHxOSrO8slwGgcYqiGKn3pG5M/KmNvDBmJVpOTgCgKfLepd6TOhL8qYXcBLVarT6p7wSgqfKRn7iXxT0t1mz0pS486kOtqO8EoOnyHhZH9Z7UiYk/d5eTEPWdALRB9V6m3pM6MfGnFuKCmPWdANAm6j2pCxN/aqFa33leAICGy3uaek/qwsSfu4kpf0xANpvNdDabrctlAGid9Xo9m06nm7z3lctwU4I/dzeZTLaafABoo7y3jcfjH9vtdlIuw1141Ie7yE1O6jsBaLO4t8U9Tr0ndWDiz131er3zG1DwB6Ctqve4p9zVOy/CHZj4czdZcSb0A9BmcY+Le12c570P7sHEn7s4HA7D0WhUlC8BoDOKohgNh8ND+RJuxsSfu3h8fPwSx5yAAEDb5T0v74Fwayb+3Iz6TgD4D/We3IPgz82p7wSgq/Lep96Te/CoDzehvhMA/rPRN47qPbkHE39uSn0nAF1XvQeq9+SWTPy5mcVi8S2OQj8AXRb3wLgXxnneG+EWTPy5qty0lPWdQj8A/EeG/91u9zHqPW305dpM/LmqvIDN5/Pv5wUA4L9iGJb3SKGfaxP8uZrcrBT1nTb0AsCfxT0x7o37/f5D3CtjzUZfrsmjPlxdv98/5cVN8AeAP+S9MY6n06lfLsNVmPhzFTmxWC6Xn4V+APi56j0y7pmxZurPtZj4czVx4RoMBsc4F/wB4Oeq98jj8TjwrD/XYuLP1Tw8PHyNo9APAL8W98i4V8Z53jvhGkz8uaiY8sekIus7y2UA4IWKohip9+QaTPy5qLxAZTVZTjAAgN/Le6Z6T65F8OdicjPSarX6pL4TAF4nH/mJe2jcS2PNRl8uyaM+XJz6TgB4m7x3xlG9J5dm4s9F5ERCfScAvF31Hqrek0sz8edi4sKU9Z0AwPup9+SSTPy5mGp953kBAHiTvJeq9+SSTPx5l5jyxyRis9lMZ7PZulwGAC5kvV7PptPpJu+55TK8muDPRUwmk60mHwC4nLynjsfjH9vtdlIuw5t51Ic3y81G6jsB4PLinhr3VvWeXIqJP+/W6/XObyLBHwAuq3pvfcpsvfMivJGJP++SVWNCPwBcXtxb4x4b53nPhbcy8efNDofDcDQaFeVLAODKiqIYDYfDQ/kSXsXEnzd7fHz8EsecRAAA15H32rz3wluY+PMq6jsB4L7Ue/JWgj9vor4TAG4r77nqPXkrj/rwYuo7AeB+8p6r3pO3MvHn1dR3AsB9VO+96j15LRN/XmWxWHyLo9APALcX9964B8d53pPhpUz8eVZuHsr6TqEfAO4rw/9ut/sY9Z42+vISJv48Ky8k8/n8+3kBALi7GMLlvVno5yUEf34rNw1FfacNvQBQD3Evjnvyfr//EPfoWLPRl+d41IcX6ff7p7zICP4AcH95T47j6XTql8vwSyb+/FJODpbL5WehHwDqpXpvjnt1rJn68zsm/vxWXEAGg8ExzgV/AKiX6r35eDwOPOvP75j481sPDw9f4yj0A0D9xL057tFxnvds+BUTf/4mpvwxMcj6znIZAKi5oihG6j35FRN//iYvFFkRlpMEAKCe8l6t3pPfEfz5k9wUtFqtPqnvBIBmyEd+4t4d9/BYs9GXv/KoDz+lvhMAmiXv2XFU78nPmPjzXzkZUN8JAM1TvXer9+RnTPz5k7hAZH0nANBc6j35KxN//qRa33leAAAaJe/h6j35KxN/zlP+mAhsNpvpbDZbl8sAQMOt1+vZdDrd5L2+XKajBH/+azKZbDX5AEDz5b18PB7/2G63k3KZjvOoT8flph/1nQDQHnEvj3u6ek+qTPw56/V65zeC4A8A7VC9pz/lvd55kU4z8edc3xlHoR8A2iPu6XFvj/O819NtJv4ddzgchqPRqChfAgAtVRTFaDgcHsqXdJCJf8c9Pj5+iWNOBACAdsl7fN7z6S4T/w5S3wkA3aTes9sE/w5T3wkA3ZD3evWe3eZRn45R3wkA3ZP3evWe3Wbi31HqOwGgW6r3fPWe3WTi30GLxeJbHIV+AOiOuOfHvT/OMwvQLSb+HZGbeLK+U+gHgG7K8L/b7T5GvaeNvt1h4t8R+YGez+ffzwsAQGfF8C8zgdDfHYJ/B+TmnajvtKEXALotMkBkgf1+/yGyQazZ6NsNHvXpkH6/f8oPu+APAN2VWSCOp9OpXy7Tcib+LZff4JfL5WehHwAI1UwQGSHWTP3bz8S/A+KDPBgMjnEu+AMAoZoJjsfjwLP+7Wfi3wEPDw9f4yj0AwApMkFkgzjPrEC7mfi3VEz545t71neWywAAP1UUxUi9Z7uZ+LdUfmCzqiu/0QMAVGVGUO/ZfoJ/C+XmnNVq9Ul9JwDwO/nIT2SGyA6xZqNvO3nUp8XUdwIAL5FZIY7qPdvLxL9l8hu6+k4A4KWqmSHrPWkfE/8WivCf9Z0AAK+l3rOdTPxbqFrfeV4AAHiBzA7qPdvJxL8lsnprs9lMZ7PZulwGAHiT9Xo9m06nm8wY5TINJvi3zGQy2WryAQDeKjPEeDz+sd1uJ+UyLeBRnxbIDb3qOwGA94oMEVlCvWf7mPi3SK/XO/8yBX8A4D2qWeIpK/bOizSeiX9LZPWW0A8AvFdkicgUca7esz1M/FvgcDgMR6NRUb4EALiooihGw+HwUL6koUz8W+Dx8fFLHPObOQDAJWS2yKxBs5n4N5T6TgDgltR7Np/g33DqOwGAa8qMod6z+Tzq00DqOwGAW8mMod6z+Uz8G0x9JwBwC9Wsod6zuUz8G2qxWHyLo9APAFxbZI3IHHGeGYTmMfFvkNxMk/WdQj8AcEsZ/ne73ceo97TRt1lM/BskP1jz+fz7eQEA4MZi6JhZROhvFsG/IXITTdR32tALANxDZI/IIPv9/kNkkliz0bc5POrTMP1+/5QfOsEfALi1zCBxPJ1O/XKZBjDxb4D8Jr1cLj8L/QDAPVWzSGSTWDP1bwYT/4aID9RgMDjGueAPANxTNYscj8eBZ/2bwcS/IR4eHr7GUegHAO4tskhkkjjPjEL9mfjXWEz54xt01neWywAAtVIUxUi9Z/2Z+NdYfnCyMiu/WQMA1EFmE/WezSD411RuklmtVp/UdwIAdZSP/ERWicwSazb61pdHfWpOfScAUGeZUeKo3rPeTPxrKL8pq+8EAOqumlWy3pN6MvGvqQj/Wd8JANAU6j3ry8S/pqr1necFAIAay8yi3rO+TPxrJCuwNpvNdDabrctlAIBGWa/Xs+l0uslsUy5zZ4J/DU0mk60mHwCgaTK7jMfjH9vtdlIuUxMe9amJ3NCrvhMAaKrILpFh1HvWk4l/zfR6vfMvRPAHAJqommGecmbvvEgtmPjXSFZgCf0AQFNFhoksE+fqPevFxL8mDofDcDQaFeVLAIBWKIpiNBwOD+VL7sjEvyYeHx+/xDG/IQMANFlmmsw43J+J/x2p7wQAukC9Zz0I/jWgvhMAaKPMNuo968GjPneivhMAaLvMNuo968HE/87UdwIAbVbNOOo978vE/44Wi8W3OAr9AEBbRcaJrBPnmX24DxP/G8tNLVnfKfQDAF2Q4X+3232Mek8bfW/PxP/G8g0+n8+/nxcAADoihp2ZgYT+2xP8byg3s0R9pw29AECXROaJ7LPf7z9EFoo1G31vy6M+d9Dv90/55hf8AYCuyOwTx9Pp1C+XuRET/xvJb7TL5fKz0A8AdFE1A0UmijVT/9sx8b+heGMPBoNjnAv+AEAXVTPQ8XgceNb/dkz8b+jh4eFrHIV+AKCrIgNFForzzEbchon/lcWUP77JZn1nuQwAwJOiKEbqPW/DxP/K8g2c1VX5DRcAoMsyE6n3vB3B/4pys8pqtfqkvhMA4A/5yE9kpMhKsWaj73V51OcG1HcCAPxdZqM4qve8PhP/K8lvrOo7AQB+rpqR1Hten4n/FcUbN+s7AQD4PfWe12Xif0XV+s7zAgAAf5NZSb3ndZn4X1hM+eOb6mazmc5ms3W5DADAC6zX69l0Ot1kpiqXuQDB/0omk8lWkw8AwMtkZhqPxz+22+2kXOaCPOpzQbkZRX0nAMDrRGaK7KTe83pM/K+g1+udf6iCPwDAy1Wz01NG7Z0XuRgT/wvLKiqhHwDgdSI7RYaK88xUXI6J/wUdDofhaDQqypcAALxDURSj4XB4KF/yTib+F/T4+PgljvlNFQCA18ssldmKyzDxfyf1nQAA16Pe83IE/wtR3wkAcDmZqdR7Xo5Hfd5BfScAwHVkplLveTkm/hegvhMA4PKq2Uq95/uZ+L/TYrH4FkehHwDgsiJbRcaK88xcvJ2J/xvk5pKs7xT6AQCuJ8P/brf7GPWeNvq+jYn/G+QbbT6ffz8vAABwVTFkzewl9L+N4P9Kuakk6jtt6AUAuL7IWpG59vv9h8hgsWaj7+t51OeN+v3+Kd+Egj8AwHVl5orj6XTql8u8gon/K+Q3y+Vy+VnoBwC4nWr2iiwWa6b+r2Pi/0rxBhsMBsc4F/wBAG6nmr2Ox+PAs/6vY+L/Sg8PD1/jKPQDANxWZK/IYHGemYyXM/F/gZjyxzfKrO8slwEAuKOiKEbqPV/OxP8F8o2UFVL5TRMAgNvLLKbe83UE/2fkppHVavVJfScAwP3lIz+RzSKjxZqNvs/zqM8Lqe8EAKiPzGRxVO/5Mib+v5HfHNV3AgDUSzWbqfd8GRP/Z8QbKOs7AQCoJ/WezzPxf0a1vvO8AABAbWRGU+/5PBP/n4gpf3xj3Gw209lsti6XAQCosfV6PZtOp5vMcuUyJcH/NyaTyVaTDwBAvWVWG4/HP7bb7aRc5i886vMXuSlEfScAQDNEVovMpt7z90z8f6HX651/MII/AED9VTPbU77tnRf5ExP/n8hKKKEfAKAZIrNFdovzzHL8mYn/XxwOh+FoNCrKlwAANFBRFKPhcHgoX/LExP8vHh8fv8QxvzECANAcmeEy0/EHE/8n6jsBANpHveefCf4V6jsBAJovs5x6zz/r/KM+6jsBANols5x6zz8z8S+p7wQAaI9qplPv+R829z5ZLBbf4ij0AwC0Q2S6yHZxnlmv6zo78c9NHlnfKfQDALRPhv/dbvcx6j27vNG3sxP//IXP5/Pv5wUAAFophruZ+boa+kMng39u7oj6Tht6AQDaKzJeZL39fv8hsl+sdXWjb6c39/b7/VO+GQR/AIB2yqwXx9Pp1C+XO6dzE//8hrdcLj8L/QAA7VfNfJEBY62LU/9OTvzjFz0YDI5xLvgDALRfNfMdj8dBF5/17+Qz/g8PD1/jKPQDAHRDZL7IfnGeWbBrOjPxjyl/fLPL+s5yGQCADiqKYtS1es/OTPzzF5pVTvmNDwCA7sgM2MV6z04E/9y8sVqtPqnvBADornzkJzJhZMNY68pG305t7lXfCQBAZsE4dqnes/UT//wGp74TAIBQzYRdqvfsxMQ/fpFZ3wkAAFVdqffsxDP+1frO8wIAAJ2X2bAr9Z6tnfjHlD++uW02m+lsNluXywAA8Dfr9Xo2nU43mSHL5VZp/aM+k8lkq8kHAICfyYw4Ho9/bLfbSbncSq181Cc3Z6jvBADgdyIjRlbsQr1nqyf+vV7v/JcT/AEA+JVqVnzKxr3zYgu1dnNvVjMJ/QAA/E5kxciMcZ4Zso1aOfE/HA7D0WhUlC8BAODFiqIYDYfDQ/myNVo58X98fPwSx/zmBgAAz8nsmFmybVoz8VffCQDApbSx3rN1j/qo7wQA4K0yQ7ax3rMVj/qo7wQA4BIyQ7ax3rNVE3/1nQAAvFc1S7ap3rM1m3sXi8W3OAr9AAC8R2TJyJRxnhmzDRo98c/NFlnfKfQDAHApGf53u93HqPds+kbfRk/88wc/n8+/nxcAAOCCYqicWbPJoT80NvjnJouo77ShFwCAS4tsGRlzv99/iMwZa03e6Nv4zb39fv+UvxTBHwCAS8qMGcfT6dQvlxupkRP//Ka1XC4/C/0AAFxLNWtG9oy1pk79Gzvxjx/4YDA4xrngDwDAtVSz5vF4HDT1Wf/GPuP/8PDwNY5CPwAA1xRZMzJnnGcGbaJGTfxjyh/fsLK+s1wGAICbKYpi1MR6z0ZN/PMHm5VK+c0LAACuLbNnU+s9GxP8cxPFarX6pL4TAIBby0d+IotGJo21Jm30bdzmXvWdAADcS2bQODat3rMRE//8JqW+EwCAe6pm0az3bIrGTPwj/Gd9JwAA1EGT6j0b84x/tb7zvAAAAHeSmbRJ9Z61nvhnRdJms5nOZrN1uQwAALWxXq9n0+l0k9m1XK6dRjzqM5lMtpp8AACok8ym4/H4x3a7nZTLtVXbR31yQ6/6TgAA6iiyaWTUptR71n7i3+v1zn9AwR8AgLqpZtSnXN07L9ZUrTf3ZkWS0A8AQB1FRo2sGud1r/es7cT/cDgMR6NRUb4EAIDaK4piNBwOD+XLWqntxP/x8fFLHPMbFAAA1FVm1sywdVSrib/6TgAAmq6u9Z61fNRHfScAAE2T2bWu9Z61edRHfScAAE2W2bWu9Z61m/ir7wQAoKmqGbZu9Z612ty7WCy+xVHoBwCgiSLDRpaN88y2dXH3iX9uesj6TqEfAICmy/C/2+0+Rr1nHTb63n3inz+A+Xz+/bwAAAAtEMPszLj3Dv3hrsE/NztEfacNvQAAtEVk2si2+/3+Q2TdWLv3Rt9abO7t9/un/OEI/gAAtEFm2zieTqd+uXw3d5v45zee5XL5WegHAKBtqhk3Mm+s3XPqf9eJf/zFB4PBMc4FfwAA2qaacY/H4+Cez/rf9Rn/h4eHr3EU+gEAaKPIuJF14zyz773cfOIfU/74ppP1neUyAAC0XlEUo3vVe9584p9/waw2ym9AAADQVpl571nvedPgn5sZVqvVJ/WdAAB0RT7yExk4snCs3Xqj710296rvBACgazL7xvEe9Z43m/jnNxr1nQAAdFE1A2e95y3ddOIf4T/rOwEAoMtuXe9502f8q/Wd5wUAAOiYzMK3rve8+sQ/q4o2m810Nputy2UAAOi89Xo9m06nm8zM5fJV3OxRn8lkstXkAwAAf2z0HY/HP7bb7aRcvqqrPuqTG3rVdwIAwB8iE0c2vmW9500m/r1e7/wvEfwBAOA/qtn4KZP3zotXdPXNvVlVJPQDAMAfIhtHRo7zW9R7XnXifzgchqPRqChfAgAAv1AUxWg4HB7Klxd31Yn/4+PjlzjmNxkAAODPMitndr6Wi0/81XcCAMDbXLPe82qP+qjvBACAl8nMfM16z4s+6qO+EwAAXi8z8zXrPa8y8VffCQAAr1PNzteo97z45t7FYvEtjkI/AAC8XGTnyNBxnpn6ki4y8c/NB1nfKfQDAMDbZPjf7XYfo97zUht9LzLxzz/IfD7/fl4AAADeLIboma0vEfrDu4N/bjqI+k4begEA4H0iS0em3u/3HyJjx9olNvpebHNvv98/5R9S8AcAgLfLTB3H0+nUL5ff5V0T//zmsVwuPwv9AABwGdVsHVk71t479X/3xD/+AIPB4Bjngj8AAFxGNVsfj8fBe5/1f/cz/g8PD1/jKPQDAMDlRLaOjB3nmbnf400T/5jyxzeOrO8slwEAgCspimL0nnrPN03881+UFUP5TQQAALiszNrvrfd8dfDPTQWr1eqT+k4AALiufOQnsndk8Fh7y0bfN2/uVd8JAAC3kZk7jm+t93zVxD+/WajvBACA26lm77fWe7564h//gqzvBAAAbu8t9Z6vfsa/Wt95XgAAAG4iM/hb6j1fNPGPKX98o9hsNtPZbLYulwEAgDtZr9ez6XS6yaxeLv/Sqx71mUwmW00+AABwP5nFx+Pxj+12OymXn/Xsoz65aUB9JwAA3F9k8cjkr633fPHEv9frnf+Lgj8AANxXNZM/5fneefEZLwr+URn0z3/+8x/5L4hj+R8BAAA3lpk8jv/4xz/++fnz52X5H/3SL4N/bhI4HA7D0WhUlMsAAEDNFEUxGg6Hh99t9P3lM/75P5jP59/PCwAAQC1lZv9V6A+vavUBAACa6dX/D7wAAIDmEfwBAKADBH8AAOgAwR8AADpA8AcAgA4Q/AEAoAMEfwAA6ADBHwAAOkDwBwCA1vuf//l/kSj6+OA3HFoAAAAASUVORK5CYII=;" vertex="1" parent="_8cUsbGrloG9QdCYFXXz-6">
          <mxGeometry x="1.7299999999999613" y="5" width="56.53" height="50" as="geometry" />
        </mxCell>
        <mxCell id="_8cUsbGrloG9QdCYFXXz-7" style="rounded=0;orthogonalLoop=1;jettySize=auto;html=1;exitX=1;exitY=0.5;exitDx=0;exitDy=0;entryX=0;entryY=0.5;entryDx=0;entryDy=0;strokeWidth=2;strokeColor=#007FFF;" edge="1" parent="1" source="KPgrsXEgDjS83-H8w_TJ-14" target="_8cUsbGrloG9QdCYFXXz-3">
          <mxGeometry relative="1" as="geometry" />
        </mxCell>
        <mxCell id="_8cUsbGrloG9QdCYFXXz-8" value="Vercel" style="text;html=1;align=center;verticalAlign=middle;whiteSpace=wrap;rounded=0;fontStyle=1;fontSize=11;" vertex="1" parent="1">
          <mxGeometry x="-354.42" y="-1960" width="50" height="20" as="geometry" />
        </mxCell>
      </root>
    </mxGraphModel>
  </diagram>
</mxfile>
